<?xml version="1.0" encoding="utf-8"?>
<svg xmlns="http://www.w3.org/2000/svg" xmlns:bx="https://boxy-svg.com">
  <symbol id="add" viewBox="0 0 20 20">
    <path d="M 10 1.22 C 10.38 1.22 10.69 1.5 10.74 1.87 L 10.74 9.22 L 18 9.22 C 18.58 9.19 18.98 9.79 18.72 10.31 C 18.61 10.55 18.37 10.71 18.1 10.72 L 10.75 10.72 L 10.75 17.97 C 10.79 18.55 10.19 18.95 9.67 18.7 C 9.43 18.58 9.27 18.34 9.25 18.07 L 9.25 10.72 L 2 10.72 C 1.42 10.76 1.02 10.16 1.28 9.64 C 1.39 9.4 1.63 9.24 1.9 9.22 L 9.25 9.22 L 9.25 1.97 C 9.25 1.56 9.58 1.22 10 1.22 Z"/>
  </symbol>
  <symbol id="alert" viewBox="0 0 20 20">
    <path d="M 10 0 C 14.05 0 17.35 3.2 17.49 7.25 L 17.5 7.5 L 17.5 11.6 L 18.88 14.75 C 18.94 14.91 18.98 15.08 18.98 15.25 C 18.98 15.95 18.42 16.5 17.73 16.5 L 13 16.51 C 13 18.16 11.65 19.51 10 19.51 C 8.4 19.51 7.09 18.26 7 16.68 L 6.99 16.5 L 2.27 16.5 C 2.1 16.5 1.93 16.47 1.77 16.4 C 1.14 16.13 0.85 15.39 1.12 14.76 L 2.5 11.6 L 2.5 7.5 C 2.5 3.35 5.85 0 10 0 Z M 11.49 16.5 L 8.5 16.51 C 8.5 17.33 9.17 18.01 10 18.01 C 10.78 18.01 11.42 17.41 11.49 16.65 L 11.49 16.5 Z M 10 1.5 C 6.68 1.5 4 4.18 4 7.5 L 4 11.91 L 2.65 15 L 17.35 15 L 16 11.91 L 16 7.51 L 15.99 7.29 C 15.88 4.06 13.24 1.5 10 1.5 Z" fill="#212121"/>
  </symbol>
  <symbol id="bars" viewBox="0 0 20 20">
    <path d="M 3.57 1 C 2.16 1 1 2.16 1 3.57 L 1 4.86 C 1 5.63 1.34 6.33 1.87 6.79 C 1.34 7.27 1 7.93 1 8.72 L 1 11.28 C 1 12.07 1.34 12.73 1.87 13.21 C 1.34 13.67 1 14.37 1 15.14 L 1 16.43 C 1 17.84 2.16 19 3.57 19 L 16.43 19 C 17.84 19 19 17.84 19 16.43 L 19 15.14 C 19 14.37 18.66 13.67 18.13 13.21 C 18.66 12.73 19 12.07 19 11.28 L 19 8.72 C 19 7.93 18.66 7.27 18.13 6.79 C 18.66 6.33 19 5.63 19 4.86 L 19 3.57 C 19 2.16 17.84 1 16.43 1 L 3.57 1 Z M 2.3 15.14 C 2.3 14.42 2.87 13.86 3.57 13.86 L 6.14 13.86 L 6.14 17.7 L 3.57 17.7 C 2.87 17.7 2.3 17.13 2.3 16.43 L 2.3 15.14 Z M 7.43 17.7 L 7.43 13.86 L 16.43 13.86 C 17.13 13.86 17.7 14.42 17.7 15.14 L 17.7 16.43 C 17.7 17.13 17.13 17.7 16.43 17.7 L 7.43 17.7 Z M 7.43 12.57 L 7.43 7.43 L 16.43 7.43 C 17.13 7.43 17.7 8.01 17.7 8.72 L 17.7 11.28 C 17.7 11.99 17.13 12.57 16.43 12.57 L 7.43 12.57 Z M 6.14 7.43 L 6.14 12.57 L 3.57 12.57 C 2.87 12.57 2.3 11.99 2.3 11.28 L 2.3 8.72 C 2.3 8.01 2.87 7.43 3.57 7.43 L 6.14 7.43 Z M 6.14 6.14 L 3.57 6.14 C 2.87 6.14 2.3 5.58 2.3 4.86 L 2.3 3.57 C 2.3 2.87 2.87 2.3 3.57 2.3 L 6.14 2.3 L 6.14 6.14 Z M 7.43 6.14 L 7.43 2.3 L 16.43 2.3 C 17.13 2.3 17.7 2.87 17.7 3.57 L 17.7 4.86 C 17.7 5.58 17.13 6.14 16.43 6.14 L 7.43 6.14 Z" style="fill: inherit;"/>
  </symbol>
  <symbol id="bookmark" viewBox="0 0 20 20">
    <path d="M 4.19 19.86 C 3.69 20.21 3 19.86 3 19.25 L 3 4.25 C 3 2.46 4.46 1 6.25 1 L 13.75 1 C 15.54 1 17 2.46 17 4.25 L 17 19.25 C 17 19.86 16.31 20.21 15.81 19.86 L 10 15.68 L 4.19 19.86 Z M 15.5 4.25 C 15.5 3.28 14.72 2.5 13.75 2.5 L 6.25 2.5 C 5.28 2.5 4.5 3.28 4.5 4.25 L 4.5 17.78 L 9.56 14.14 C 9.82 13.95 10.18 13.95 10.44 14.14 L 15.5 17.78 L 15.5 4.25 Z"/>
  </symbol>
  <symbol id="bug" viewBox="0 0 20 20">
    <path d="M 8.5 0.75 C 8.5 0.33 8.16 0 7.75 0 C 7.34 0 7 0.33 7 0.75 L 7 1.5 C 7 2.13 7.2 2.72 7.53 3.2 C 6.14 3.68 5.11 4.96 5.01 6.48 L 4.76 6.48 L 4.75 6.48 C 3.51 6.48 2.51 5.47 2.51 4.23 L 2.52 2.74 C 2.52 2.33 2.19 1.99 1.77 1.99 C 1.36 1.98 1.02 2.32 1.02 2.73 L 1.01 4.22 C 1 6.29 2.68 7.98 4.75 7.98 L 4.76 7.98 L 5 7.98 L 5 9.49 L 0.75 9.49 C 0.34 9.49 0 9.83 0 10.24 C 0 10.66 0.34 10.99 0.75 10.99 L 5 10.99 L 5 12.99 L 4.76 12.99 L 4.75 12.99 C 2.68 13 1 14.68 1.01 16.75 L 1.02 18.24 C 1.02 18.65 1.36 18.99 1.77 18.98 C 2.19 18.98 2.52 18.65 2.52 18.23 L 2.51 16.75 C 2.51 15.5 3.51 14.49 4.75 14.49 L 4.76 14.49 L 5.23 14.49 C 5.86 16.52 7.76 17.99 10 17.99 C 12.24 17.99 14.14 16.52 14.77 14.49 L 15.24 14.49 L 15.25 14.49 C 16.49 14.49 17.49 15.5 17.49 16.75 L 17.48 18.23 C 17.48 18.65 17.81 18.98 18.23 18.98 C 18.64 18.99 18.98 18.65 18.98 18.24 L 18.99 16.75 C 19 14.68 17.32 13 15.25 12.99 L 15.24 12.99 L 15 12.99 L 15 10.99 L 19.25 10.99 C 19.66 10.99 20 10.66 20 10.24 C 20 9.83 19.66 9.49 19.25 9.49 L 15 9.49 L 15 7.98 L 15.24 7.98 L 15.25 7.98 C 17.32 7.98 19 6.29 18.99 4.22 L 18.98 2.73 C 18.98 2.32 18.64 1.98 18.23 1.99 C 17.81 1.99 17.48 2.33 17.48 2.74 L 17.49 4.23 C 17.49 5.47 16.49 6.48 15.25 6.48 L 15.24 6.48 L 14.99 6.48 C 14.88 4.96 13.86 3.68 12.47 3.2 C 12.8 2.72 13 2.13 13 1.5 L 13 0.75 C 13 0.33 12.66 0 12.25 0 C 11.84 0 11.5 0.33 11.5 0.75 L 11.5 1.5 C 11.5 2.33 10.83 3 10 3 C 9.17 3 8.5 2.33 8.5 1.5 L 8.5 0.75 Z M 6.5 6.75 C 6.5 5.51 7.51 4.5 8.75 4.5 L 11.25 4.5 C 12.49 4.5 13.5 5.51 13.5 6.75 L 13.5 12.99 C 13.5 14.93 11.93 16.49 10 16.49 C 8.07 16.49 6.5 14.93 6.5 12.99 L 6.5 6.75 Z"/>
  </symbol>
  <symbol id="calendar" viewBox="0 0 20 20">
    <path d="M 15.75 1 C 17.54 1 19 2.46 19 4.25 L 19 15.75 C 19 17.54 17.54 19 15.75 19 L 4.25 19 C 2.46 19 1 17.54 1 15.75 L 1 4.25 C 1 2.46 2.46 1 4.25 1 L 15.75 1 Z M 17.5 6.5 L 2.5 6.5 L 2.5 15.75 C 2.5 16.72 3.28 17.5 4.25 17.5 L 15.75 17.5 C 16.72 17.5 17.5 16.72 17.5 15.75 L 17.5 6.5 Z M 5.75 12.5 C 6.44 12.5 7 13.06 7 13.75 C 7 14.44 6.44 15 5.75 15 C 5.06 15 4.5 14.44 4.5 13.75 C 4.5 13.06 5.06 12.5 5.75 12.5 Z M 10 12.5 C 10.69 12.5 11.25 13.06 11.25 13.75 C 11.25 14.44 10.69 15 10 15 C 9.31 15 8.75 14.44 8.75 13.75 C 8.75 13.06 9.31 12.5 10 12.5 Z M 5.75 8.5 C 6.44 8.5 7 9.06 7 9.75 C 7 10.44 6.44 11 5.75 11 C 5.06 11 4.5 10.44 4.5 9.75 C 4.5 9.06 5.06 8.5 5.75 8.5 Z M 10 8.5 C 10.69 8.5 11.25 9.06 11.25 9.75 C 11.25 10.44 10.69 11 10 11 C 9.31 11 8.75 10.44 8.75 9.75 C 8.75 9.06 9.31 8.5 10 8.5 Z M 14.25 8.5 C 14.94 8.5 15.5 9.06 15.5 9.75 C 15.5 10.44 14.94 11 14.25 11 C 13.56 11 13 10.44 13 9.75 C 13 9.06 13.56 8.5 14.25 8.5 Z M 15.75 2.5 L 4.25 2.5 C 3.28 2.5 2.5 3.28 2.5 4.25 L 2.5 5 L 17.5 5 L 17.5 4.25 C 17.5 3.28 16.72 2.5 15.75 2.5 Z"/>
  </symbol>
  <symbol id="chevron-left" viewBox="0 0 20 20">
    <path d="M 14.15 2.21 C 14.44 2.51 14.44 2.98 14.15 3.27 L 7.43 9.99 L 14.15 16.71 C 14.57 17.11 14.41 17.81 13.85 17.98 C 13.58 18.06 13.28 17.98 13.09 17.77 L 5.84 10.52 C 5.54 10.23 5.54 9.76 5.84 9.46 L 13.09 2.21 C 13.38 1.91 13.85 1.91 14.15 2.21 Z"/>
  </symbol>
  <symbol id="chevron-right" viewBox="0 0 20 20">
    <path d="M 5.85 2.21 C 5.56 2.51 5.56 2.98 5.85 3.27 L 12.57 9.99 L 5.85 16.71 C 5.43 17.1 5.59 17.81 6.14 17.98 C 6.42 18.06 6.71 17.98 6.91 17.77 L 14.17 10.52 C 14.46 10.22 14.46 9.75 14.17 9.46 L 6.91 2.21 C 6.62 1.92 6.14 1.92 5.85 2.21 Z"/>
  </symbol>
  <symbol id="circle" viewBox="0 0 20 20">
    <path d="M 366.63 264.53 m -9 0 a 9 9 0 1 0 18 0 a 9 9 0 1 0 -18 0 Z M 366.63 264.53 m -7.5 0 a 7.5 7.5 0 0 1 15 0 a 7.5 7.5 0 0 1 -15 0 Z" style="fill: inherit; transform-box: fill-box; transform-origin: 50% 50%;" transform="matrix(0, 1, -1, 0, -356.630005, -254.529999)"/>
  </symbol>
  <symbol id="clock" viewBox="0 0 20 20">
    <path d="M 10 0 C 15.52 0 20 4.48 20 10 C 20 15.52 15.52 20 10 20 C 4.48 20 0 15.52 0 10 C 0 4.48 4.48 0 10 0 Z M 10 1.67 C 5.41 1.67 1.67 5.41 1.67 10 C 1.67 14.6 5.41 18.33 10 18.33 C 14.6 18.33 18.33 14.6 18.33 10 C 18.33 5.41 14.6 1.67 10 1.67 Z M 9.25 4 C 9.63 4 9.94 4.28 9.99 4.65 L 10 4.75 L 10 10 L 13.25 10 C 13.66 10 14 10.34 14 10.75 C 14 11.13 13.72 11.44 13.35 11.49 L 13.25 11.5 L 9.25 11.5 C 8.87 11.5 8.56 11.22 8.51 10.85 L 8.5 10.75 L 8.5 4.75 C 8.5 4.34 8.84 4 9.25 4 Z"/>
  </symbol>
  <symbol id="code" viewBox="0 0 20 20">
    <path d="M 6.07 16.94 L 12.57 2.44 C 12.74 2.07 13.18 1.9 13.56 2.07 C 13.9 2.22 14.07 2.61 13.97 2.96 L 13.93 3.06 L 7.43 17.56 C 7.26 17.93 6.82 18.1 6.44 17.93 C 6.1 17.78 5.93 17.39 6.03 17.04 L 6.07 16.94 L 12.57 2.44 L 6.07 16.94 Z M 0.22 9.47 L 4.47 5.22 C 4.76 4.93 5.24 4.93 5.53 5.22 C 5.8 5.49 5.82 5.9 5.6 6.2 L 5.53 6.28 L 1.81 10 L 5.53 13.72 C 5.82 14.01 5.82 14.49 5.53 14.78 C 5.26 15.05 4.85 15.07 4.55 14.85 L 4.47 14.78 L 0.22 10.53 C -0.05 10.26 -0.07 9.85 0.15 9.55 L 0.22 9.47 L 4.47 5.22 L 0.22 9.47 Z M 14.47 5.22 C 14.74 4.95 15.15 4.93 15.45 5.15 L 15.53 5.22 L 19.78 9.47 C 20.05 9.74 20.07 10.15 19.85 10.45 L 19.78 10.53 L 15.53 14.78 C 15.24 15.07 14.76 15.07 14.47 14.78 C 14.2 14.51 14.18 14.1 14.4 13.8 L 14.47 13.72 L 18.19 10 L 14.47 6.28 C 14.18 5.99 14.18 5.51 14.47 5.22 Z"/>
  </symbol>
  <symbol id="color-palette" viewBox="0 0 20 20">
    <path d="M 1.77 3.83 C 4.71 -0.09 10.8 -1.23 15.13 1.47 C 19.41 4.13 20.99 9.25 19.23 14.05 C 17.58 18.58 13.22 20.37 10.07 18.09 C 8.9 17.24 8.44 16.17 8.22 14.43 L 8.12 13.44 L 8.07 13.04 C 7.95 12.11 7.76 11.69 7.37 11.47 C 6.83 11.17 6.47 11.17 5.77 11.44 L 5.42 11.59 L 5.24 11.66 C 4.23 12.1 3.55 12.26 2.7 12.08 L 2.5 12.03 L 2.33 11.99 C -0.45 11.12 -0.87 7.34 1.77 3.83 Z M 2.75 10.54 L 2.88 10.57 L 3.01 10.6 C 3.45 10.69 3.83 10.62 4.45 10.36 L 5.05 10.1 C 6.25 9.61 7.03 9.56 8.09 10.15 C 9.01 10.66 9.37 11.45 9.55 12.81 L 9.61 13.27 L 9.66 13.8 L 9.71 14.23 C 9.88 15.59 10.19 16.32 10.96 16.87 C 13.23 18.52 16.49 17.17 17.83 13.52 C 19.34 9.37 18 5.01 14.34 2.73 C 10.67 0.46 5.44 1.44 2.97 4.74 C 0.89 7.49 1.15 10.01 2.75 10.54 Z M 13.98 8.54 C 13.73 7.61 14.58 6.76 15.51 7.01 C 15.95 7.12 16.28 7.46 16.4 7.89 C 16.65 8.82 15.8 9.68 14.87 9.43 C 14.43 9.31 14.1 8.97 13.98 8.54 Z M 14.48 12.03 C 14.13 11.13 14.89 10.2 15.84 10.35 C 16.37 10.43 16.79 10.85 16.88 11.38 C 17.03 12.33 16.1 13.09 15.2 12.75 C 14.87 12.62 14.61 12.36 14.48 12.03 Z M 11.99 5.54 C 11.68 4.63 12.47 3.72 13.41 3.91 C 13.91 4.01 14.31 4.4 14.4 4.9 C 14.6 5.84 13.7 6.65 12.79 6.35 C 12.41 6.22 12.12 5.93 11.99 5.55 Z M 11.97 14.54 C 11.72 13.61 12.58 12.76 13.51 13.01 C 13.94 13.13 14.28 13.47 14.39 13.9 C 14.64 14.83 13.79 15.69 12.86 15.44 C 12.42 15.32 12.09 14.98 11.97 14.55 Z M 8.47 4.58 C 8.22 3.65 9.07 2.8 10 3.05 C 10.44 3.16 10.77 3.5 10.89 3.93 C 11.14 4.86 10.29 5.72 9.36 5.47 C 8.92 5.35 8.59 5.01 8.47 4.58 Z"/>
  </symbol>
  <symbol id="comment" viewBox="0 0 20 20">
    <path d="M 3 2.99 C 3.13 1.32 4.54 -0.01 6.25 -0.01 L 15.25 -0.01 C 17.87 -0.01 20 2.12 20 4.74 L 20 10.74 C 20 12.44 18.69 13.85 17 13.98 C 16.87 15.68 15.45 16.99 13.75 16.98 L 8.67 16.98 L 5 19.75 C 4.18 20.37 3 19.78 3 18.75 L 3 16.99 C 1.31 16.86 0 15.45 0 13.75 L 0 6.25 C -0.01 4.55 1.3 3.12 3 2.99 Z M 4.52 2.99 L 13.75 2.99 C 15.55 2.99 17 4.44 17 6.24 L 17 12.47 C 17.85 12.35 18.5 11.62 18.5 10.74 L 18.5 4.74 C 18.5 2.94 17.05 1.49 15.25 1.49 L 6.25 1.49 C 5.37 1.49 4.64 2.14 4.52 2.99 Z M 3.25 15.49 L 4.5 15.49 L 4.5 18.24 L 8.17 15.49 L 13.75 15.49 C 14.72 15.49 15.5 14.7 15.5 13.74 L 15.5 6.24 C 15.5 5.27 14.72 4.49 13.75 4.49 L 3.25 4.49 C 2.28 4.49 1.5 5.27 1.5 6.24 L 1.5 13.74 C 1.5 14.7 2.28 15.49 3.25 15.49 Z"/>
  </symbol>
  <symbol id="copy" viewBox="0 0 20 20">
    <path d="M 3.5 2.63 L 3.5 15.25 C 3.5 17.05 4.96 18.5 6.75 18.5 L 15.37 18.5 C 15.06 19.38 14.22 20 13.24 20 L 6.75 20 C 4.13 20 2 17.87 2 15.25 L 2 4.75 C 2 3.77 2.63 2.93 3.5 2.62 Z M 15.75 0 C 16.99 0 18 1 18 2.25 L 18 15.25 C 18 16.49 17 17.5 15.75 17.5 L 6.75 17.5 C 5.51 17.5 4.5 16.5 4.5 15.25 L 4.5 2.25 C 4.5 1 5.5 0 6.75 0 L 15.75 0 Z M 15.75 1.5 L 6.75 1.5 C 6.34 1.5 6 1.84 6 2.25 L 6 15.25 C 6 15.66 6.34 16 6.75 16 L 15.75 16 C 16.16 16 16.5 15.66 16.5 15.25 L 16.5 2.25 C 16.5 1.84 16.16 1.5 15.75 1.5 Z"/>
  </symbol>
  <symbol id="credit-card" viewBox="0 0 20 20">
    <path d="M 2.75 3 C 1.23 3 0 4.23 0 5.75 L 0 14.25 C 0 15.77 1.23 17 2.75 17 L 17.25 17 C 18.77 17 20 15.77 20 14.25 L 20 5.75 C 20 4.23 18.77 3 17.25 3 L 2.75 3 Z M 1.5 14.25 L 1.5 9 L 18.5 9 L 18.5 14.25 C 18.5 14.94 17.94 15.5 17.25 15.5 L 2.75 15.5 C 2.06 15.5 1.5 14.94 1.5 14.25 Z M 1.5 7.5 L 1.5 5.75 C 1.5 5.06 2.06 4.5 2.75 4.5 L 17.25 4.5 C 17.94 4.5 18.5 5.06 18.5 5.75 L 18.5 7.5 L 1.5 7.5 Z"/>
  </symbol>
  <symbol id="crop" viewBox="0 0 20 20">
    <path d="M 19.25 15 C 19.66 15 20 15.34 20 15.75 C 20 16.13 19.72 16.44 19.35 16.49 L 19.25 16.5 L 16.5 16.5 L 16.5 19.25 C 16.5 19.66 16.16 20 15.75 20 C 15.37 20 15.05 19.72 15 19.35 L 15 19.25 L 15 16.5 L 6.75 16.5 C 5.02 16.5 3.6 15.14 3.5 13.43 L 3.5 13.25 L 3.5 5 L 0.75 5 C 0.33 5 0 4.66 0 4.25 C 0 3.87 0.28 3.56 0.65 3.51 L 0.75 3.5 L 3.5 3.5 L 3.5 0.75 C 3.5 0.34 3.83 0 4.25 0 C 4.63 0 4.94 0.28 4.99 0.65 L 5 0.75 L 5 3.5 L 5 3.5 L 5 5 L 5 5 L 5 13.25 C 5 14.17 5.71 14.92 6.6 14.99 L 6.75 15 L 19.25 15 Z M 6 3.5 L 13.25 3.5 C 14.98 3.5 16.4 4.86 16.49 6.57 L 16.5 6.75 L 16.5 14 L 15 14 L 15 6.75 C 15 5.83 14.29 5.08 13.39 5.01 L 13.25 5 L 6 5 L 6 3.5 Z"/>
  </symbol>
  <symbol id="cut" viewBox="0 0 20 20">
    <path d="M 11.06 8.69 L 13.5 12.29 C 13.97 12.1 14.47 12 15 12 C 17.21 12 19 13.79 19 16 C 19 18.21 17.21 20 15 20 C 12.79 20 11 18.21 11 16 C 11 14.86 11.48 13.83 12.24 13.1 L 10.18 10.07 L 8.04 13.4 C 8.64 14.1 9 15.01 9 16 C 9 18.21 7.21 20 5 20 C 2.79 20 1 18.21 1 16 C 1 13.79 2.79 12 5 12 C 5.67 12 6.31 12.17 6.86 12.46 L 9.26 8.72 L 4.13 1.17 C 3.9 0.83 3.99 0.36 4.33 0.13 C 4.67 -0.1 5.14 -0.01 5.37 0.33 L 10.14 7.34 Z M 5 18.5 C 6.38 18.5 7.5 17.38 7.5 16 C 7.5 14.62 6.38 13.5 5 13.5 C 3.62 13.5 2.5 14.62 2.5 16 C 2.5 17.38 3.62 18.5 5 18.5 Z M 15 18.5 C 16.38 18.5 17.5 17.38 17.5 16 C 17.5 14.62 16.38 13.5 15 13.5 C 13.62 13.5 12.5 14.62 12.5 16 C 12.5 17.38 13.62 18.5 15 18.5 Z M 11.02 5.97 L 14.62 0.35 C 14.84 0 15.31 -0.1 15.65 0.12 C 16 0.34 16.1 0.81 15.88 1.15 L 11.94 7.32 Z"/>
  </symbol>
  <symbol id="delete" viewBox="0 0 20 20">
    <path d="M 10 -0.25 C 11.73 -0.25 13.15 1.1 13.24 2.81 L 13.25 3 L 18.5 3 C 18.91 3 19.25 3.33 19.25 3.75 C 19.25 4.12 18.97 4.44 18.6 4.49 L 18.5 4.5 L 17.7 4.5 L 16.42 17.51 C 16.29 18.86 15.2 19.91 13.86 19.99 L 13.69 20 L 6.31 20 C 4.96 20 3.81 19.01 3.6 17.69 L 3.58 17.51 L 2.3 4.5 L 1.5 4.5 C 1.12 4.5 0.81 4.21 0.76 3.85 L 0.75 3.75 C 0.75 3.37 1.03 3.05 1.4 3 L 1.5 3 L 6.75 3 C 6.75 1.2 8.21 -0.25 10 -0.25 Z M 16.2 4.5 L 3.8 4.5 L 5.07 17.37 C 5.13 17.96 5.6 18.43 6.19 18.49 L 6.31 18.5 L 13.69 18.5 C 14.29 18.5 14.8 18.07 14.91 17.49 L 14.93 17.37 L 16.2 4.5 Z M 11.75 7.25 C 12.13 7.25 12.44 7.53 12.49 7.89 L 12.5 8 L 12.5 15 C 12.5 15.41 12.16 15.75 11.75 15.75 C 11.37 15.75 11.06 15.46 11.01 15.1 L 11 15 L 11 8 C 11 7.58 11.34 7.25 11.75 7.25 Z M 8.25 7.25 C 8.63 7.25 8.94 7.53 8.99 7.89 L 9 8 L 9 15 C 9 15.41 8.66 15.75 8.25 15.75 C 7.87 15.75 7.56 15.46 7.51 15.1 L 7.5 15 L 7.5 8 C 7.5 7.58 7.84 7.25 8.25 7.25 Z M 10 1.25 C 9.08 1.25 8.33 1.95 8.26 2.85 L 8.25 3 L 11.75 3 C 11.75 2.03 10.97 1.25 10 1.25 Z"/>
  </symbol>
  <symbol id="earth" viewBox="0 0 20 20">
    <path d="M 8.95 0.05 L 8.95 0.05 C 9.3 0.02 9.65 0 10 0 C 15.52 0 20 4.48 20 10 C 20 15.52 15.52 20 10 20 C 6.79 20 3.93 18.49 2.1 16.14 L 2.1 16.14 L 2.1 16.14 C 0.78 14.44 0 12.31 0 10 C 0 4.84 3.91 0.59 8.93 0.06 L 8.95 0.05 Z M 10 1.5 C 9.95 1.5 9.89 1.5 9.84 1.5 C 9.96 1.75 10.09 2.03 10.21 2.35 C 10.56 3.27 10.88 4.63 10.31 5.84 C 9.79 6.95 8.89 7.24 8.22 7.41 L 8.14 7.43 C 7.48 7.6 7.23 7.67 7.05 7.95 C 6.88 8.2 6.9 8.53 7.11 9.2 C 7.12 9.24 7.14 9.29 7.15 9.34 C 7.24 9.6 7.33 9.91 7.38 10.21 C 7.45 10.57 7.47 11.03 7.23 11.48 C 7 11.93 6.69 12.23 6.33 12.43 C 5.99 12.61 5.64 12.68 5.37 12.73 L 5.28 12.75 C 4.77 12.84 4.52 12.88 4.28 13.14 C 4.09 13.34 3.97 13.69 3.9 14.21 C 3.87 14.43 3.86 14.64 3.84 14.86 L 3.83 14.98 C 3.81 15.22 3.79 15.5 3.73 15.74 L 3.73 15.74 C 5.28 17.44 7.52 18.5 10 18.5 C 11.58 18.5 13.05 18.07 14.32 17.32 C 14.22 17.22 14.11 17.1 14.01 16.97 C 13.67 16.54 13.22 15.81 13.38 14.94 C 13.45 14.52 13.68 14.17 13.89 13.9 C 14.11 13.63 14.38 13.38 14.61 13.16 C 14.67 13.11 14.72 13.06 14.77 13.02 C 14.95 12.85 15.1 12.72 15.23 12.58 C 15.4 12.4 15.44 12.32 15.44 12.31 C 15.51 12.09 15.43 11.93 15.34 11.86 C 15.29 11.82 15.23 11.8 15.15 11.8 C 15.06 11.8 14.93 11.82 14.75 11.94 C 14.54 12.07 14.23 12.15 13.91 12.02 C 13.64 11.92 13.5 11.71 13.42 11.59 C 13.28 11.35 13.2 11.05 13.15 10.82 C 13.11 10.64 13.07 10.45 13.03 10.27 C 13.02 10.19 13 10.12 12.99 10.06 C 12.94 9.81 12.9 9.63 12.86 9.52 C 12.86 9.52 12.85 9.51 12.84 9.48 C 12.82 9.46 12.8 9.42 12.77 9.38 C 12.72 9.29 12.64 9.19 12.55 9.06 C 12.51 9.02 12.48 8.97 12.44 8.92 C 12.28 8.71 12.08 8.45 11.92 8.21 C 11.73 7.91 11.5 7.52 11.43 7.1 C 11.4 6.88 11.4 6.63 11.49 6.37 C 11.58 6.1 11.75 5.89 11.98 5.72 C 12.46 5.36 13.17 4.55 13.8 3.76 C 14.09 3.4 14.34 3.06 14.53 2.81 C 13.22 1.98 11.67 1.5 10 1.5 Z M 15.73 3.72 C 15.53 3.98 15.27 4.33 14.97 4.7 C 14.37 5.45 13.57 6.38 12.92 6.89 C 12.95 6.98 13.02 7.15 13.18 7.38 C 13.31 7.58 13.46 7.78 13.61 7.99 C 13.66 8.04 13.7 8.1 13.74 8.16 C 13.92 8.39 14.15 8.7 14.26 9 C 14.35 9.23 14.41 9.52 14.46 9.76 C 14.48 9.85 14.5 9.93 14.51 10.01 C 14.54 10.14 14.56 10.26 14.59 10.38 C 15.19 10.21 15.79 10.31 16.26 10.67 C 16.86 11.14 17.12 11.96 16.88 12.75 C 16.77 13.11 16.52 13.41 16.32 13.62 C 16.15 13.79 15.94 13.98 15.76 14.15 C 15.72 14.19 15.67 14.23 15.63 14.27 C 15.4 14.48 15.21 14.67 15.06 14.84 C 14.91 15.03 14.87 15.14 14.86 15.2 C 14.82 15.42 14.92 15.71 15.18 16.04 C 15.3 16.19 15.43 16.31 15.53 16.4 C 15.54 16.41 15.55 16.42 15.56 16.43 C 17.36 14.87 18.5 12.57 18.5 10 C 18.5 7.51 17.43 5.27 15.73 3.72 Z M 1.5 10 C 1.5 11.4 1.84 12.72 2.44 13.88 C 2.52 13.32 2.7 12.63 3.18 12.11 C 3.78 11.47 4.52 11.35 4.98 11.27 C 5.03 11.27 5.07 11.26 5.11 11.25 C 5.36 11.21 5.5 11.17 5.61 11.11 C 5.7 11.06 5.8 10.98 5.9 10.79 C 5.92 10.76 5.94 10.68 5.91 10.46 C 5.87 10.28 5.81 10.08 5.73 9.83 C 5.71 9.77 5.69 9.7 5.67 9.64 C 5.49 9.03 5.19 8.03 5.79 7.12 C 6.32 6.33 7.15 6.13 7.69 6 C 7.75 5.98 7.8 5.97 7.85 5.96 C 8.41 5.81 8.73 5.68 8.96 5.2 C 9.25 4.57 9.12 3.72 8.81 2.88 C 8.66 2.48 8.49 2.14 8.35 1.89 C 8.3 1.81 8.27 1.74 8.23 1.68 C 4.39 2.5 1.5 5.91 1.5 10 Z"/>
  </symbol>
  <symbol id="edit" viewBox="0 0 20 20">
    <path d="M 18.99 1.01 C 20.39 2.41 20.39 4.67 18.99 6.07 L 7.02 18.04 C 6.75 18.31 6.4 18.51 6.02 18.62 L 0.91 20.01 C 0.35 20.17 -0.17 19.65 -0.01 19.09 L 1.38 13.98 C 1.49 13.6 1.69 13.25 1.96 12.98 L 13.93 1.01 C 15.33 -0.39 17.59 -0.39 18.99 1.01 Z M 12.96 4.1 L 3.02 14.04 C 2.93 14.13 2.86 14.24 2.83 14.37 L 1.78 18.22 L 5.63 17.17 C 5.76 17.14 5.87 17.07 5.96 16.98 L 15.9 7.04 L 12.96 4.1 Z M 14.99 2.07 L 14.02 3.04 L 16.96 5.98 L 17.93 5.01 C 18.74 4.2 18.74 2.88 17.93 2.07 C 17.12 1.26 15.8 1.26 14.99 2.07 Z"/>
  </symbol>
  <symbol id="eye-dropper" viewBox="0 0 20 20">
    <path d="M 18.06 1.94 C 16.81 0.69 14.79 0.69 13.53 1.94 L 11.76 3.7 L 11.75 3.69 C 11.14 3.08 10.15 3.08 9.53 3.69 L 9 4.23 C 8.39 4.83 8.39 5.82 9 6.43 L 9.01 6.44 L 2.95 12.51 C 2.56 12.9 2.37 13.4 2.37 13.94 L 2.37 14.56 L 1.2 16.66 C 0.46 18.03 1.96 19.54 3.34 18.79 L 5.43 17.64 L 6.05 17.64 C 6.59 17.64 7.1 17.44 7.49 17.05 L 13.55 10.99 L 13.57 11 C 14.18 11.61 15.17 11.61 15.77 11 L 16.3 10.47 C 16.93 9.84 16.93 8.86 16.3 8.25 L 16.3 8.24 L 18.06 6.47 C 19.32 5.21 19.32 3.19 18.06 1.94 Z M 14.48 2.89 C 15.22 2.17 16.37 2.17 17.1 2.89 C 17.83 3.63 17.83 4.79 17.1 5.52 L 14.87 7.76 C 14.61 8.03 14.61 8.45 14.87 8.71 L 15.35 9.19 C 15.44 9.28 15.44 9.43 15.35 9.51 L 14.84 10.04 C 14.75 10.13 14.6 10.13 14.52 10.04 L 9.96 5.48 C 9.87 5.39 9.87 5.25 9.96 5.16 L 10.48 4.64 C 10.57 4.56 10.72 4.56 10.81 4.64 L 11.28 5.12 C 11.56 5.39 11.97 5.39 12.23 5.12 L 14.48 2.89 Z M 12.6 10.02 L 6.53 16.1 C 6.4 16.23 6.24 16.3 6.05 16.3 L 5.26 16.3 C 5.15 16.3 5.03 16.32 4.94 16.37 L 2.69 17.6 C 2.63 17.64 2.57 17.64 2.54 17.63 C 2.5 17.63 2.46 17.6 2.43 17.56 C 2.39 17.53 2.37 17.49 2.37 17.45 C 2.37 17.42 2.37 17.36 2.39 17.3 L 3.63 15.06 C 3.68 14.97 3.7 14.85 3.7 14.74 L 3.7 13.94 C 3.7 13.76 3.76 13.6 3.9 13.46 L 9.97 7.39 L 12.6 10.02 Z" style="fill: inherit;"/>
  </symbol>
  <symbol id="flag" viewBox="0 0 20 20">
    <path d="M 0.99 1.75 C 0.99 1.34 1.33 1 1.74 1 L 18.25 1 C 18.87 1 19.22 1.71 18.85 2.2 L 14.68 7.75 L 18.85 13.3 C 19.22 13.8 18.87 14.5 18.25 14.5 L 2.49 14.5 L 2.49 19.25 C 2.49 19.63 2.21 19.95 1.85 20 L 1.74 20 C 1.36 20 1.05 19.72 1 19.35 L 0.99 19.25 L 0.99 1.75 Z M 16.75 2.5 L 2.49 2.5 L 2.49 13 L 16.75 13 L 13.15 8.2 C 12.95 7.93 12.95 7.57 13.15 7.3 L 16.75 2.5 Z"/>
  </symbol>
  <symbol id="folder" viewBox="0 0 20 20">
    <path d="M 6.21 2 C 6.67 2 7.12 2.14 7.49 2.4 L 7.65 2.52 L 10.02 4.5 L 17.75 4.5 C 18.89 4.5 19.83 5.34 19.98 6.44 L 19.99 6.6 L 20 6.75 L 20 15.75 C 20 16.94 19.07 17.92 17.9 17.99 L 17.75 18 L 2.25 18 C 1.06 18 0.08 17.07 0.01 15.9 L 0 15.75 L 0 4.25 C 0 3.06 0.93 2.08 2.1 2.01 L 2.25 2 L 6.21 2 Z M 7.65 7.98 C 7.29 8.27 6.86 8.45 6.4 8.49 L 6.21 8.5 L 1.5 8.5 L 1.5 15.75 C 1.5 16.13 1.78 16.44 2.15 16.49 L 2.25 16.5 L 17.75 16.5 C 18.13 16.5 18.44 16.22 18.49 15.85 L 18.5 15.75 L 18.5 6.75 C 18.5 6.37 18.22 6.06 17.85 6.01 L 17.75 6 L 10.02 6 L 7.65 7.98 Z M 6.21 3.5 L 2.25 3.5 C 1.87 3.5 1.56 3.78 1.51 4.15 L 1.5 4.25 L 1.5 7 L 6.21 7 C 6.35 7 6.48 6.96 6.6 6.89 L 6.69 6.83 L 8.58 5.25 L 6.69 3.67 C 6.58 3.58 6.45 3.53 6.31 3.51 L 6.21 3.5 Z"/>
  </symbol>
  <symbol id="help" viewBox="0 0 20 20">
    <path d="M 10 0 C 15.52 0 20 4.48 20 10 C 20 15.52 15.52 20 10 20 C 4.48 20 0 15.52 0 10 C 0 4.48 4.48 0 10 0 Z M 10 1.67 C 5.41 1.67 1.67 5.41 1.67 10 C 1.67 14.6 5.41 18.33 10 18.33 C 14.6 18.33 18.33 14.6 18.33 10 C 18.33 5.41 14.6 1.67 10 1.67 Z M 10 13.5 C 10.55 13.5 11 13.95 11 14.5 C 11 15.05 10.55 15.5 10 15.5 C 9.45 15.5 9 15.05 9 14.5 C 9 13.95 9.45 13.5 10 13.5 Z M 10 4.75 C 11.52 4.75 12.75 5.98 12.75 7.5 C 12.75 8.51 12.45 9.07 11.7 9.86 L 11.53 10.03 C 10.91 10.65 10.75 10.92 10.75 11.5 C 10.75 11.91 10.41 12.25 10 12.25 C 9.59 12.25 9.25 11.91 9.25 11.5 C 9.25 10.49 9.55 9.93 10.3 9.14 L 10.47 8.97 C 11.09 8.35 11.25 8.08 11.25 7.5 C 11.25 6.81 10.69 6.25 10 6.25 C 9.35 6.25 8.82 6.74 8.76 7.37 L 8.75 7.5 C 8.75 7.91 8.41 8.25 8 8.25 C 7.59 8.25 7.25 7.91 7.25 7.5 C 7.25 5.98 8.48 4.75 10 4.75 Z"/>
  </symbol>
  <symbol id="history-redo" viewBox="0 0 20 20">
    <path d="M 17.26 0 C 16.88 0 16.56 0.28 16.51 0.65 L 16.51 0.75 L 16.51 6.44 L 11.93 1.88 C 9.49 -0.56 5.57 -0.62 3.06 1.7 L 2.87 1.88 C 0.37 4.38 0.37 8.44 2.87 10.94 L 11.71 19.78 C 12.01 20.07 12.48 20.07 12.78 19.78 C 13.07 19.49 13.07 19.01 12.77 18.72 L 3.93 9.88 C 2.01 7.96 2.01 4.86 3.93 2.94 C 5.79 1.08 8.77 1.02 10.7 2.77 L 10.87 2.94 L 15.45 7.5 L 9.76 7.5 C 9.38 7.5 9.06 7.78 9.01 8.15 L 9.01 8.25 C 9.01 8.63 9.29 8.94 9.66 8.99 L 9.76 9 L 17.26 9 C 17.64 9 17.95 8.72 18 8.35 L 18.01 8.25 L 18.01 0.75 C 18.01 0.33 17.67 0 17.26 0 Z"/>
  </symbol>
  <symbol id="history-undo" viewBox="0 0 20 20">
    <path d="M 2.74 0 C 3.12 0 3.44 0.28 3.49 0.65 L 3.49 0.75 L 3.49 6.44 L 8.07 1.88 C 10.51 -0.56 14.43 -0.62 16.94 1.7 L 17.13 1.88 C 19.63 4.38 19.63 8.44 17.13 10.94 L 8.29 19.78 C 7.99 20.07 7.52 20.07 7.22 19.78 C 6.93 19.49 6.93 19.01 7.23 18.72 L 16.07 9.88 C 17.99 7.96 17.99 4.86 16.07 2.94 C 14.21 1.08 11.23 1.02 9.3 2.77 L 9.13 2.94 L 4.55 7.5 L 10.24 7.5 C 10.62 7.5 10.94 7.78 10.99 8.15 L 10.99 8.25 C 10.99 8.63 10.71 8.94 10.34 8.99 L 10.24 9 L 2.74 9 C 2.36 9 2.05 8.72 2 8.35 L 1.99 8.25 L 1.99 0.75 C 1.99 0.33 2.33 0 2.74 0 Z"/>
  </symbol>
  <symbol id="home" viewBox="0 0 20 20">
    <path d="M 8.55 0.53 C 9.39 -0.17 10.61 -0.17 11.45 0.53 L 18.2 6.22 C 18.71 6.65 19 7.28 19 7.94 L 19 17.75 C 19 18.71 18.22 19.5 17.25 19.5 L 13.75 19.5 C 12.78 19.5 12 18.71 12 17.75 L 12 12.25 C 12 12.11 11.89 12 11.75 12 L 8.25 12 C 8.11 12 8 12.11 8 12.25 L 8 17.75 C 8 18.71 7.22 19.5 6.25 19.5 L 2.75 19.5 C 1.78 19.5 1 18.71 1 17.75 L 1 7.94 C 1 7.28 1.29 6.65 1.8 6.22 L 8.55 0.53 Z M 10.48 1.68 C 10.2 1.44 9.8 1.44 9.52 1.68 L 2.77 7.37 C 2.6 7.51 2.5 7.72 2.5 7.94 L 2.5 17.75 C 2.5 17.89 2.61 18 2.75 18 L 6.25 18 C 6.39 18 6.5 17.89 6.5 17.75 L 6.5 12.25 C 6.5 11.28 7.28 10.5 8.25 10.5 L 11.75 10.5 C 12.72 10.5 13.5 11.28 13.5 12.25 L 13.5 17.75 C 13.5 17.89 13.61 18 13.75 18 L 17.25 18 C 17.39 18 17.5 17.89 17.5 17.75 L 17.5 7.94 C 17.5 7.72 17.4 7.51 17.23 7.37 L 10.48 1.68 Z"/>
  </symbol>
  <symbol id="image" viewBox="0 0 20 20">
    <path d="M 15.75 1 C 17.54 1 19 2.46 19 4.25 L 19 15.75 C 19 17.54 17.54 19 15.75 19 L 4.25 19 C 2.46 19 1 17.54 1 15.75 L 1 4.25 C 1 2.46 2.46 1 4.25 1 L 15.75 1 Z M 16.33 17.4 L 10.52 11.71 C 10.26 11.46 9.85 11.43 9.56 11.64 L 9.48 11.71 L 3.67 17.4 C 3.85 17.47 4.05 17.5 4.25 17.5 L 15.75 17.5 C 15.95 17.5 16.15 17.47 16.33 17.4 L 10.52 11.71 L 16.33 17.4 Z M 15.75 2.5 L 4.25 2.5 C 3.28 2.5 2.5 3.28 2.5 4.25 L 2.5 15.75 C 2.5 15.96 2.54 16.16 2.6 16.34 L 8.43 10.64 C 9.26 9.83 10.57 9.79 11.45 10.53 L 11.57 10.64 L 17.4 16.34 C 17.46 16.16 17.5 15.96 17.5 15.75 L 17.5 4.25 C 17.5 3.28 16.72 2.5 15.75 2.5 Z M 13.25 4.5 C 14.5 4.5 15.5 5.51 15.5 6.75 C 15.5 8 14.5 9 13.25 9 C 12.01 9 11 8 11 6.75 C 11 5.51 12.01 4.5 13.25 4.5 Z M 13.25 6 C 12.84 6 12.5 6.34 12.5 6.75 C 12.5 7.17 12.84 7.5 13.25 7.5 C 13.67 7.5 14 7.17 14 6.75 C 14 6.34 13.67 6 13.25 6 Z"/>
  </symbol>
  <symbol id="info" viewBox="0 0 20 20">
    <path d="M 10 0 C 15.52 0 20 4.48 20 10 C 20 15.52 15.52 20 10 20 C 4.48 20 0 15.52 0 10 C 0 4.48 4.48 0 10 0 Z M 10 1.5 C 5.3 1.5 1.5 5.3 1.5 10 C 1.5 14.7 5.3 18.5 10 18.5 C 14.7 18.5 18.5 14.7 18.5 10 C 18.5 5.3 14.7 1.5 10 1.5 Z M 10 8.5 C 10.38 8.5 10.69 8.78 10.74 9.15 L 10.75 9.25 L 10.75 14.75 C 10.75 15.16 10.42 15.5 10 15.5 C 9.62 15.5 9.31 15.22 9.26 14.85 L 9.25 14.75 L 9.25 9.25 C 9.25 8.84 9.58 8.5 10 8.5 Z M 10 5 C 10.55 5 11 5.45 11 6 C 11 6.55 10.55 7 10 7 C 9.45 7 9 6.55 9 6 C 9 5.45 9.45 5 10 5 Z"/>
  </symbol>
  <symbol id="link" viewBox="0 0 20 20">
    <path d="M 7.25 5 C 7.66 5 8 5.34 8 5.75 C 8 6.13 7.72 6.44 7.36 6.49 L 7.25 6.5 L 5 6.5 C 3.07 6.5 1.5 8.07 1.5 10 C 1.5 11.86 2.96 13.39 4.79 13.49 L 5 13.5 L 7.25 13.5 C 7.66 13.5 8 13.84 8 14.25 C 8 14.63 7.72 14.94 7.36 14.99 L 7.25 15 L 5 15 C 2.24 15 0 12.76 0 10 C 0 7.32 2.1 5.14 4.75 5.01 L 5 5 L 7.25 5 Z M 15 5 C 17.76 5 20 7.24 20 10 C 20 12.68 17.9 14.86 15.25 14.99 L 15 15 L 12.75 15 C 12.34 15 12 14.66 12 14.25 C 12 13.87 12.28 13.56 12.64 13.51 L 12.75 13.5 L 15 13.5 C 16.93 13.5 18.5 11.93 18.5 10 C 18.5 8.14 17.04 6.61 15.21 6.51 L 15 6.5 L 12.75 6.5 C 12.34 6.5 12 6.16 12 5.75 C 12 5.37 12.28 5.06 12.64 5.01 L 12.75 5 L 15 5 Z M 5 9.25 L 15 9.25 C 15.41 9.25 15.75 9.59 15.75 10 C 15.75 10.38 15.47 10.69 15.1 10.74 L 15 10.75 L 5 10.75 C 4.59 10.75 4.25 10.41 4.25 10 C 4.25 9.62 4.53 9.31 4.9 9.26 L 5 9.25 L 15 9.25 L 5 9.25 Z"/>
  </symbol>
  <symbol id="lock" viewBox="0 0 20 20">
    <path d="M 10 0 C 12.21 0 14 1.79 14 4 L 14 6 L 15.75 6 C 16.99 6 18 7.01 18 8.25 L 18 17.75 C 18 18.99 16.99 20 15.75 20 L 4.25 20 C 3.01 20 2 18.99 2 17.75 L 2 8.25 C 2 7.01 3.01 6 4.25 6 L 6 6 L 6 4 C 6 1.79 7.79 0 10 0 Z M 15.75 7.5 L 4.25 7.5 C 3.84 7.5 3.5 7.84 3.5 8.25 L 3.5 17.75 C 3.5 18.16 3.84 18.5 4.25 18.5 L 15.75 18.5 C 16.16 18.5 16.5 18.16 16.5 17.75 L 16.5 8.25 C 16.5 7.84 16.16 7.5 15.75 7.5 Z M 10 11.5 C 10.83 11.5 11.5 12.17 11.5 13 C 11.5 13.83 10.83 14.5 10 14.5 C 9.17 14.5 8.5 13.83 8.5 13 C 8.5 12.17 9.17 11.5 10 11.5 Z M 10 1.5 C 8.62 1.5 7.5 2.62 7.5 4 L 7.5 6 L 12.5 6 L 12.5 4 C 12.5 2.62 11.38 1.5 10 1.5 Z"/>
  </symbol>
  <symbol id="logout" viewBox="0 0 20 20">
    <path d="M 2.25 13.5 C 1.84 13.5 1.5 13.83 1.5 14.25 L 1.5 14.83 C 1.5 15.36 1.69 15.88 2.04 16.29 C 3.29 17.75 5.26 18.5 8 18.5 C 8.59 18.5 9.15 18.47 9.68 18.39 C 9.92 18.89 10.23 19.35 10.59 19.76 C 9.79 19.92 8.93 20 8 20 C 4.85 20 2.46 19.1 0.9 17.26 C 0.32 16.58 0 15.72 0 14.83 L 0 14.25 C 0 13.01 1.01 12 2.25 12 L 10.02 12 C 9.72 12.46 9.48 12.97 9.31 13.5 Z M 8 0 C 10.76 0 13 2.24 13 5 C 13 7.77 10.76 10 8 10 C 5.24 10 3 7.77 3 5 C 3 2.24 5.24 0 8 0 Z M 8 1.5 C 6.06 1.5 4.5 3.07 4.5 5 C 4.5 6.94 6.06 8.5 8 8.5 C 9.93 8.5 11.5 6.94 11.5 5 C 11.5 3.07 9.93 1.5 8 1.5 Z M 21 15.5 C 21 18.54 18.53 21 15.5 21 C 12.46 21 10 18.54 10 15.5 C 10 12.46 12.46 10 15.5 10 C 18.53 10 21 12.46 21 15.5 Z M 16.35 12.65 C 16.15 12.45 15.84 12.45 15.64 12.65 C 15.45 12.84 15.45 13.16 15.64 13.35 L 17.29 15 L 13 15 C 12.72 15 12.5 15.22 12.5 15.5 C 12.5 15.78 12.72 16 13 16 L 17.29 16 L 15.64 17.65 C 15.45 17.84 15.45 18.16 15.64 18.35 C 15.84 18.55 16.15 18.55 16.35 18.35 L 18.85 15.85 C 18.9 15.8 18.94 15.74 18.97 15.67 C 18.98 15.62 19 15.57 19 15.51 L 19 15.5 C 19 15.42 18.98 15.35 18.95 15.28 C 18.93 15.25 18.91 15.22 18.89 15.19 C 18.88 15.17 18.86 15.16 18.85 15.14 Z"/>
  </symbol>
  <symbol id="mail" viewBox="0 0 20 20">
    <path d="M 3.25 2 L 16.75 2 C 18.48 2 19.9 3.36 19.99 5.07 L 20 5.25 L 20 14.75 C 20 16.48 18.64 17.9 16.93 17.99 L 16.75 18 L 3.25 18 C 1.52 18 0.1 16.64 0.01 14.93 L 0 14.75 L 0 5.25 C 0 3.52 1.36 2.1 3.07 2.01 L 3.25 2 L 16.75 2 L 3.25 2 Z M 18.5 7.37 L 10.35 11.66 C 10.16 11.76 9.94 11.78 9.75 11.71 L 9.65 11.66 L 1.5 7.37 L 1.5 14.75 C 1.5 15.67 2.21 16.42 3.11 16.49 L 3.25 16.5 L 16.75 16.5 C 17.67 16.5 18.42 15.79 18.49 14.89 L 18.5 14.75 L 18.5 7.37 Z M 16.75 3.5 L 3.25 3.5 C 2.33 3.5 1.58 4.21 1.51 5.11 L 1.5 5.25 L 1.5 5.68 L 10 10.15 L 18.5 5.68 L 18.5 5.25 C 18.5 4.33 17.79 3.58 16.89 3.51 L 16.75 3.5 Z"/>
  </symbol>
  <symbol id="menu" viewBox="0 0 20 20">
    <path d="M 0.75 16 L 19.25 16 C 19.67 16 20 16.33 20 16.75 C 20 17.13 19.72 17.44 19.35 17.49 L 19.25 17.5 L 0.75 17.5 C 0.34 17.5 0 17.16 0 16.75 C 0 16.37 0.28 16.05 0.65 16 L 0.75 16 L 19.25 16 L 0.75 16 Z M 0.75 9.5 L 19.25 9.5 C 19.67 9.5 20 9.84 20 10.25 C 20 10.63 19.72 10.94 19.35 10.99 L 19.25 11 L 0.75 11 C 0.34 11 0 10.66 0 10.25 C 0 9.87 0.28 9.56 0.65 9.51 L 0.75 9.5 L 19.25 9.5 L 0.75 9.5 Z M 0.75 3 L 19.25 3 C 19.66 3 20 3.34 20 3.75 C 20 4.13 19.72 4.44 19.35 4.49 L 19.25 4.5 L 0.75 4.5 C 0.34 4.5 0 4.16 0 3.75 C 0 3.37 0.28 3.06 0.65 3.01 L 0.75 3 L 19.25 3 L 0.75 3 Z"/>
  </symbol>
  <symbol id="note" viewBox="0 0 20 20">
    <path d="M 15.75 1 C 17.54 1 19 2.46 19 4.25 L 19 11.13 C 19 11.73 18.76 12.3 18.34 12.72 L 12.72 18.34 C 12.3 18.76 11.73 19 11.13 19 L 4.25 19 C 2.46 19 1 17.54 1 15.75 L 1 4.25 C 1 2.46 2.46 1 4.25 1 L 15.75 1 Z M 15.75 2.5 L 4.25 2.5 C 3.28 2.5 2.5 3.28 2.5 4.25 L 2.5 15.75 C 2.5 16.72 3.28 17.5 4.25 17.5 L 11 17.5 L 11 14.25 C 11 12.52 12.36 11.1 14.07 11.01 L 14.25 11 L 17.5 11 L 17.5 4.25 C 17.5 3.28 16.72 2.5 15.75 2.5 Z M 16.44 12.5 L 14.25 12.5 C 13.33 12.5 12.58 13.21 12.51 14.11 L 12.5 14.25 L 12.5 16.44 L 16.44 12.5 Z"/>
  </symbol>
  <symbol id="open" viewBox="0 0 20 20">
    <path d="M 5.25 2.5 L 8.75 2.5 C 9.16 2.5 9.5 2.84 9.5 3.25 C 9.5 3.63 9.22 3.94 8.85 3.99 L 8.75 4 L 5.25 4 C 4.07 4 3.1 4.91 3.01 6.06 L 3 6.22 L 3 14.75 C 3 15.94 3.93 16.92 5.1 16.99 L 5.25 17 L 13.75 16.99 C 14.94 16.99 15.91 16.06 15.99 14.89 L 16 14.74 L 16 11.23 C 16 10.82 16.33 10.48 16.75 10.48 C 17.13 10.48 17.44 10.76 17.49 11.13 L 17.5 11.23 L 17.5 14.74 C 17.5 16.74 15.93 18.38 13.95 18.48 L 13.75 18.49 L 5.26 18.5 L 5.05 18.49 C 3.14 18.39 1.61 16.86 1.51 14.95 L 1.5 14.75 L 1.5 6.25 L 1.5 6.05 C 1.61 4.14 3.14 2.6 5.05 2.5 L 5.25 2.5 L 8.75 2.5 L 5.25 2.5 Z M 11.75 1 L 18.3 1 L 18.4 1.01 L 18.5 1.04 L 18.56 1.07 C 18.61 1.09 18.66 1.12 18.71 1.16 L 18.78 1.22 L 18.86 1.32 L 18.92 1.41 L 18.96 1.5 L 18.98 1.56 L 18.99 1.63 L 19 1.72 L 19 8.25 C 19 8.67 18.66 9 18.25 9 C 17.87 9 17.56 8.72 17.51 8.36 L 17.5 8.25 L 17.5 3.56 L 10.28 10.78 C 10.01 11.05 9.6 11.07 9.3 10.86 L 9.22 10.78 C 8.95 10.52 8.93 10.1 9.15 9.81 L 9.22 9.72 L 16.44 2.5 L 11.75 2.5 C 11.37 2.5 11.05 2.22 11 1.85 L 11 1.75 C 11 1.37 11.28 1.06 11.65 1.01 L 11.75 1 Z"/>
  </symbol>
  <symbol id="paste" viewBox="0 0 20 20">
    <path d="M 10.75 0 C 11.91 0 12.86 0.87 12.99 2 L 14.75 2 C 15.94 2 16.92 2.92 16.99 4.09 L 17 4.25 C 17 4.63 16.72 4.94 16.35 4.99 L 16.25 5 C 15.87 5 15.56 4.71 15.51 4.35 L 15.5 4.25 C 15.5 3.87 15.22 3.55 14.85 3.5 L 14.75 3.5 L 12.62 3.5 C 12.21 4.1 11.53 4.49 10.75 4.49 L 7.25 4.49 C 6.47 4.49 5.79 4.1 5.38 3.5 L 3.25 3.5 C 2.87 3.5 2.56 3.78 2.51 4.15 L 2.5 4.25 L 2.5 17.75 C 2.5 18.13 2.78 18.45 3.15 18.5 L 3.25 18.5 L 6.25 18.5 C 6.63 18.5 6.94 18.78 6.99 19.15 L 7 19.25 C 7 19.67 6.66 20 6.25 20 L 3.25 20 C 2.06 20 1.08 19.08 1.01 17.91 L 1 17.75 L 1 4.25 C 1 3.06 1.93 2.08 3.1 2 L 3.25 2 L 5.01 2 C 5.14 0.87 6.09 0 7.25 0 L 10.75 0 Z M 16.75 6 C 17.94 6 18.92 6.92 18.99 8.09 L 19 8.25 L 19 17.75 C 19 18.94 18.07 19.91 16.9 19.99 L 16.75 20 L 10.25 20 C 9.06 20 8.08 19.07 8.01 17.9 L 8 17.75 L 8 8.25 C 8 7.06 8.93 6.08 10.1 6 L 10.25 6 L 16.75 6 Z M 16.75 7.5 L 10.25 7.5 C 9.87 7.5 9.56 7.78 9.51 8.15 L 9.5 8.25 L 9.5 17.75 C 9.5 18.13 9.78 18.44 10.15 18.49 L 10.25 18.5 L 16.75 18.5 C 17.13 18.5 17.44 18.22 17.49 17.85 L 17.5 17.75 L 17.5 8.25 C 17.5 7.87 17.22 7.55 16.85 7.5 L 16.75 7.5 Z M 10.75 1.5 L 7.25 1.5 C 6.83 1.5 6.5 1.83 6.5 2.24 C 6.5 2.66 6.83 2.99 7.25 2.99 L 10.75 2.99 C 11.17 2.99 11.5 2.66 11.5 2.24 C 11.5 1.83 11.17 1.5 10.75 1.5 Z"/>
  </symbol>
  <symbol id="person" viewBox="0 0 20 20">
    <path d="M 15.75 12 C 16.99 12 18 13 18 14.25 L 18 14.82 C 18 15.72 17.68 16.58 17.1 17.26 C 15.53 19.09 13.14 20 10 20 C 6.85 20 4.46 19.09 2.9 17.26 C 2.32 16.58 2 15.72 2 14.82 L 2 14.25 C 2 13 3.01 12 4.25 12 L 15.75 12 Z M 15.75 13.5 L 4.25 13.5 C 3.84 13.5 3.5 13.83 3.5 14.25 L 3.5 14.82 C 3.5 15.36 3.69 15.88 4.04 16.28 C 5.29 17.75 7.26 18.5 10 18.5 C 12.73 18.5 14.7 17.75 15.96 16.28 C 16.31 15.88 16.5 15.36 16.5 14.82 L 16.5 14.25 C 16.5 13.83 16.16 13.5 15.75 13.5 Z M 10 0 C 12.76 0 15 2.24 15 5 C 15 7.76 12.76 10 10 10 C 7.24 10 5 7.76 5 5 C 5 2.24 7.24 0 10 0 Z M 10 1.5 C 8.06 1.5 6.5 3.07 6.5 5 C 6.5 6.93 8.06 8.5 10 8.5 C 11.93 8.5 13.5 6.93 13.5 5 C 13.5 3.07 11.93 1.5 10 1.5 Z"/>
  </symbol>
  <symbol id="pin" viewBox="0 0 20 20">
    <path d="M 14.24 0.93 L 19.07 5.76 C 20.4 7.08 20.03 9.32 18.35 10.16 L 13.48 12.6 C 13.31 12.68 13.17 12.84 13.11 13.02 L 11.67 17.19 C 11.37 18.06 10.26 18.32 9.6 17.67 L 6.5 14.56 L 2.06 19 L 1 19 L 1 17.94 L 5.44 13.5 L 2.33 10.4 C 1.68 9.74 1.94 8.63 2.81 8.33 L 6.98 6.89 C 7.16 6.83 7.32 6.69 7.4 6.52 L 9.84 1.65 C 10.68 -0.03 12.92 -0.4 14.24 0.93 Z M 18.01 6.82 L 13.18 1.99 C 12.58 1.39 11.56 1.55 11.18 2.32 L 8.74 7.19 C 8.48 7.71 8.02 8.12 7.47 8.31 L 3.68 9.62 L 10.38 16.32 L 11.69 12.53 C 11.88 11.98 12.29 11.52 12.81 11.26 L 17.68 8.82 C 18.45 8.44 18.61 7.42 18.01 6.82 Z"/>
  </symbol>
  <symbol id="question" viewBox="0 0 20 20">
    <path d="M 9 18 C 9 17.45 9.45 17 10 17 C 10.55 17 11 17.45 11 18 C 11 18.55 10.55 19 10 19 C 9.45 19 9 18.55 9 18 Z M 15 7 C 15 8.15 14.69 9.02 14.2 9.72 C 13.73 10.4 13.11 10.88 12.58 11.28 L 12.54 11.32 C 11.46 12.14 10.75 12.68 10.75 14 L 10.75 14.25 C 10.75 14.66 10.41 15 10 15 C 9.59 15 9.25 14.66 9.25 14.25 L 9.25 14 C 9.25 11.93 10.52 10.97 11.53 10.2 C 11.58 10.16 11.62 10.13 11.67 10.09 C 12.2 9.68 12.65 9.32 12.97 8.86 C 13.28 8.42 13.5 7.85 13.5 7 C 13.5 5.06 11.94 3.5 10 3.5 C 8.06 3.5 6.5 5.06 6.5 7 C 6.5 7.41 6.16 7.75 5.75 7.75 C 5.34 7.75 5 7.41 5 7 C 5 4.24 7.24 2 10 2 C 12.76 2 15 4.24 15 7 Z"/>
  </symbol>
  <symbol id="refresh" viewBox="0 0 20 20">
    <path d="M 10 2.5 C 5.86 2.5 2.5 5.86 2.5 10 C 2.5 14.14 5.86 17.5 10 17.5 C 14.14 17.5 17.5 14.14 17.5 10 C 17.5 9.62 17.47 9.25 17.42 8.89 C 17.35 8.44 17.68 8 18.14 8 C 18.51 8 18.84 8.26 18.9 8.62 C 18.96 9.07 19 9.53 19 10 C 19 14.97 14.97 19 10 19 C 5.03 19 1 14.97 1 10 C 1 5.03 5.03 1 10 1 C 12.31 1 14.41 1.87 16 3.29 L 16 2.25 C 16 1.84 16.34 1.5 16.75 1.5 C 17.16 1.5 17.5 1.84 17.5 2.25 L 17.5 5.25 C 17.5 5.66 17.16 6 16.75 6 L 13.75 6 C 13.34 6 13 5.66 13 5.25 C 13 4.84 13.34 4.5 13.75 4.5 L 15.1 4.5 C 13.76 3.26 11.97 2.5 10 2.5 Z"/>
  </symbol>
  <symbol id="remove" viewBox="0 0 20 20">
    <path d="M 1.9 9.22 L 18 9.22 C 18.58 9.19 18.98 9.79 18.72 10.31 C 18.61 10.55 18.37 10.71 18.1 10.72 L 2 10.72 C 1.42 10.76 1.02 10.16 1.28 9.64 C 1.39 9.4 1.63 9.24 1.9 9.22 Z"/>
  </symbol>
  <symbol id="search" viewBox="0 0 20 20">
    <path d="M 8.25 1 C 12.25 1 15.5 4.25 15.5 8.25 C 15.5 9.98 14.89 11.57 13.88 12.82 L 18.78 17.72 C 19.07 18.01 19.07 18.49 18.78 18.78 C 18.51 19.05 18.1 19.07 17.8 18.85 L 17.72 18.78 L 12.82 13.88 C 11.57 14.89 9.98 15.5 8.25 15.5 C 4.25 15.5 1 12.25 1 8.25 C 1 4.25 4.25 1 8.25 1 Z M 8.25 2.5 C 5.07 2.5 2.5 5.07 2.5 8.25 C 2.5 11.43 5.07 14 8.25 14 C 11.43 14 14 11.43 14 8.25 C 14 5.07 11.43 2.5 8.25 2.5 Z"/>
  </symbol>
  <symbol id="send" viewBox="0 0 20 20">
    <path d="M 3.7 10 L 0.3 1.27 C 0.07 0.66 0.66 0.08 1.24 0.29 L 1.34 0.33 L 19.34 9.33 C 19.85 9.59 19.89 10.3 19.43 10.61 L 19.34 10.67 L 1.34 19.67 C 0.75 19.96 0.12 19.43 0.27 18.82 L 0.3 18.73 L 3.7 10 L 0.3 1.27 L 3.7 10 Z M 2.4 2.54 L 5.01 9.25 L 11.64 9.25 C 12.02 9.25 12.33 9.53 12.38 9.9 L 12.39 10 C 12.39 10.38 12.11 10.69 11.74 10.74 L 11.64 10.75 L 5.01 10.75 L 2.4 17.46 L 17.32 10 L 2.4 2.54 Z"/>
  </symbol>
  <symbol id="settings" viewBox="0 0 20 20">
    <path d="M 10.01 0.25 C 10.74 0.26 11.48 0.34 12.19 0.5 C 12.5 0.57 12.74 0.83 12.77 1.15 L 12.94 2.68 C 13.02 3.38 13.61 3.91 14.32 3.91 C 14.51 3.91 14.7 3.87 14.87 3.79 L 16.27 3.18 C 16.56 3.05 16.9 3.12 17.12 3.35 C 18.13 4.43 18.89 5.73 19.33 7.15 C 19.42 7.45 19.31 7.78 19.05 7.97 L 17.81 8.89 C 17.46 9.15 17.25 9.56 17.25 10 C 17.25 10.44 17.46 10.85 17.81 11.11 L 19.06 12.03 C 19.31 12.22 19.42 12.55 19.33 12.85 C 18.89 14.27 18.14 15.56 17.12 16.65 C 16.91 16.88 16.57 16.95 16.28 16.82 L 14.87 16.2 C 14.47 16.03 14.01 16.05 13.63 16.27 C 13.24 16.49 12.99 16.88 12.94 17.32 L 12.77 18.84 C 12.74 19.16 12.51 19.42 12.2 19.49 C 10.75 19.84 9.24 19.84 7.8 19.49 C 7.49 19.42 7.26 19.16 7.22 18.84 L 7.06 17.32 C 7.01 16.88 6.75 16.5 6.37 16.28 C 5.99 16.06 5.53 16.03 5.13 16.21 L 3.72 16.83 C 3.43 16.95 3.09 16.88 2.88 16.65 C 1.86 15.57 1.11 14.27 0.67 12.85 C 0.58 12.55 0.69 12.22 0.94 12.03 L 2.19 11.11 C 2.54 10.85 2.75 10.44 2.75 10 C 2.75 9.56 2.54 9.15 2.19 8.89 L 0.94 7.97 C 0.69 7.78 0.58 7.45 0.67 7.15 C 1.11 5.73 1.86 4.44 2.88 3.35 C 3.09 3.12 3.43 3.05 3.73 3.18 L 5.13 3.8 C 5.53 3.97 5.99 3.95 6.37 3.72 C 6.75 3.5 7.01 3.11 7.06 2.68 L 7.23 1.15 C 7.26 0.83 7.5 0.57 7.81 0.5 C 8.53 0.34 9.26 0.26 10.01 0.25 Z M 10.01 1.75 C 9.56 1.76 9.1 1.79 8.66 1.87 L 8.55 2.84 C 8.45 3.75 7.92 4.56 7.13 5.02 C 6.33 5.48 5.37 5.54 4.52 5.17 L 3.62 4.77 C 3.05 5.47 2.6 6.25 2.28 7.09 L 3.07 7.68 C 3.81 8.22 4.25 9.08 4.25 10 C 4.25 10.92 3.81 11.78 3.08 12.32 L 2.28 12.91 C 2.6 13.75 3.05 14.54 3.62 15.23 L 4.53 14.84 C 5.37 14.47 6.33 14.52 7.12 14.98 C 7.91 15.44 8.44 16.24 8.55 17.15 L 8.66 18.14 C 9.55 18.29 10.45 18.29 11.34 18.14 L 11.45 17.15 C 11.55 16.24 12.08 15.43 12.87 14.98 C 13.67 14.52 14.63 14.46 15.47 14.83 L 16.38 15.23 C 16.95 14.53 17.4 13.75 17.72 12.91 L 16.93 12.32 C 16.19 11.78 15.75 10.92 15.75 10 C 15.75 9.08 16.19 8.22 16.92 7.68 L 17.72 7.09 C 17.4 6.25 16.95 5.47 16.37 4.77 L 15.48 5.17 C 15.11 5.33 14.72 5.41 14.32 5.41 C 12.85 5.41 11.61 4.3 11.45 2.84 L 11.34 1.87 C 10.9 1.79 10.45 1.76 10.01 1.75 Z M 10 6.25 C 12.07 6.25 13.75 7.93 13.75 10 C 13.75 12.07 12.07 13.75 10 13.75 C 7.93 13.75 6.25 12.07 6.25 10 C 6.25 7.93 7.93 6.25 10 6.25 Z M 10 7.75 C 8.76 7.75 7.75 8.76 7.75 10 C 7.75 11.24 8.76 12.25 10 12.25 C 11.24 12.25 12.25 11.24 12.25 10 C 12.25 8.76 11.24 7.75 10 7.75 Z"/>
  </symbol>
  <symbol id="sort" viewBox="0 0 20 20">
    <path d="M 1.71 4.25 L 18.2 4.25 C 18.78 4.22 19.18 4.82 18.92 5.34 C 18.81 5.58 18.57 5.74 18.3 5.75 L 1.81 5.75 C 1.23 5.79 0.83 5.19 1.09 4.67 C 1.2 4.43 1.44 4.27 1.71 4.25 Z M 1.71 9.25 L 12.21 9.25 C 12.79 9.22 13.19 9.82 12.93 10.34 C 12.82 10.58 12.58 10.74 12.31 10.75 L 1.81 10.75 C 1.23 10.79 0.83 10.19 1.09 9.67 C 1.2 9.43 1.44 9.27 1.71 9.25 Z M 1.71 14.25 L 6.21 14.25 C 6.79 14.22 7.19 14.82 6.93 15.34 C 6.82 15.58 6.58 15.74 6.31 15.75 L 1.81 15.75 C 1.23 15.79 0.83 15.19 1.09 14.67 C 1.2 14.43 1.44 14.27 1.71 14.25 Z"/>
  </symbol>
  <symbol id="square" viewBox="0 0 20 20">
    <path d="M 1 4.25 C 1 2.46 2.46 1 4.25 1 L 15.75 1 C 17.54 1 19 2.46 19 4.25 L 19 15.75 C 19 17.54 17.54 19 15.75 19 L 4.25 19 C 2.46 19 1 17.54 1 15.75 L 1 4.25 Z M 4.25 2.5 C 3.28 2.5 2.5 3.28 2.5 4.25 L 2.5 15.75 C 2.5 16.72 3.28 17.5 4.25 17.5 L 15.75 17.5 C 16.72 17.5 17.5 16.72 17.5 15.75 L 17.5 4.25 C 17.5 3.28 16.72 2.5 15.75 2.5 L 4.25 2.5 Z" style="fill: inherit;"/>
  </symbol>
  <symbol id="toggle-off" viewBox="0 0 20 20">
    <path d="M 5.25 12.5 C 3.87 12.5 2.75 11.38 2.75 10 C 2.75 8.62 3.87 7.5 5.25 7.5 C 6.63 7.5 7.75 8.62 7.75 10 C 7.75 11.38 6.63 12.5 5.25 12.5 Z M 15 15 L 5 15 C 2.24 15 0 12.76 0 10 C 0 7.24 2.24 5 5 5 L 15 5 C 17.76 5 20 7.24 20 10 C 20 12.76 17.76 15 15 15 Z M 5 6.5 C 3.07 6.5 1.5 8.07 1.5 10 C 1.5 11.93 3.07 13.5 5 13.5 L 15 13.5 C 16.93 13.5 18.5 11.93 18.5 10 C 18.5 8.07 16.93 6.5 15 6.5 Z"/>
  </symbol>
  <symbol id="toggle-on" viewBox="0 0 20 20">
    <path d="M 14.75 12.5 C 16.13 12.5 17.25 11.38 17.25 10 C 17.25 8.62 16.13 7.5 14.75 7.5 C 13.37 7.5 12.25 8.62 12.25 10 C 12.25 11.38 13.37 12.5 14.75 12.5 Z M 5 15 L 15 15 C 17.76 15 20 12.76 20 10 C 20 7.24 17.76 5 15 5 L 5 5 C 2.24 5 0 7.24 0 10 C 0 12.76 2.24 15 5 15 Z M 15 6.5 C 16.93 6.5 18.5 8.07 18.5 10 C 18.5 11.93 16.93 13.5 15 13.5 L 5 13.5 C 3.07 13.5 1.5 11.93 1.5 10 C 1.5 8.07 3.07 6.5 5 6.5 Z"/>
  </symbol>
  <symbol id="wrench" viewBox="0 0 20 20">
    <path d="M 8.5 5.75 C 8.5 2.58 11.07 0 14.25 0 C 15.2 0 16.09 0.23 16.88 0.64 C 17.09 0.75 17.24 0.95 17.28 1.19 C 17.31 1.43 17.24 1.67 17.07 1.84 L 14.3 4.6 L 15.36 5.66 L 18.14 2.88 C 18.31 2.72 18.55 2.64 18.78 2.67 C 19.02 2.71 19.22 2.85 19.33 3.06 C 19.76 3.87 20 4.78 20 5.75 C 20 8.93 17.43 11.5 14.25 11.5 C 13.79 11.5 13.34 11.45 12.91 11.35 L 5.54 18.97 C 4.42 20.13 2.59 20.21 1.37 19.16 C 0.03 18.02 -0.06 15.99 1.16 14.73 L 8.63 6.99 C 8.55 6.59 8.5 6.18 8.5 5.75 Z M 14.25 1.5 C 11.9 1.5 10 3.41 10 5.75 C 10 6.19 10.06 6.6 10.18 6.99 C 10.26 7.25 10.19 7.54 10 7.73 L 2.24 15.77 C 1.62 16.41 1.66 17.44 2.34 18.02 C 2.97 18.56 3.9 18.51 4.47 17.92 L 12.14 9.98 C 12.34 9.78 12.64 9.7 12.92 9.79 C 13.34 9.93 13.78 10 14.25 10 C 16.6 10 18.5 8.1 18.5 5.75 C 18.5 5.41 18.46 5.08 18.38 4.76 L 15.89 7.25 C 15.6 7.55 15.12 7.55 14.83 7.25 L 12.71 5.13 C 12.42 4.84 12.42 4.36 12.71 4.07 L 15.18 1.6 C 14.88 1.54 14.57 1.5 14.25 1.5 Z"/>
  </symbol>
  <symbol id="vehicle-airplane" viewBox="0 0 20 20">
    <path d="M 7.47 7.64 L 6.77 1.77 L 6.77 1.69 C 6.77 0.81 7.49 0.09 8.38 0.09 C 9.18 0.09 9.92 0.51 10.35 1.22 L 10.44 1.38 L 13.39 7.47 L 17.34 7.35 C 18.78 7.31 19.97 8.44 20.02 9.88 L 20.02 9.95 C 20.02 11.38 18.85 12.55 17.4 12.55 L 13.43 12.43 L 10.44 18.62 C 10.06 19.41 9.26 19.91 8.38 19.91 C 7.49 19.91 6.77 19.19 6.77 18.28 L 6.77 18.16 L 7.48 12.26 L 5.35 12.19 L 5.08 12.93 C 4.8 13.7 4.07 14.21 3.25 14.21 C 2.38 14.21 1.67 13.5 1.67 12.62 L 1.67 11.86 L 1.51 11.83 C 0.62 11.64 -0.02 10.86 -0.02 9.95 C -0.02 9.04 0.62 8.26 1.51 8.07 L 1.67 8.04 L 1.67 7.28 C 1.67 6.48 2.26 5.8 3.1 5.7 L 3.25 5.69 C 4 5.69 4.68 6.12 5.02 6.82 L 5.08 6.97 L 5.35 7.71 L 7.47 7.64 Z M 8.38 1.59 C 8.32 1.59 8.27 1.63 8.27 1.67 L 9.15 9.09 L 4.31 9.24 L 3.69 7.52 L 3.65 7.44 C 3.58 7.29 3.42 7.19 3.3 7.19 L 3.24 7.19 C 3.2 7.2 3.17 7.23 3.17 7.28 L 3.17 9.26 L 1.82 9.54 C 1.62 9.58 1.48 9.75 1.48 9.95 C 1.48 10.15 1.62 10.32 1.82 10.36 L 3.17 10.64 L 3.17 12.62 C 3.17 12.67 3.2 12.71 3.25 12.71 C 3.44 12.71 3.61 12.59 3.67 12.42 L 4.31 10.66 L 9.17 10.81 L 8.27 18.28 L 8.27 18.31 C 8.27 18.37 8.32 18.41 8.38 18.41 C 8.68 18.41 8.96 18.24 9.09 17.97 L 12.51 10.9 L 17.42 11.05 C 18.02 11.05 18.52 10.56 18.52 9.96 L 18.52 9.92 C 18.5 9.31 17.99 8.84 17.39 8.85 L 12.46 9 L 9.11 2.07 L 9.05 1.97 C 8.91 1.73 8.65 1.59 8.38 1.59 Z"/>
  </symbol>
  <symbol id="vehicle-bicycle" viewBox="0 0 20 20">
    <path d="M 10.5 2 C 10.09 2 9.75 2.34 9.75 2.75 C 9.75 3.16 10.09 3.5 10.5 3.5 L 11.93 3.5 L 12.88 7 L 6.25 7 L 6.25 4.75 C 6.25 4.34 5.91 4 5.5 4 L 5.5 4 L 2.5 4 C 2.09 4 1.75 4.34 1.75 4.75 C 1.75 5.16 2.09 5.5 2.5 5.5 L 4.75 5.5 L 4.75 7.69 L 4.45 9.5 C 2.12 9.53 0.25 11.42 0.25 13.75 C 0.25 16.1 2.15 18 4.5 18 C 6.85 18 8.75 16.1 8.75 13.75 C 8.75 13.69 8.75 13.63 8.75 13.56 L 13.4 8.91 L 13.68 9.91 C 12.24 10.59 11.25 12.06 11.25 13.75 C 11.25 16.1 13.15 18 15.5 18 C 17.85 18 19.75 16.1 19.75 13.75 C 19.75 11.4 17.85 9.5 15.5 9.5 C 15.37 9.5 15.25 9.51 15.12 9.52 L 13.22 2.55 C 13.13 2.23 12.84 2 12.5 2 L 10.5 2 Z M 14.08 11.39 L 14.78 13.95 C 14.89 14.35 15.3 14.58 15.7 14.47 C 16.1 14.36 16.33 13.95 16.22 13.55 L 15.53 11 C 17.03 11.01 18.25 12.24 18.25 13.75 C 18.25 15.27 17.02 16.5 15.5 16.5 C 13.98 16.5 12.75 15.27 12.75 13.75 C 12.75 12.75 13.28 11.88 14.08 11.39 Z M 8.31 11.87 C 7.83 10.89 6.97 10.12 5.93 9.75 L 6.14 8.5 L 11.69 8.5 L 8.31 11.87 Z M 5.67 11.26 C 6.39 11.6 6.93 12.23 7.15 13 L 5.39 13 L 5.67 11.26 Z M 4.2 11.02 L 3.76 13.63 C 3.72 13.84 3.79 14.07 3.93 14.23 C 4.07 14.4 4.28 14.5 4.5 14.5 L 7.15 14.5 C 6.82 15.65 5.76 16.5 4.5 16.5 C 2.98 16.5 1.75 15.27 1.75 13.75 C 1.75 12.33 2.82 11.17 4.2 11.02 Z"/>
  </symbol>
  <symbol id="vehicle-boat" viewBox="0 0 20 20">
    <path d="M 13.25 0 C 13.66 0 14 0.34 14 0.75 L 14 3 L 16.25 3 C 16.66 3 17 3.34 17 3.75 L 17 8.45 L 18.67 9.05 C 18.87 9.12 19.03 9.27 19.11 9.47 C 19.19 9.67 19.19 9.89 19.09 10.08 L 16.62 15.11 C 16.44 15.04 16.24 15 16.03 15 C 15.54 14.99 15.08 15.19 14.75 15.52 L 17.37 10.18 L 10.6 7.76 C 10.21 7.62 9.79 7.62 9.41 7.77 L 2.82 10.18 L 5.38 15.67 C 5.05 15.25 4.53 14.99 3.97 15 C 3.79 15 3.62 15.03 3.45 15.09 L 1.12 10.07 C 1.03 9.88 1.02 9.66 1.1 9.47 C 1.18 9.27 1.34 9.12 1.54 9.05 L 3 8.51 L 3 3.75 C 3 3.34 3.34 3 3.75 3 L 6 3 L 6 0.75 C 6 0.34 6.34 0 6.75 0 Z M 12.5 1.5 L 7.5 1.5 L 7.5 3 L 12.5 3 Z M 4.5 4.5 L 4.5 7.97 L 8.89 6.36 C 9.61 6.1 10.39 6.09 11.1 6.35 L 15.5 7.92 L 15.5 4.5 Z M 16.74 16.62 C 16.76 16.67 16.79 16.75 16.83 16.84 C 16.91 17.03 17.05 17.29 17.24 17.54 C 17.63 18.03 18.24 18.5 19.25 18.5 C 19.66 18.5 20 18.84 20 19.25 C 20 19.66 19.66 20 19.25 20 C 17.67 20 16.66 19.22 16.06 18.46 C 16.04 18.43 16.02 18.4 16 18.38 C 15.98 18.4 15.96 18.43 15.94 18.45 C 15.39 19.18 14.44 20 13 20 C 11.56 20 10.61 19.19 10.06 18.45 C 10.04 18.42 10.02 18.4 10 18.37 C 9.98 18.4 9.96 18.42 9.94 18.45 C 9.39 19.19 8.44 20 7 20 C 5.56 20 4.61 19.19 4.06 18.45 C 4.04 18.42 4.02 18.4 4 18.37 C 3.98 18.4 3.96 18.43 3.93 18.46 C 3.34 19.22 2.32 20 0.75 20 C 0.34 20 0 19.66 0 19.25 C 0 18.84 0.34 18.5 0.75 18.5 C 1.76 18.5 2.37 18.03 2.75 17.54 C 2.95 17.29 3.08 17.03 3.17 16.84 C 3.21 16.74 3.24 16.67 3.26 16.61 C 3.27 16.59 3.27 16.57 3.27 16.56 L 3.28 16.55 C 3.36 16.23 3.65 16.01 3.99 16 C 4.32 16 4.62 16.21 4.72 16.53 L 4.72 16.54 C 4.72 16.55 4.73 16.57 4.74 16.6 C 4.76 16.65 4.79 16.73 4.84 16.83 C 4.93 17.03 5.06 17.29 5.26 17.55 C 5.64 18.06 6.19 18.5 7 18.5 C 7.81 18.5 8.36 18.06 8.74 17.55 C 8.94 17.29 9.07 17.03 9.16 16.83 C 9.21 16.73 9.24 16.65 9.26 16.6 C 9.27 16.57 9.27 16.55 9.28 16.54 L 9.28 16.53 C 9.38 16.22 9.67 16 10 16 C 10.33 16 10.62 16.22 10.72 16.53 L 10.72 16.54 C 10.72 16.55 10.73 16.57 10.74 16.6 C 10.76 16.65 10.79 16.73 10.84 16.83 C 10.93 17.03 11.06 17.29 11.26 17.55 C 11.64 18.06 12.2 18.5 13 18.5 C 13.8 18.5 14.36 18.07 14.74 17.55 C 14.94 17.29 15.07 17.03 15.16 16.83 C 15.21 16.73 15.24 16.65 15.26 16.6 C 15.27 16.57 15.28 16.55 15.28 16.54 L 15.28 16.53 C 15.38 16.21 15.68 15.99 16.01 16 C 16.35 16.01 16.64 16.23 16.72 16.55 L 16.73 16.56 C 16.73 16.57 16.74 16.59 16.74 16.62 Z"/>
  </symbol>
  <symbol id="vehicle-bus" viewBox="0 0 20 20">
    <path d="M 5 13 C 5 12.45 5.45 12 6 12 C 6.55 12 7 12.45 7 13 C 7 13.55 6.55 14 6 14 C 5.45 14 5 13.55 5 13 Z M 15 13 C 15 13.55 14.55 14 14 14 C 13.45 14 13 13.55 13 13 C 13 12.45 13.45 12 14 12 C 14.55 12 15 12.45 15 13 Z M 11.25 3 C 11.67 3 12 3.34 12 3.75 C 12 4.16 11.67 4.5 11.25 4.5 L 8.75 4.5 C 8.34 4.5 8 4.16 8 3.75 C 8 3.34 8.34 3 8.75 3 Z M 14.25 0 C 16.32 0 18 1.68 18 3.75 L 18 7.5 L 19.23 7.5 C 19.64 7.5 19.98 7.84 19.98 8.25 C 19.98 8.66 19.64 9 19.23 9 L 18 9 L 18 17.75 C 18 18.72 17.22 19.5 16.25 19.5 L 14.75 19.5 C 13.78 19.5 13 18.72 13 17.75 L 13 16.5 L 7 16.5 L 7 17.75 C 7 18.72 6.22 19.5 5.25 19.5 L 3.75 19.5 C 2.78 19.5 2 18.72 2 17.75 L 2 9 L 0.75 9 C 0.34 9 0 8.66 0 8.25 C 0 7.84 0.34 7.5 0.75 7.5 L 2 7.5 L 2 3.75 C 2 1.68 3.68 0 5.75 0 Z M 14.5 16.5 L 14.5 17.75 C 14.5 17.89 14.61 18 14.75 18 L 16.25 18 C 16.39 18 16.5 17.89 16.5 17.75 L 16.5 16.5 Z M 16.5 11 L 3.5 11 L 3.5 15 L 16.5 15 Z M 3.75 18 L 5.25 18 C 5.39 18 5.5 17.89 5.5 17.75 L 5.5 16.5 L 3.5 16.5 L 3.5 17.75 C 3.5 17.89 3.61 18 3.75 18 Z M 3.5 9.5 L 16.5 9.5 L 16.5 3.75 C 16.5 2.51 15.49 1.5 14.25 1.5 L 5.75 1.5 C 4.51 1.5 3.5 2.51 3.5 3.75 Z"/>
  </symbol>
  <symbol id="vehicle-car" viewBox="0 0 20 20">
    <path d="M 13.8 1 C 15.29 1 16.59 2.02 16.95 3.46 L 17.33 5 L 18.25 5 C 18.63 5 18.94 5.28 18.99 5.65 L 19 5.75 C 19 6.13 18.72 6.45 18.35 6.49 L 18.25 6.5 L 17.71 6.5 L 17.92 7.33 C 18.57 7.72 19 8.44 19 9.25 L 19 17.75 C 19 18.71 18.22 19.5 17.25 19.5 L 15.75 19.5 C 14.78 19.5 14 18.71 14 17.75 L 14 16.5 L 6 16.5 L 6 17.75 C 6 18.71 5.22 19.5 4.25 19.5 L 2.75 19.5 C 1.78 19.5 1 18.71 1 17.75 L 1 9.25 C 1 8.44 1.43 7.72 2.08 7.33 L 2.29 6.5 L 1.75 6.5 C 1.37 6.5 1.05 6.22 1 5.85 L 1 5.75 C 1 5.37 1.28 5.06 1.65 5.01 L 1.75 5 L 2.66 5 L 3.05 3.46 C 3.41 2.02 4.71 1 6.2 1 L 13.8 1 Z M 4.5 16.5 L 2.5 16.5 L 2.5 17.75 C 2.5 17.89 2.61 18 2.75 18 L 4.25 18 C 4.39 18 4.5 17.89 4.5 17.75 L 4.5 16.5 Z M 17.5 16.5 L 15.5 16.5 L 15.5 17.75 C 15.5 17.89 15.61 18 15.75 18 L 17.25 18 C 17.39 18 17.5 17.89 17.5 17.75 L 17.5 16.5 Z M 16.75 8.5 L 3.25 8.5 C 2.83 8.5 2.5 8.84 2.5 9.25 L 2.5 15 L 17.5 15 L 17.5 9.25 C 17.5 8.84 17.17 8.5 16.75 8.5 Z M 8.25 12 L 11.75 12 C 12.16 12 12.5 12.34 12.5 12.75 C 12.5 13.13 12.22 13.45 11.85 13.49 L 11.75 13.5 L 8.25 13.5 C 7.83 13.5 7.5 13.17 7.5 12.75 C 7.5 12.37 7.78 12.06 8.15 12.01 L 8.25 12 L 11.75 12 L 8.25 12 Z M 15 10 C 15.55 10 16 10.45 16 11 C 16 11.55 15.55 12 15 12 C 14.45 12 14 11.55 14 11 C 14 10.45 14.45 10 15 10 Z M 5 10 C 5.55 10 6 10.45 6 11 C 6 11.55 5.55 12 5 12 C 4.45 12 4 11.55 4 11 C 4 10.45 4.45 10 5 10 Z M 13.8 2.5 L 6.2 2.5 C 5.4 2.5 4.7 3.05 4.5 3.83 L 3.71 7 L 16.29 7 L 15.49 3.83 C 15.3 3.05 14.6 2.5 13.8 2.5 Z"/>
  </symbol>
  <symbol id="visibility-visible" viewBox="0 0 20 20">
    <path d="M 10 7 C 12.21 7 14 8.79 14 11 C 14 13.21 12.21 15 10 15 C 7.79 15 6 13.21 6 11 C 6 8.79 7.79 7 10 7 Z M 10 8.5 C 8.62 8.5 7.5 9.62 7.5 11 C 7.5 12.38 8.62 13.5 10 13.5 C 11.38 13.5 12.5 12.38 12.5 11 C 12.5 9.62 11.38 8.5 10 8.5 Z M 10 3.5 C 14.61 3.5 18.6 6.65 19.7 11.06 C 19.8 11.46 19.56 11.87 19.16 11.97 C 18.75 12.07 18.35 11.83 18.25 11.43 C 17.31 7.68 13.92 5 10 5 C 6.08 5 2.69 7.68 1.75 11.43 C 1.65 11.83 1.25 12.08 0.84 11.98 C 0.44 11.88 0.2 11.47 0.3 11.07 C 1.4 6.65 5.39 3.5 10 3.5 Z"/>
  </symbol>
  <symbol id="visibility-hidden" viewBox="0 0 20 20">
    <path d="M 0.22 0.22 C -0.05 0.49 -0.07 0.9 0.15 1.2 L 0.22 1.28 L 4.25 5.31 C 2.33 6.66 0.9 8.68 0.3 11.06 C 0.2 11.47 0.44 11.87 0.84 11.97 C 1.25 12.07 1.65 11.83 1.75 11.43 C 2.28 9.31 3.59 7.54 5.33 6.39 L 7.14 8.2 C 6.44 8.93 6 9.91 6 11 C 6 13.21 7.79 15 10 15 C 11.09 15 12.08 14.57 12.8 13.86 L 18.72 19.78 C 19.01 20.07 19.49 20.07 19.78 19.78 C 20.05 19.51 20.07 19.1 19.85 18.8 L 19.78 18.72 L 13.67 12.61 L 13.67 12.6 L 12.47 11.41 L 9.6 8.54 L 9.6 8.54 L 6.72 5.66 L 6.72 5.66 L 5.59 4.53 L 1.28 0.22 C 0.99 -0.07 0.51 -0.07 0.22 0.22 Z M 8.2 9.27 L 11.74 12.8 C 11.29 13.24 10.68 13.5 10 13.5 C 8.62 13.5 7.5 12.39 7.5 11 C 7.5 10.33 7.77 9.72 8.2 9.27 Z M 10 3.5 C 9 3.5 8.03 3.65 7.11 3.92 L 8.35 5.16 C 8.88 5.06 9.44 5 10 5 C 13.92 5 17.31 7.68 18.25 11.43 C 18.35 11.83 18.75 12.08 19.16 11.98 C 19.56 11.88 19.8 11.47 19.7 11.07 C 18.6 6.65 14.62 3.5 10 3.5 Z M 10.19 7.01 L 14 10.81 C 13.89 8.75 12.25 7.11 10.19 7.01 Z"/>
  </symbol>
  <symbol id="text-align-center" viewBox="0 0 20 20">
    <path d="M 2 3.75 C 2 3.34 2.34 3 2.75 3 L 17.25 3 C 17.66 3 18 3.34 18 3.75 C 18 4.16 17.66 4.5 17.25 4.5 L 2.75 4.5 C 2.34 4.5 2 4.16 2 3.75 Z M 4 16.75 C 4 16.34 4.34 16 4.75 16 L 15.25 16 C 15.66 16 16 16.34 16 16.75 C 16 17.16 15.66 17.5 15.25 17.5 L 4.75 17.5 C 4.34 17.5 4 17.16 4 16.75 Z M 19.25 9.5 C 19.66 9.5 20 9.84 20 10.25 C 20 10.66 19.66 11 19.25 11 L 0.75 11 C 0.34 11 0 10.66 0 10.25 C 0 9.84 0.34 9.5 0.75 9.5 Z"/>
  </symbol>
  <symbol id="text-align-left" viewBox="0 0 20 20">
    <path d="M 0 3.75 C 0 3.34 0.34 3 0.75 3 L 16.25 3 C 16.66 3 17 3.34 17 3.75 C 17 4.16 16.66 4.5 16.25 4.5 L 0.75 4.5 C 0.34 4.5 0 4.16 0 3.75 Z M 0 16.75 C 0 16.34 0.34 16 0.75 16 L 11.25 16 C 11.66 16 12 16.34 12 16.75 C 12 17.16 11.66 17.5 11.25 17.5 L 0.75 17.5 C 0.34 17.5 0 17.16 0 16.75 Z M 19.25 9.5 C 19.66 9.5 20 9.84 20 10.25 C 20 10.66 19.66 11 19.25 11 L 0.75 11 C 0.34 11 0 10.66 0 10.25 C 0 9.84 0.34 9.5 0.75 9.5 Z"/>
  </symbol>
  <symbol id="text-align-right" viewBox="0 0 20 20">
    <path d="M 20 3.75 C 20 3.34 19.66 3 19.25 3 L 3.75 3 C 3.34 3 3 3.34 3 3.75 C 3 4.16 3.34 4.5 3.75 4.5 L 19.25 4.5 C 19.66 4.5 20 4.16 20 3.75 Z M 20 16.75 C 20 16.34 19.66 16 19.25 16 L 8.75 16 C 8.34 16 8 16.34 8 16.75 C 8 17.16 8.34 17.5 8.75 17.5 L 19.25 17.5 C 19.66 17.5 20 17.16 20 16.75 Z M 0.75 9.5 C 0.34 9.5 0 9.84 0 10.25 C 0 10.66 0.34 11 0.75 11 L 19.25 11 C 19.66 11 20 10.66 20 10.25 C 20 9.84 19.66 9.5 19.25 9.5 Z"/>
  </symbol>
  <symbol id="text-align-justify" viewBox="0 0 20 20">
    <path d="M 19.25 3 C 19.66 3 20 3.34 20 3.75 C 20 4.16 19.66 4.5 19.25 4.5 L 0.75 4.5 C 0.34 4.5 0 4.16 0 3.75 C 0 3.34 0.34 3 0.75 3 Z M 19.25 9.5 C 19.66 9.5 20 9.84 20 10.25 C 20 10.66 19.66 11 19.25 11 L 0.75 11 C 0.34 11 0 10.66 0 10.25 C 0 9.84 0.34 9.5 0.75 9.5 Z M 19.25 16 C 19.66 16 20 16.34 20 16.75 C 20 17.16 19.66 17.5 19.25 17.5 L 0.75 17.5 C 0.34 17.5 0 17.16 0 16.75 C 0 16.34 0.34 16 0.75 16 Z"/>
  </symbol>
  <symbol id="text-bold" viewBox="0 0 20 20">
    <path d="M 4.94 2.44 C 5.22 2.16 5.6 2 6 2 L 10.38 2 C 13.02 2 15 4.18 15 6.63 C 15 7.6 14.69 8.54 14.14 9.31 C 15.21 10.13 16 11.43 16 13.12 C 16 16.23 13.3 18 11.12 18 L 6 18 C 5.17 18 4.5 17.33 4.5 16.5 L 4.5 3.5 C 4.5 3.1 4.66 2.72 4.94 2.44 Z M 7.5 8.25 L 10.38 8.25 C 11.28 8.25 12 7.49 12 6.63 C 12 5.76 11.28 5 10.38 5 L 7.5 5 L 7.5 8.25 Z M 7.5 11.25 L 7.5 15 L 11.12 15 C 11.99 15 13 14.25 13 13.12 C 13 11.99 12.03 11.25 11.12 11.25 L 7.5 11.25 Z"/>
  </symbol>
  <symbol id="text-italic" viewBox="0 0 20 20">
    <path d="M 7.75 2 L 16.25 2 C 16.66 2 17 2.34 17 2.75 C 17 3.13 16.72 3.44 16.35 3.49 L 16.25 3.5 L 13.05 3.5 L 8.03 16.5 L 12.25 16.5 C 12.63 16.5 12.94 16.78 12.99 17.15 L 13 17.25 C 13 17.63 12.71 17.94 12.35 17.99 L 12.25 18 L 2.75 18 C 2.33 18 2 17.66 2 17.25 C 2 16.87 2.28 16.56 2.64 16.51 L 2.75 16.5 L 6.43 16.5 L 6.45 16.43 L 11.45 3.5 L 7.75 3.5 C 7.37 3.5 7.05 3.22 7 2.85 L 7 2.75 C 7 2.37 7.28 2.06 7.65 2.01 L 7.75 2 L 16.25 2 L 7.75 2 Z"/>
  </symbol>
  <symbol id="text-strikethrough" viewBox="0 0 20 20">
    <path d="M 2.75 10 L 17.25 10 C 17.66 10 18 10.33 18 10.75 C 18 11.13 17.72 11.44 17.35 11.49 L 17.25 11.5 L 14.28 11.5 C 15.15 12.31 15.61 13.29 15.61 14.43 C 15.61 17.26 12.38 19.07 8.86 18.66 C 6.62 18.4 5.05 17.51 4.22 15.96 C 4.03 15.6 4.17 15.14 4.53 14.95 C 4.9 14.75 5.35 14.89 5.55 15.26 C 6.12 16.32 7.25 16.97 9.03 17.17 C 11.77 17.49 14.11 16.18 14.11 14.43 C 14.11 13.26 13.31 12.31 11.55 11.55 L 11.43 11.5 L 2.75 11.5 C 2.37 11.5 2.06 11.22 2.01 10.85 L 2 10.75 C 2 10.37 2.28 10.06 2.65 10.01 L 2.75 10 L 17.25 10 L 2.75 10 Z M 4.26 6.12 C 4.41 3.29 7.08 1.65 10.58 2.06 C 12.77 2.31 14.45 3.11 15.57 4.47 C 15.83 4.79 15.79 5.26 15.47 5.53 C 15.15 5.79 14.67 5.74 14.41 5.42 C 13.56 4.39 12.24 3.76 10.41 3.55 C 7.69 3.23 5.76 4.36 5.76 6.12 C 5.76 6.89 5.99 7.47 6.59 8.1 L 6.72 8.24 C 6.81 8.33 6.92 8.43 6.97 8.47 L 7 8.5 L 5.08 8.5 L 5.06 8.46 C 4.91 8.25 4.2 7.26 4.26 6.12 Z"/>
  </symbol>
  <symbol id="text-underline" viewBox="0 0 20 20">
    <path d="M 4.75 17 L 15.25 17 C 15.66 17 16 17.34 16 17.75 C 16 18.13 15.72 18.44 15.35 18.49 L 15.25 18.5 L 4.75 18.5 C 4.34 18.5 4 18.16 4 17.75 C 4 17.37 4.28 17.06 4.65 17.01 L 4.75 17 L 15.25 17 L 4.75 17 Z M 15.25 2 C 15.63 2 15.94 2.28 15.99 2.65 L 16 2.75 L 16 8.75 C 16 13.14 13.94 15.5 10 15.5 C 6.14 15.5 4.09 13.24 4 9.03 L 4 8.75 L 4 2.75 C 4 2.34 4.34 2 4.75 2 C 5.13 2 5.44 2.28 5.49 2.65 L 5.5 2.75 L 5.5 8.75 C 5.5 12.36 6.93 14 10 14 C 12.98 14 14.43 12.44 14.5 9.02 L 14.5 8.75 L 14.5 2.75 C 14.5 2.34 14.84 2 15.25 2 Z"/>
  </symbol>
  <symbol id="tune" viewBox="0 0 20 20">
    <path d="M 6.75 11.5 C 8.29 11.5 9.57 12.57 9.91 14 L 19.25 14 C 19.66 14 20 14.34 20 14.75 C 20 15.13 19.72 15.44 19.35 15.49 L 19.25 15.5 L 9.91 15.5 C 9.57 16.93 8.29 18 6.75 18 C 5.21 18 3.93 16.93 3.59 15.5 L 0.75 15.5 C 0.34 15.5 0 15.16 0 14.75 C 0 14.37 0.28 14.06 0.65 14.01 L 0.75 14 L 3.59 14 C 3.93 12.57 5.21 11.5 6.75 11.5 Z M 6.75 13 C 5.99 13 5.34 13.49 5.1 14.17 L 5.08 14.24 L 5.04 14.38 C 5.01 14.5 5 14.62 5 14.75 C 5 14.9 5.02 15.06 5.06 15.2 L 5.1 15.33 L 5.12 15.4 C 5.38 16.04 6.01 16.5 6.75 16.5 C 7.51 16.5 8.16 16.01 8.4 15.33 L 8.44 15.2 L 8.43 15.26 C 8.47 15.1 8.5 14.93 8.5 14.75 C 8.5 14.65 8.49 14.54 8.47 14.44 L 8.44 14.31 L 8.42 14.24 L 8.38 14.1 C 8.12 13.46 7.49 13 6.75 13 Z M 13.25 2 C 14.79 2 16.07 3.07 16.41 4.5 L 19.25 4.5 C 19.66 4.5 20 4.84 20 5.25 C 20 5.63 19.72 5.94 19.35 5.99 L 19.25 6 L 16.41 6 C 16.07 7.43 14.79 8.5 13.25 8.5 C 11.71 8.5 10.43 7.43 10.09 6 L 0.75 6 C 0.34 6 0 5.66 0 5.25 C 0 4.87 0.28 4.56 0.65 4.51 L 0.75 4.5 L 10.09 4.5 C 10.43 3.07 11.71 2 13.25 2 Z M 13.25 3.5 C 12.49 3.5 11.84 3.99 11.6 4.67 L 11.58 4.74 L 11.54 4.88 C 11.51 5 11.5 5.12 11.5 5.25 C 11.5 5.4 11.52 5.55 11.56 5.7 L 11.6 5.83 L 11.62 5.9 C 11.88 6.54 12.51 7 13.25 7 C 14.01 7 14.66 6.51 14.9 5.83 L 14.94 5.7 L 14.93 5.76 C 14.97 5.6 15 5.43 15 5.25 C 15 5.15 14.99 5.04 14.97 4.94 L 14.94 4.81 L 14.92 4.74 L 14.88 4.6 C 14.62 3.96 13.99 3.5 13.25 3.5 Z"/>
  </symbol>
</svg>