<svg xmlns="http://www.w3.org/2000/svg">
  <symbol id="xel" viewBox="0 0 1024 1024">
    <rect width="768" height="768" style="fill: currentcolor; opacity: 0.82;" x="128" y="128"/>
    <path d="M 198.386 515.972 L 728.517 455.923 L 825.267 553.44 L 290.776 609.9 L 198.386 515.972 Z" style="fill: rgb(255, 255, 255); opacity: 0.7;" transform="matrix(-0.707107, 0.707107, -0.707107, -0.707107, 1250.567873, 547.820855)"/>
    <path d="M 321.578 606.894 L 708.988 648.192 L 805.738 550.674 L 286.01 496.987 L 321.578 606.894 Z" style="fill: rgb(255, 255, 255);" transform="matrix(0.707107, 0.707107, -0.707107, 0.707107, 564.764715, -218.283618)"/>
    <path d="M 385.869 453.938 L 450.681 390.757 C 466.476 349.988 456.513 303.731 425.336 273.081 C 391.951 240.088 341.622 231.22 298.972 250.813 L 385.85 339.308 L 334.615 390.541 L 245.927 302.048 C 225.434 344.579 234.399 395.447 268.195 428.412 C 298.805 459.653 345.066 469.689 385.869 453.938 Z" style="fill: rgb(255, 255, 255);"/>
  </symbol>
  <symbol id="color-wheel" viewBox="24 24 100 100">
    <path style="fill: rgb(255, 207, 0);" d="M 59.381 26.185 C 68.625 23.359 78.49 23.273 87.782 25.937 L 74 74 Z"/>
    <path style="fill: rgb(255, 166, 0);" d="M 86.941 25.704 C 96.278 28.206 104.689 33.36 111.157 40.543 L 74 74 Z"/>
    <path style="fill: rgb(255, 126, 1);" d="M 111.157 40.543 C 117.625 47.727 121.872 56.631 123.384 66.178 L 74 74 Z"/>
    <path style="fill: rgb(254, 33, 0);" d="M 123.24 65.318 C 124.97 75.13 123.73 85.235 119.677 94.337 L 74 74 Z"/>
    <path style="fill: rgb(245, 36, 148);" d="M 119.677 94.337 C 115.746 103.167 109.339 110.669 101.232 115.934 L 74 74 Z"/>
    <path style="fill: rgb(139, 33, 187);" d="M 101.232 115.934 C 93.125 121.198 83.666 124 74 124 L 74 74 Z"/>
    <path style="fill: rgb(0, 35, 186);" d="M 74.873 123.992 C 64.613 124.171 54.547 121.19 46.04 115.452 L 74 74 Z"/>
    <path style="fill: rgb(0, 121, 199);" d="M 46.04 115.452 C 38.273 110.213 32.134 102.896 28.323 94.337 L 74 74 Z"/>
    <path style="fill: rgb(0, 178, 212);" d="M 28.323 94.337 C 24.512 85.777 23.183 76.32 24.487 67.041 L 74 74 Z"/>
    <path style="fill: rgb(2, 183, 0);" d="M 24.487 67.041 C 25.832 57.469 29.923 48.492 36.265 41.197 L 74 74 Z"/>
    <path style="fill: rgb(131, 206, 0);" d="M 35.698 41.861 C 41.911 34.456 50.138 29.011 59.381 26.185 L 74 74 Z"/>
  </symbol>
</svg>