<?xml version="1.0" encoding="utf-8"?>
<svg xmlns="http://www.w3.org/2000/svg" xmlns:bx="https://boxy-svg.com">
  <symbol id="add" viewBox="0 0 20 20">
    <path d="M 9.88 1.01 L 10 1 C 10.51 1 10.94 1.39 10.99 1.88 L 11 2 L 11 9 L 18 9 C 18.51 9 18.94 9.39 18.99 9.88 L 19 10 C 19 10.51 18.61 10.94 18.12 10.99 L 18 11 L 11 11 L 11 18 C 11 18.51 10.61 18.94 10.12 18.99 L 10 19 C 9.49 19 9.06 18.61 9.01 18.12 L 9 18 L 9 11 L 2 11 C 1.49 11 1.06 10.61 1.01 10.12 L 1 10 C 1 9.49 1.39 9.06 1.88 9.01 L 2 9 L 9 9 L 9 2 C 9 1.49 9.39 1.06 9.88 1.01 L 10 1 L 9.88 1.01 Z"/>
  </symbol>
  <symbol id="alert" viewBox="0 0 20 20">
    <path d="M 7.04 17 L 12.95 17 C 12.71 18.42 11.48 19.5 10 19.5 C 8.51 19.5 7.28 18.42 7.04 17 Z M 10 0 C 14.14 0 17.5 3.36 17.5 7.5 L 17.5 11.5 L 18.91 14.66 C 18.97 14.78 19 14.91 19 15.05 C 19 15.57 18.57 16 18.05 16 L 1.95 16 C 1.81 16 1.68 15.97 1.56 15.91 C 1.08 15.7 0.87 15.14 1.08 14.66 L 2.5 11.5 L 2.5 7.49 L 2.5 7.24 C 2.64 3.21 5.95 0 10 0 Z"/>
  </symbol>
  <symbol id="bars" viewBox="0 0 20 20">
    <path d="M 5.71 1.5 L 5.71 6.5 L 2.15 6.5 C 0.96 6.5 0 5.66 0 4.62 L 0 3.37 C 0 2.34 0.96 1.5 2.15 1.5 L 5.71 1.5 Z" style="fill: inherit;"/>
    <path d="M 7.14 6.5 L 17.85 6.5 C 19.04 6.5 20 5.66 20 4.63 L 20 3.38 C 20 2.34 19.04 1.5 17.85 1.5 L 7.14 1.5 L 7.14 6.5 Z" style="fill: inherit;"/>
    <path d="M 5.71 13.5 L 5.71 18.5 L 2.15 18.5 C 0.96 18.5 0 17.66 0 16.62 L 0 15.37 C 0 14.34 0.96 13.5 2.15 13.5 L 5.71 13.5 Z" style="fill: inherit;"/>
    <path d="M 7.14 18.5 L 17.85 18.5 C 19.04 18.5 20 17.66 20 16.62 L 20 15.37 C 20 14.34 19.04 13.5 17.85 13.5 L 7.14 13.5 L 7.14 18.5 Z" style="fill: inherit;"/>
    <path d="M 5.71 7.5 L 5.71 12.5 L 2.15 12.5 C 0.96 12.5 0 11.66 0 10.62 L 0 9.37 C 0 8.34 0.96 7.5 2.15 7.5 L 5.71 7.5 Z" style="fill: inherit;"/>
    <path d="M 7.14 12.5 L 17.85 12.5 C 19.04 12.5 20 11.66 20 10.62 L 20 9.37 C 20 8.34 19.04 7.5 17.85 7.5 L 7.14 7.5 L 7.14 12.5 Z" style="fill: inherit;"/>
  </symbol>
  <symbol id="bookmark" viewBox="0 0 20 20">
    <path d="M 4.19 19.85 C 3.69 20.21 3 19.86 3 19.25 L 3 4.25 C 3 2.46 4.46 1 6.25 1 L 13.75 1 C 15.54 1 17 2.46 17 4.25 L 17 19.25 C 17 19.86 16.31 20.21 15.81 19.85 L 10 15.67 L 4.19 19.85 Z"/>
  </symbol>
  <symbol id="bug" viewBox="0 0 20 20">
    <path d="M 12.25 0 C 12.63 0 12.94 0.28 12.99 0.65 L 13 0.75 L 13 1.5 C 13 2.14 12.8 2.72 12.47 3.21 C 13.86 3.69 14.89 4.97 14.99 6.5 L 15.25 6.5 C 16.49 6.49 17.49 5.48 17.49 4.24 L 17.48 2.75 C 17.48 2.34 17.81 2 18.23 2 C 18.64 2 18.98 2.33 18.98 2.75 L 18.99 4.23 C 18.99 6.24 17.43 7.88 15.45 7.99 L 15.24 8 L 15 8 L 15 9.5 L 19.25 9.5 C 19.63 9.5 19.94 9.78 19.99 10.15 L 20 10.25 C 20 10.63 19.72 10.94 19.35 10.99 L 19.25 11 L 15 11 L 15 13 L 15.24 13 L 15.45 13.01 C 17.36 13.11 18.89 14.65 18.98 16.57 L 18.99 16.77 L 18.98 18.25 C 18.98 18.67 18.64 19 18.23 19 C 17.85 19 17.53 18.71 17.49 18.35 L 17.48 18.25 L 17.49 16.76 C 17.49 15.57 16.57 14.59 15.4 14.51 L 15.25 14.5 L 14.77 14.5 C 14.13 16.53 12.24 18 10 18 C 7.76 18 5.86 16.53 5.23 14.5 L 4.74 14.5 C 3.5 14.51 2.49 15.52 2.5 16.76 L 2.5 18.25 C 2.51 18.66 2.17 19 1.76 19 C 1.34 19 1.01 18.67 1 18.25 L 1 16.77 C 0.99 14.76 2.56 13.12 4.53 13.01 L 4.75 13 L 5 13 L 5 11 L 0.75 11 C 0.37 11 0.06 10.72 0.01 10.35 L 0 10.25 C 0 9.87 0.28 9.56 0.65 9.51 L 0.75 9.5 L 5 9.5 L 5 8 L 4.75 8 L 4.53 7.99 C 2.62 7.88 1.1 6.34 1 4.43 L 1 4.23 L 1 2.75 C 1.01 2.33 1.34 2 1.76 2 C 2.14 2 2.45 2.29 2.5 2.65 L 2.5 2.75 L 2.5 4.24 C 2.49 5.43 3.41 6.41 4.59 6.49 L 4.74 6.5 L 5.01 6.5 C 5.11 4.97 6.13 3.69 7.53 3.21 C 7.23 2.78 7.04 2.27 7.01 1.71 L 7 1.5 L 7 0.75 C 7 0.34 7.33 0 7.75 0 C 8.13 0 8.44 0.28 8.49 0.65 L 8.5 0.75 L 8.5 1.5 C 8.5 2.33 9.17 3 10 3 C 10.78 3 11.42 2.41 11.49 1.65 L 11.5 1.5 L 11.5 0.75 C 11.5 0.34 11.83 0 12.25 0 Z"/>
  </symbol>
  <symbol id="calendar" viewBox="0 0 20 20">
    <path d="M 19 6.5 L 19 15.75 C 19 17.54 17.54 19 15.75 19 L 4.25 19 C 2.46 19 1 17.54 1 15.75 L 1 6.5 L 19 6.5 Z M 5.25 13 C 4.56 13 4 13.56 4 14.25 C 4 14.94 4.56 15.5 5.25 15.5 C 5.94 15.5 6.5 14.94 6.5 14.25 C 6.5 13.56 5.94 13 5.25 13 Z M 10 13 C 9.31 13 8.75 13.56 8.75 14.25 C 8.75 14.94 9.31 15.5 10 15.5 C 10.69 15.5 11.25 14.94 11.25 14.25 C 11.25 13.56 10.69 13 10 13 Z M 5.25 8.5 C 4.56 8.5 4 9.06 4 9.75 C 4 10.44 4.56 11 5.25 11 C 5.94 11 6.5 10.44 6.5 9.75 C 6.5 9.06 5.94 8.5 5.25 8.5 Z M 10 8.5 C 9.31 8.5 8.75 9.06 8.75 9.75 C 8.75 10.44 9.31 11 10 11 C 10.69 11 11.25 10.44 11.25 9.75 C 11.25 9.06 10.69 8.5 10 8.5 Z M 14.75 8.5 C 14.06 8.5 13.5 9.06 13.5 9.75 C 13.5 10.44 14.06 11 14.75 11 C 15.44 11 16 10.44 16 9.75 C 16 9.06 15.44 8.5 14.75 8.5 Z M 15.75 1 C 17.54 1 19 2.46 19 4.25 L 19 5 L 1 5 L 1 4.25 C 1 2.46 2.46 1 4.25 1 L 15.75 1 Z"/>
  </symbol>
  <symbol id="chevron-left" viewBox="0 0 20 20">
    <path d="M 14.21 2.29 C 14.6 2.68 14.6 3.32 14.21 3.71 L 7.91 10 L 14.21 16.29 C 14.6 16.68 14.6 17.32 14.21 17.71 C 13.82 18.1 13.18 18.1 12.79 17.71 L 5.79 10.71 C 5.4 10.32 5.4 9.68 5.79 9.29 L 12.79 2.29 C 13.18 1.9 13.82 1.9 14.21 2.29 Z"/>
  </symbol>
  <symbol id="chevron-right" viewBox="0 0 20 20">
    <path d="M 5.79 2.29 C 5.4 2.68 5.4 3.32 5.79 3.71 L 12.09 10 L 5.79 16.29 C 5.4 16.68 5.4 17.32 5.79 17.71 C 6.18 18.1 6.82 18.1 7.21 17.71 L 14.21 10.71 C 14.6 10.32 14.6 9.68 14.21 9.29 L 7.21 2.29 C 6.82 1.9 6.18 1.9 5.79 2.29 Z"/>
  </symbol>
  <symbol id="circle" viewBox="0 0 20 20">
    <g transform="matrix(0.9, 0, 0, 0.9, -0.800001, -0.8)">
      <path d="M2 12C2 6.47715 6.47715 2 12 2C17.5228 2 22 6.47715 22 12C22 17.5228 17.5228 22 12 22C6.47715 22 2 17.5228 2 12Z" style="fill: inherit;"/>
    </g>
  </symbol>
  <symbol id="clock" viewBox="0 0 20 20">
    <path d="M 13.25 11.5 L 9.25 11.5 C 8.84 11.5 8.5 11.16 8.5 10.75 L 8.5 4.75 C 8.5 4.34 8.84 4 9.25 4 C 9.66 4 10 4.34 10 4.75 L 10 10 L 13.25 10 C 13.66 10 14 10.34 14 10.75 C 14 11.16 13.66 11.5 13.25 11.5 Z M 10 0 C 4.48 0 0 4.48 0 10 C 0 15.52 4.48 20 10 20 C 15.52 20 20 15.52 20 10 C 20 4.48 15.52 0 10 0 Z"/>
  </symbol>
  <symbol id="close" viewBox="0 0 100 100" bx:pinned="true">
    <path d="M 50 57.16 L 18.6 88.54 C 17.6 89.55 16.38 90.05 15.01 90.05 C 13.61 90.05 12.41 89.55 11.5 88.54 C 10.5 87.54 10 86.45 10 84.95 C 10 83.64 10.5 82.45 11.5 81.44 L 42.9 50.05 L 11.5 18.55 C 10.5 17.54 10 16.35 10 14.94 C 10 14.26 10.09 13.66 10.38 13.04 C 10.7 12.44 11.01 11.85 11.5 11.45 C 11.9 10.95 12.49 10.63 13.11 10.44 C 13.71 10.13 14.31 9.94 15.01 9.94 C 16.38 9.94 17.6 10.44 18.6 11.45 L 50 42.95 L 81.51 11.45 C 82.51 10.44 83.62 9.94 84.99 9.94 C 86.39 9.94 87.59 10.44 88.6 11.45 C 89.62 12.44 90 13.66 90 15.04 C 90 16.44 89.62 17.54 88.6 18.55 L 57.1 50.05 L 88.6 81.44 C 89.62 82.45 90 83.64 90 85.05 C 90 85.73 89.91 86.45 89.62 87.04 C 89.39 87.64 88.99 88.14 88.5 88.64 C 88.1 89.04 87.59 89.43 86.89 89.65 C 86.39 89.93 85.69 90.05 84.99 90.05 C 83.62 90.05 82.51 89.55 81.51 88.54 L 50 57.16 Z" style="stroke-width: 11.86; fill: inherit;"/>
  </symbol>
  <symbol id="code" viewBox="0 0 20 20">
    <path d="M 6.09 16.61 L 12.08 2.6 C 12.3 2.1 12.89 1.86 13.39 2.08 C 13.87 2.28 14.1 2.8 13.96 3.28 L 13.92 3.39 L 7.92 17.4 C 7.71 17.9 7.12 18.14 6.61 17.92 C 6.14 17.72 5.9 17.2 6.05 16.72 L 6.09 16.61 L 12.08 2.6 L 6.09 16.61 Z M 0.29 9.29 L 4.29 5.29 C 4.68 4.9 5.32 4.9 5.71 5.29 C 6.07 5.65 6.1 6.22 5.79 6.61 L 5.71 6.7 L 2.41 10 L 5.71 13.29 C 6.1 13.68 6.1 14.31 5.71 14.7 C 5.35 15.07 4.78 15.09 4.39 14.79 L 4.29 14.7 L 0.29 10.7 C -0.07 10.34 -0.1 9.78 0.21 9.38 L 0.29 9.29 L 4.29 5.29 L 0.29 9.29 Z M 14.29 5.29 C 14.65 4.93 15.22 4.9 15.61 5.21 L 15.71 5.29 L 19.71 9.29 C 20.07 9.65 20.1 10.22 19.79 10.61 L 19.71 10.71 L 15.71 14.7 C 15.32 15.09 14.68 15.09 14.29 14.7 C 13.93 14.34 13.9 13.77 14.21 13.38 L 14.29 13.29 L 17.59 10 L 14.29 6.7 C 13.9 6.31 13.9 5.68 14.29 5.29 Z"/>
  </symbol>
  <symbol id="color-palette" viewBox="0 0 20 20">
    <path d="M 1.77 3.83 C 4.71 -0.09 10.8 -1.23 15.13 1.47 C 19.41 4.13 20.99 9.25 19.23 14.05 C 17.58 18.58 13.22 20.37 10.07 18.09 C 8.9 17.24 8.44 16.17 8.22 14.43 L 8.11 13.44 L 8.07 13.04 C 7.95 12.11 7.76 11.69 7.37 11.47 C 6.83 11.17 6.47 11.17 5.77 11.44 L 5.42 11.59 L 5.24 11.66 C 4.23 12.1 3.55 12.26 2.7 12.08 L 2.5 12.03 L 2.33 11.99 C -0.45 11.12 -0.87 7.34 1.77 3.83 Z M 14.7 8.55 C 14.88 9.22 15.56 9.61 16.23 9.43 C 16.9 9.26 17.29 8.57 17.11 7.9 C 16.93 7.24 16.25 6.84 15.58 7.02 C 14.91 7.2 14.52 7.88 14.7 8.55 Z M 15.19 12.04 C 15.37 12.71 16.06 13.1 16.72 12.92 C 17.39 12.74 17.79 12.06 17.61 11.39 C 17.43 10.73 16.74 10.33 16.08 10.51 C 15.41 10.69 15.01 11.37 15.19 12.04 Z M 12.72 5.55 C 12.9 6.21 13.58 6.61 14.25 6.43 C 14.92 6.25 15.31 5.57 15.13 4.9 C 14.96 4.23 14.27 3.84 13.6 4.02 C 12.94 4.2 12.54 4.88 12.72 5.55 Z M 12.69 14.55 C 12.87 15.21 13.55 15.61 14.22 15.43 C 14.89 15.25 15.28 14.57 15.11 13.9 C 14.93 13.23 14.24 12.84 13.57 13.02 C 12.91 13.19 12.51 13.88 12.69 14.55 Z M 9.19 4.58 C 9.37 5.24 10.06 5.64 10.72 5.46 C 11.39 5.28 11.79 4.6 11.61 3.93 C 11.43 3.26 10.74 2.87 10.08 3.05 C 9.41 3.22 9.02 3.91 9.19 4.58 Z"/>
  </symbol>
  <symbol id="comment" viewBox="0 0 20 20">
    <path d="M 15.99 14 C 15.86 15.68 14.46 17 12.75 17 L 8.67 17 L 5 19.75 C 4.18 20.37 3 19.78 3 18.75 L 3 16.99 C 1.32 16.86 0 15.46 0 13.75 L 0 7.25 C 0 5.54 1.32 4.14 3 4.01 C 3.08 4 3.17 4 3.25 4 L 12.75 4 C 14.54 4 16 5.45 16 7.25 L 16 13.75 C 16 13.83 16 13.92 15.99 14 Z M 15.25 0 C 17.87 0 20 2.13 20 4.75 L 20 10.75 C 20 12.46 18.67 13.87 16.99 13.99 C 17 13.91 17 13.83 17 13.75 L 17 7.25 C 17 4.9 15.1 3 12.75 3 L 3.25 3 C 3.17 3 3.09 3 3.01 3.01 C 3.13 1.32 4.54 0 6.25 0 Z"/>
  </symbol>
  <symbol id="copy" viewBox="0 0 20 20">
    <path d="M 3.5 2.62 L 3.5 4.75 L 3.5 15.25 C 3.5 17.05 4.96 18.5 6.75 18.5 L 15.37 18.5 C 15.06 19.38 14.22 20 13.24 20 L 6.75 20 C 4.13 20 2 17.88 2 15.25 L 2 4.75 C 2 3.77 2.63 2.93 3.5 2.62 Z M 15.75 0 C 16.99 0 18 1.01 18 2.25 L 18 15.25 C 18 16.49 16.99 17.5 15.75 17.5 L 6.75 17.5 C 5.51 17.5 4.5 16.49 4.5 15.25 L 4.5 2.25 C 4.5 1.01 5.51 0 6.75 0 L 15.75 0 Z"/>
  </symbol>
  <symbol id="credit-card" viewBox="0 0 20 20">
    <path d="M 0 5.75 C 0 4.23 1.23 3 2.75 3 L 17.25 3 C 18.77 3 20 4.23 20 5.75 L 20 7.5 L 0 7.5 Z M 0 9 L 20 9 L 20 14.25 C 20 15.77 18.77 17 17.25 17 L 2.75 17 C 1.23 17 0 15.77 0 14.25 Z M 13.75 12.5 C 13.34 12.5 13 12.84 13 13.25 C 13 13.66 13.34 14 13.75 14 L 16.25 14 C 16.66 14 17 13.66 17 13.25 C 17 12.84 16.66 12.5 16.25 12.5 Z"/>
  </symbol>
  <symbol id="crop" viewBox="0 0 20 20">
    <path d="M 5 13.5 C 5 14.28 5.59 14.92 6.36 14.99 L 6.5 15 L 19 15 C 19.55 15 20 15.45 20 16 C 20 16.51 19.61 16.94 19.12 16.99 L 19 17 L 17 17 L 17 19 C 17 19.55 16.55 20 16 20 C 15.49 20 15.06 19.61 15.01 19.12 L 15 19 L 15 17 L 6.5 17 C 4.63 17 3.1 15.54 3.01 13.69 L 3 13.5 L 3 5 L 1 5 C 0.45 5 0 4.55 0 4 C 0 3.49 0.39 3.06 0.88 3.01 L 1 3 L 3 3 L 3 1 C 3 0.45 3.45 0 4 0 C 4.51 0 4.94 0.39 4.99 0.88 L 5 1 L 5 13.5 Z M 6 3 L 13.5 3 C 15.37 3 16.9 4.46 16.99 6.31 L 17 6.5 L 17 14 L 15 14 L 15 6.5 C 15 5.72 14.41 5.08 13.64 5.01 L 13.5 5 L 6 5 L 6 3 Z"/>
  </symbol>
  <symbol id="cut" viewBox="0 0 20 20">
    <path d="M 10.13 6.83 L 13.75 12.2 C 14.15 12.07 14.57 12 15 12 C 17.21 12 19 13.79 19 16 C 19 18.21 17.21 20 15 20 C 12.79 20 11 18.21 11 16 C 11 14.95 11.41 14 12.07 13.28 L 10.19 10.49 L 8.21 13.61 C 8.71 14.28 9 15.11 9 16 C 9 18.21 7.21 20 5 20 C 2.79 20 1 18.21 1 16 C 1 13.79 2.79 12 5 12 C 5.59 12 6.14 12.13 6.64 12.35 L 8.97 8.68 L 4.17 1.56 C 3.86 1.1 3.99 0.48 4.44 0.17 C 4.9 -0.14 5.52 -0.01 5.83 0.44 Z M 5 18 C 6.11 18 7 17.11 7 16 C 7 14.9 6.11 14 5 14 C 3.9 14 3 14.9 3 16 C 3 17.11 3.9 18 5 18 Z M 15 18 C 16.11 18 17 17.11 17 16 C 17 14.9 16.11 14 15 14 C 13.9 14 13 14.9 13 16 C 13 17.11 13.9 18 15 18 Z M 11.3 4.98 L 14.16 0.47 C 14.45 0 15.07 -0.14 15.54 0.16 C 16 0.45 16.14 1.07 15.85 1.54 L 12.52 6.79 Z"/>
  </symbol>
  <symbol id="delete" viewBox="0 0 20 20">
    <path d="M 19.5 4 C 19.5 4.51 19.11 4.94 18.62 4.99 L 18.5 5 L 17.66 5 L 16.42 17.52 C 16.29 18.93 15.1 20 13.69 20 L 6.31 20 C 4.9 20 3.71 18.93 3.58 17.52 L 2.34 5 L 1.5 5 C 0.95 5 0.5 4.55 0.5 4 C 0.5 3.45 0.95 3 1.5 3 L 6.5 3 C 6.5 1.07 8.07 -0.5 10 -0.5 C 11.93 -0.5 13.5 1.07 13.5 3 L 18.5 3 C 19.05 3 19.5 3.45 19.5 4 Z M 12.25 7.25 C 11.87 7.25 11.56 7.53 11.51 7.9 L 11.5 8 L 11.5 15 L 11.51 15.1 C 11.56 15.47 11.87 15.75 12.25 15.75 C 12.63 15.75 12.94 15.47 12.99 15.1 L 13 15 L 13 8 L 12.99 7.9 C 12.94 7.53 12.63 7.25 12.25 7.25 Z M 7.75 7.25 C 7.37 7.25 7.06 7.53 7.01 7.9 L 7 8 L 7 15 L 7.01 15.1 C 7.06 15.47 7.37 15.75 7.75 15.75 C 8.13 15.75 8.44 15.47 8.49 15.1 L 8.5 15 L 8.5 8 L 8.49 7.9 C 8.44 7.53 8.13 7.25 7.75 7.25 Z M 10 1.5 C 9.17 1.5 8.5 2.17 8.5 3 L 11.5 3 C 11.5 2.17 10.83 1.5 10 1.5 Z"/>
  </symbol>
  <symbol id="document" viewBox="0 0 100 100" bx:pinned="true">
    <path d="M 50 0 L 50 30 C 50 35.52 54.48 40 60 40 L 90 40 L 90 90 C 90 95.52 85.52 100 80 100 L 20 100 C 14.48 100 10 95.52 10 90 L 10 10 C 10 4.48 14.48 0 20 0 L 50 0 Z M 57.5 2.5 L 57.5 30 C 57.5 31.38 58.62 32.5 60 32.5 L 87.5 32.5 L 57.5 2.5 Z" style="fill: inherit;"/>
  </symbol>
  <symbol id="earth" viewBox="0 0 20 20">
    <path d="M 8.95 0.05 L 8.95 0.05 C 9.3 0.02 9.65 0 10 0 C 15.52 0 20 4.48 20 10 C 20 15.52 15.52 20 10 20 C 6.79 20 3.93 18.49 2.1 16.14 L 2.1 16.14 L 2.1 16.14 C 0.78 14.44 0 12.31 0 10 C 0 4.84 3.91 0.59 8.93 0.06 L 8.95 0.05 Z M 10 1.5 C 9.95 1.5 9.89 1.5 9.84 1.5 C 9.96 1.75 10.09 2.03 10.21 2.35 C 10.56 3.27 10.88 4.63 10.31 5.84 C 9.79 6.95 8.89 7.24 8.22 7.41 L 8.14 7.43 C 7.48 7.6 7.23 7.67 7.05 7.95 C 6.88 8.2 6.9 8.53 7.11 9.2 C 7.12 9.24 7.14 9.29 7.15 9.34 C 7.24 9.6 7.33 9.91 7.38 10.21 C 7.45 10.57 7.47 11.03 7.23 11.48 C 7 11.93 6.69 12.23 6.33 12.43 C 5.99 12.61 5.64 12.68 5.37 12.73 L 5.28 12.75 C 4.77 12.84 4.52 12.88 4.28 13.14 C 4.09 13.34 3.97 13.69 3.9 14.21 C 3.87 14.43 3.86 14.64 3.84 14.86 L 3.83 14.98 C 3.81 15.22 3.79 15.5 3.73 15.74 L 3.73 15.74 C 5.28 17.44 7.52 18.5 10 18.5 C 11.58 18.5 13.05 18.07 14.32 17.32 C 14.22 17.22 14.11 17.1 14.01 16.97 C 13.67 16.54 13.22 15.81 13.38 14.94 C 13.45 14.52 13.68 14.17 13.89 13.9 C 14.11 13.63 14.38 13.38 14.61 13.16 C 14.67 13.11 14.72 13.06 14.77 13.02 C 14.95 12.85 15.1 12.72 15.23 12.58 C 15.4 12.4 15.44 12.32 15.44 12.31 C 15.51 12.09 15.43 11.93 15.34 11.86 C 15.29 11.82 15.23 11.8 15.15 11.8 C 15.06 11.8 14.93 11.82 14.75 11.94 C 14.54 12.07 14.23 12.15 13.91 12.02 C 13.64 11.92 13.5 11.71 13.42 11.59 C 13.28 11.35 13.2 11.05 13.15 10.82 C 13.11 10.64 13.07 10.45 13.03 10.27 C 13.02 10.19 13 10.12 12.99 10.06 C 12.94 9.81 12.9 9.63 12.86 9.52 C 12.86 9.52 12.85 9.51 12.84 9.48 C 12.82 9.46 12.8 9.42 12.77 9.38 C 12.72 9.29 12.64 9.19 12.55 9.06 C 12.51 9.02 12.48 8.97 12.44 8.92 C 12.28 8.71 12.08 8.45 11.92 8.21 C 11.73 7.91 11.5 7.52 11.43 7.1 C 11.4 6.88 11.4 6.63 11.49 6.37 C 11.58 6.1 11.75 5.89 11.98 5.72 C 12.46 5.36 13.17 4.55 13.8 3.76 C 14.09 3.4 14.34 3.06 14.53 2.81 C 13.22 1.98 11.67 1.5 10 1.5 Z"/>
  </symbol>
  <symbol id="edit" viewBox="0 0 20 20">
    <path d="M 11.9 3.04 L 16.96 8.1 L 7.02 18.04 C 6.75 18.31 6.4 18.51 6.02 18.62 L 0.91 20.01 C 0.35 20.17 -0.17 19.65 -0.01 19.09 L 1.38 13.98 C 1.49 13.6 1.69 13.25 1.96 12.98 L 11.9 3.04 Z M 18.99 1.01 C 20.39 2.41 20.39 4.67 18.99 6.07 L 18.02 7.04 L 12.96 1.98 L 13.93 1.01 C 15.33 -0.39 17.59 -0.39 18.99 1.01 Z"/>
  </symbol>
  <symbol id="eye-dropper" viewBox="0 0 20 20">
    <path d="M 18.06 1.94 C 16.82 0.69 14.78 0.69 13.52 1.94 L 11.75 3.69 L 11.75 3.68 C 11.13 3.08 10.13 3.08 9.52 3.68 L 9 4.22 C 8.38 4.83 8.38 5.83 9 6.44 L 9.01 6.45 L 2.93 12.53 C 2.55 12.9 2.35 13.42 2.35 13.96 L 2.35 14.57 L 1.2 16.68 C 0.45 18.05 1.95 19.55 3.32 18.8 L 5.43 17.65 L 6.03 17.65 C 6.57 17.65 7.09 17.45 7.47 17.07 L 13.55 10.99 L 13.56 11 C 14.16 11.62 15.17 11.62 15.78 11 L 16.31 10.48 C 16.92 9.86 16.92 8.87 16.31 8.24 L 16.3 8.24 L 18.06 6.48 C 19.31 5.22 19.31 3.18 18.06 1.94 Z M 9.97 7.41 L 12.59 10.03 L 6.52 16.11 C 6.4 16.25 6.22 16.31 6.03 16.31 L 5.25 16.31 C 5.14 16.31 5.02 16.35 4.94 16.39 L 2.67 17.62 C 2.61 17.65 2.57 17.65 2.53 17.65 C 2.49 17.64 2.45 17.62 2.41 17.59 C 2.38 17.55 2.35 17.5 2.35 17.46 C 2.35 17.43 2.35 17.39 2.38 17.33 L 3.6 15.06 C 3.65 14.96 3.67 14.85 3.67 14.74 L 3.67 13.96 C 3.67 13.78 3.75 13.6 3.89 13.48 L 9.97 7.41 Z" style="fill: inherit;"/>
  </symbol>
  <symbol id="flag" viewBox="0 0 20 20">
    <path d="M 1 1.75 C 1 1.34 1.34 1 1.75 1 L 18.25 1 C 18.87 1 19.23 1.71 18.85 2.2 L 14.69 7.75 L 18.85 13.3 C 19.23 13.8 18.87 14.5 18.25 14.5 L 2.5 14.5 L 2.5 19.25 C 2.5 19.63 2.22 19.95 1.85 20 L 1.75 20 C 1.37 20 1.06 19.72 1.01 19.35 L 1 19.25 L 1 1.75 Z"/>
  </symbol>
  <symbol id="folder" viewBox="0 0 20 20">
    <path d="M 11.82 4.5 L 17.75 4.5 C 18.89 4.5 19.83 5.34 19.98 6.44 L 19.99 6.6 L 20 6.75 L 20 15.75 C 20 16.94 19.07 17.92 17.9 17.99 L 17.75 18 L 2.25 18 C 1.06 18 0.08 17.07 0.01 15.9 L 0 15.75 L 0 8.5 L 6.21 8.5 L 6.4 8.49 C 6.79 8.46 7.17 8.32 7.49 8.1 L 7.65 7.98 L 11.82 4.5 Z M 6.21 2 C 6.67 2 7.12 2.14 7.49 2.4 L 7.65 2.52 L 9.75 4.27 L 6.69 6.83 L 6.6 6.89 C 6.51 6.94 6.41 6.98 6.31 6.99 L 6.21 7 L 0 7 L 0 4.25 C 0 3.06 0.93 2.08 2.1 2.01 L 2.25 2 L 6.21 2 Z"/>
  </symbol>
  <symbol id="help" viewBox="0 0 20 20">
    <path d="M 10 0 C 15.52 0 20 4.48 20 10 C 20 15.52 15.52 20 10 20 C 4.48 20 0 15.52 0 10 C 0 4.48 4.48 0 10 0 Z M 10 13.5 C 9.45 13.5 9 13.95 9 14.5 C 9 15.05 9.45 15.5 10 15.5 C 10.55 15.5 11 15.05 11 14.5 C 11 13.95 10.55 13.5 10 13.5 Z M 10 4.75 C 8.48 4.75 7.25 5.98 7.25 7.5 C 7.25 7.91 7.59 8.25 8 8.25 C 8.38 8.25 8.69 7.97 8.74 7.6 L 8.75 7.5 C 8.75 6.81 9.31 6.25 10 6.25 C 10.69 6.25 11.25 6.81 11.25 7.5 C 11.25 8.04 11.12 8.31 10.61 8.83 L 10.47 8.97 C 9.59 9.85 9.25 10.42 9.25 11.5 C 9.25 11.91 9.59 12.25 10 12.25 C 10.41 12.25 10.75 11.91 10.75 11.5 C 10.75 10.96 10.89 10.69 11.39 10.17 L 11.53 10.03 C 12.41 9.15 12.75 8.58 12.75 7.5 C 12.75 5.98 11.52 4.75 10 4.75 Z"/>
  </symbol>
  <symbol id="history-redo" viewBox="0 0 20 20">
    <path d="M 16 5.59 L 12.36 1.95 C 9.76 -0.65 5.54 -0.65 2.94 1.95 C 0.34 4.55 0.34 8.77 2.94 11.37 L 11.28 19.71 C 11.67 20.1 12.3 20.1 12.69 19.71 C 13.08 19.32 13.08 18.68 12.69 18.29 L 4.35 9.96 C 2.53 8.14 2.53 5.19 4.35 3.37 C 6.12 1.6 8.94 1.55 10.77 3.2 L 10.95 3.37 L 14.59 7 L 10 7 C 9.49 7 9.06 7.39 9.01 7.88 L 9 8 C 9 8.51 9.39 8.93 9.88 8.99 L 10 9 L 17 9 C 17.51 9 17.94 8.61 17.99 8.12 L 18 8 L 18 1 C 18 0.45 17.55 0 17 0 C 16.49 0 16.06 0.39 16.01 0.89 L 16 1 L 16 5.59 L 12.36 1.95 L 16 5.59 Z"/>
  </symbol>
  <symbol id="history-undo" viewBox="0 0 20 20">
    <path d="M 4 5.59 L 7.64 1.95 C 10.24 -0.65 14.46 -0.65 17.06 1.95 C 19.66 4.55 19.66 8.77 17.06 11.37 L 8.72 19.71 C 8.33 20.1 7.7 20.1 7.31 19.71 C 6.92 19.32 6.92 18.68 7.31 18.29 L 15.65 9.96 C 17.47 8.14 17.47 5.19 15.65 3.37 C 13.88 1.6 11.06 1.55 9.23 3.2 L 9.05 3.37 L 5.41 7 L 10 7 C 10.51 7 10.94 7.39 10.99 7.88 L 11 8 C 11 8.51 10.61 8.93 10.12 8.99 L 10 9 L 3 9 C 2.49 9 2.06 8.61 2.01 8.12 L 2 8 L 2 1 C 2 0.45 2.45 0 3 0 C 3.51 0 3.94 0.39 3.99 0.89 L 4 1 L 4 5.59 L 7.64 1.95 L 4 5.59 Z"/>
  </symbol>
  <symbol id="home" viewBox="0 0 20 20">
    <path d="M 8.55 0.53 C 9.38 -0.18 10.61 -0.18 11.45 0.53 L 18.2 6.22 C 18.7 6.65 19 7.28 19 7.94 L 19 17.75 C 19 18.71 18.21 19.5 17.25 19.5 L 14.25 19.5 C 13.28 19.5 12.5 18.71 12.5 17.75 L 12.5 12.75 C 12.5 12.33 12.16 12 11.75 12 L 8.25 12 C 7.83 12 7.5 12.33 7.5 12.75 L 7.5 17.75 C 7.5 18.71 6.71 19.5 5.75 19.5 L 2.75 19.5 C 1.78 19.5 1 18.71 1 17.75 L 1 7.94 C 1 7.28 1.29 6.65 1.8 6.22 L 8.55 0.53 Z"/>
  </symbol>
  <symbol id="image" viewBox="0 0 20 20">
    <path d="M 9.47 11.72 L 9.56 11.65 C 9.82 11.46 10.17 11.46 10.43 11.64 L 10.53 11.72 L 17.45 18.52 C 16.96 18.82 16.37 19 15.75 19 L 4.25 19 C 3.63 19 3.04 18.82 2.55 18.52 L 9.47 11.72 L 9.56 11.65 L 9.47 11.72 Z M 15.75 1 C 17.54 1 19 2.46 19 4.25 L 19 15.75 C 19 16.38 18.82 16.96 18.51 17.46 L 11.58 10.65 L 11.45 10.53 C 10.62 9.83 9.39 9.83 8.56 10.52 L 8.42 10.65 L 1.49 17.46 C 1.18 16.96 1 16.38 1 15.75 L 1 4.25 C 1 2.46 2.46 1 4.25 1 L 15.75 1 Z M 13.75 4 C 12.51 4 11.5 5.01 11.5 6.25 C 11.5 7.5 12.51 8.5 13.75 8.5 C 15 8.5 16 7.5 16 6.25 C 16 5.01 15 4 13.75 4 Z M 13.75 5.5 C 14.17 5.5 14.5 5.84 14.5 6.25 C 14.5 6.67 14.17 7 13.75 7 C 13.34 7 13 6.67 13 6.25 C 13 5.84 13.34 5.5 13.75 5.5 Z"/>
  </symbol>
  <symbol id="info" viewBox="0 0 20 20">
    <path d="M 10 0 C 15.52 0 20 4.48 20 10 C 20 15.52 15.52 20 10 20 C 4.48 20 0 15.52 0 10 C 0 4.48 4.48 0 10 0 Z M 10 8.25 C 9.48 8.25 9.06 8.64 9 9.13 L 9 9.25 L 9 14.75 L 9.01 14.87 C 9.07 15.37 9.49 15.75 10 15.75 C 10.51 15.75 10.94 15.36 10.99 14.87 L 11 14.75 L 11 9.25 L 10.99 9.13 C 10.93 8.63 10.51 8.25 10 8.25 Z M 10 4.5 C 9.31 4.5 8.75 5.06 8.75 5.75 C 8.75 6.44 9.31 7 10 7 C 10.69 7 11.25 6.44 11.25 5.75 C 11.25 5.06 10.69 4.5 10 4.5 Z"/>
  </symbol>
  <symbol id="link" viewBox="0 0 20 20">
    <path d="M 7 5 C 7.55 5 8 5.45 8 6 C 8 6.51 7.61 6.94 7.12 6.99 L 7 7 L 5 7 C 3.34 7 2 8.34 2 10 C 2 11.6 3.25 12.9 4.82 12.99 L 5 13 L 7 13 C 7.55 13 8 13.45 8 14 C 8 14.51 7.61 14.94 7.12 14.99 L 7 15 L 5 15 C 2.24 15 0 12.76 0 10 C 0 7.31 2.12 5.12 4.78 5 L 5 5 L 7 5 Z M 15 5 C 17.76 5 20 7.24 20 10 C 20 12.69 17.88 14.88 15.22 15 L 15 15 L 13 15 C 12.45 15 12 14.55 12 14 C 12 13.49 12.39 13.06 12.88 13.01 L 13 13 L 15 13 C 16.66 13 18 11.66 18 10 C 18 8.4 16.75 7.1 15.18 7.01 L 15 7 L 13 7 C 12.45 7 12 6.55 12 6 C 12 5.49 12.39 5.06 12.88 5.01 L 13 5 L 15 5 Z M 5 9 L 15 9 C 15.55 9 16 9.45 16 10 C 16 10.51 15.61 10.94 15.12 10.99 L 15 11 L 5 11 C 4.45 11 4 10.55 4 10 C 4 9.49 4.39 9.06 4.88 9.01 L 5 9 L 15 9 L 5 9 Z"/>
  </symbol>
  <symbol id="lock" viewBox="0 0 20 20">
    <path d="M 10 0 C 12.21 0 14 1.79 14 4 L 14 6 L 16.5 6 C 17.33 6 18 6.67 18 7.5 L 18 18.5 C 18 19.33 17.33 20 16.5 20 L 3.5 20 C 2.67 20 2 19.33 2 18.5 L 2 7.5 C 2 6.67 2.67 6 3.5 6 L 6 6 L 6 4 C 6 1.79 7.79 0 10 0 Z M 10 11.5 C 9.17 11.5 8.5 12.17 8.5 13 C 8.5 13.83 9.17 14.5 10 14.5 C 10.83 14.5 11.5 13.83 11.5 13 C 11.5 12.17 10.83 11.5 10 11.5 Z M 10 2 C 8.9 2 8 2.9 8 4 L 8 6 L 12 6 L 12 4 C 12 2.9 11.1 2 10 2 Z"/>
  </symbol>
  <symbol id="logout" viewBox="0 0 20 20">
    <path d="M 10.59 19.76 C 9.79 19.92 8.93 20 8 20 C 4.58 20 2.05 18.92 0.51 16.76 C 0.18 16.29 0 15.74 0 15.16 L 0 14.24 C 0 13 1.01 11.99 2.25 11.99 L 10.02 11.99 C 9.37 13 9 14.21 9 15.49 C 9 17.13 9.6 18.62 10.59 19.76 Z M 8 0 C 10.76 0 13 2.24 13 5 C 13 7.76 10.76 10 8 10 C 5.24 10 3 7.76 3 5 C 3 2.24 5.24 0 8 0 Z M 21 15.49 C 21 18.53 18.53 20.99 15.5 20.99 C 12.46 20.99 10 18.53 10 15.49 C 10 12.46 12.46 9.99 15.5 9.99 C 18.53 9.99 21 12.46 21 15.49 Z M 16.35 12.64 C 16.15 12.45 15.84 12.45 15.64 12.64 C 15.45 12.84 15.45 13.15 15.64 13.35 L 17.29 14.99 L 13 14.99 C 12.72 14.99 12.5 15.22 12.5 15.49 C 12.5 15.77 12.72 15.99 13 15.99 L 17.29 15.99 L 15.64 17.64 C 15.45 17.84 15.45 18.15 15.64 18.35 C 15.84 18.54 16.15 18.54 16.35 18.35 L 18.85 15.85 C 18.9 15.79 18.94 15.73 18.97 15.67 C 18.98 15.62 19 15.56 19 15.5 L 19 15.49 C 19 15.42 18.98 15.34 18.95 15.28 C 18.93 15.25 18.91 15.22 18.89 15.19 C 18.88 15.17 18.86 15.15 18.85 15.14 Z"/>
  </symbol>
  <symbol id="mail" viewBox="0 0 20 20">
    <path d="M 20 6.61 L 20 14.75 C 20 16.48 18.64 17.9 16.93 17.99 L 16.75 18 L 3.25 18 C 1.52 18 0.1 16.64 0.01 14.93 L 0 14.75 L 0 6.61 L 9.65 11.66 C 9.87 11.78 10.13 11.78 10.35 11.66 L 20 6.61 Z M 3.25 2 L 16.75 2 C 18.43 2 19.82 3.28 19.98 4.92 L 10 10.15 L 0.02 4.92 C 0.17 3.34 1.46 2.1 3.06 2.01 L 3.25 2 L 16.75 2 L 3.25 2 Z"/>
  </symbol>
  <symbol id="menu" viewBox="0 0 20 20">
    <path d="M 1 15 L 19 15 C 19.55 15 20 15.45 20 16 C 20 16.51 19.61 16.94 19.12 16.99 L 19 17 L 1 17 C 0.45 17 0 16.55 0 16 C 0 15.49 0.39 15.06 0.88 15.01 L 1 15 L 19 15 L 1 15 Z M 1 9 L 19 9 C 19.55 9 20 9.45 20 10 C 20 10.51 19.61 10.93 19.12 10.99 L 19 11 L 1 11 C 0.45 11 0 10.55 0 10 C 0 9.49 0.39 9.06 0.88 9.01 L 1 9 L 19 9 L 1 9 Z M 1 3 L 19 3 C 19.55 3 20 3.45 20 4 C 20 4.51 19.61 4.94 19.12 4.99 L 19 5 L 1 5 C 0.45 5 0 4.55 0 4 C 0 3.49 0.39 3.06 0.88 3.01 L 1 3 L 19 3 L 1 3 Z"/>
  </symbol>
  <symbol id="note" viewBox="0 0 20 20">
    <path d="M 15.75 1 C 17.54 1 19 2.46 19 4.25 L 19 11 L 14.25 11 C 12.46 11 11 12.46 11 14.25 L 11 19 L 4.25 19 C 2.46 19 1 17.54 1 15.75 L 1 4.25 C 1 2.46 2.46 1 4.25 1 L 15.75 1 Z M 18.56 12.5 L 12.5 18.56 L 12.5 14.25 C 12.5 13.28 13.28 12.5 14.25 12.5 L 18.56 12.5 Z"/>
  </symbol>
  <symbol id="open" viewBox="0 0 20 20">
    <path d="M 5.25 2.5 L 8.75 2.5 C 9.16 2.5 9.5 2.84 9.5 3.25 C 9.5 3.63 9.22 3.94 8.85 3.99 L 8.75 4 L 5.25 4 C 4.07 4 3.1 4.91 3.01 6.06 L 3 6.22 L 3 14.75 C 3 15.94 3.93 16.92 5.1 16.99 L 5.25 17 L 13.75 16.99 C 14.94 16.99 15.91 16.06 15.99 14.89 L 16 14.74 L 16 11.23 C 16 10.82 16.33 10.48 16.75 10.48 C 17.13 10.48 17.44 10.76 17.49 11.13 L 17.5 11.23 L 17.5 14.74 C 17.5 16.74 15.93 18.38 13.95 18.48 L 13.75 18.49 L 5.26 18.5 L 5.05 18.49 C 3.14 18.4 1.61 16.86 1.51 14.95 L 1.5 14.75 L 1.5 6.25 L 1.5 6.05 C 1.6 4.14 3.14 2.6 5.05 2.51 L 5.25 2.5 L 8.75 2.5 L 5.25 2.5 Z M 12 1 L 18.05 1 L 18.15 1.01 L 18.23 1.03 L 18.34 1.06 L 18.46 1.11 L 18.51 1.14 C 18.77 1.3 18.96 1.57 18.99 1.88 L 19 2 L 19 8.01 C 19 8.56 18.55 9.01 18 9.01 C 17.49 9.01 17.06 8.62 17.01 8.12 L 17 8.01 L 17 4.41 L 10.71 10.71 C 10.35 11.07 9.78 11.1 9.39 10.79 L 9.29 10.71 C 8.93 10.35 8.9 9.78 9.21 9.39 L 9.29 9.29 L 15.58 3 L 12 3 C 11.49 3 11.07 2.61 11.01 2.12 L 11 2 C 11 1.45 11.45 1 12 1 Z"/>
  </symbol>
  <symbol id="paste" viewBox="0 0 20 20">
    <path d="M 10.75 0 C 11.91 0 12.86 0.87 12.99 2 L 14.75 2 C 15.94 2 16.92 2.92 16.99 4.09 L 17 4.25 C 17 4.63 16.72 4.94 16.35 4.99 L 16.25 5 C 15.87 5 15.56 4.71 15.51 4.35 L 15.5 4.25 C 15.5 3.87 15.22 3.55 14.85 3.5 L 14.75 3.5 L 12.62 3.5 C 12.21 4.1 11.53 4.49 10.75 4.49 L 7.25 4.49 C 6.47 4.49 5.79 4.1 5.38 3.5 L 3.25 3.5 C 2.87 3.5 2.56 3.78 2.51 4.15 L 2.5 4.25 L 2.5 17.75 C 2.5 18.13 2.78 18.45 3.15 18.5 L 3.25 18.5 L 6.25 18.5 C 6.63 18.5 6.94 18.78 6.99 19.15 L 7 19.25 C 7 19.67 6.66 20 6.25 20 L 3.25 20 C 2.06 20 1.08 19.08 1.01 17.91 L 1 17.75 L 1 4.25 C 1 3.06 1.93 2.08 3.1 2 L 3.25 2 L 5.01 2 C 5.14 0.87 6.09 0 7.25 0 L 10.75 0 Z M 16.75 6 C 17.94 6 18.92 6.92 18.99 8.09 L 19 8.25 L 19 17.75 C 19 18.94 18.07 19.91 16.9 19.99 L 16.75 20 L 10.25 20 C 9.06 20 8.08 19.07 8.01 17.9 L 8 17.75 L 8 8.25 C 8 7.06 8.93 6.08 10.1 6 L 10.25 6 L 16.75 6 Z M 10.75 1.5 L 7.25 1.5 C 6.83 1.5 6.5 1.83 6.5 2.24 C 6.5 2.66 6.83 2.99 7.25 2.99 L 10.75 2.99 C 11.17 2.99 11.5 2.66 11.5 2.24 C 11.5 1.83 11.17 1.5 10.75 1.5 Z"/>
  </symbol>
  <symbol id="person" viewBox="0 0 20 20">
    <path d="M 15.75 12 C 16.99 12 18 13 18 14.25 L 18 15.16 C 18 15.74 17.82 16.3 17.49 16.76 C 15.94 18.93 13.42 20 10 20 C 6.58 20 4.05 18.93 2.51 16.76 C 2.18 16.3 2 15.74 2 15.17 L 2 14.25 C 2 13 3.01 12 4.25 12 L 15.75 12 Z M 10 0 C 12.76 0 15 2.24 15 5 C 15 7.76 12.76 10 10 10 C 7.24 10 5 7.76 5 5 C 5 2.24 7.24 0 10 0 Z"/>
  </symbol>
  <symbol id="pin" viewBox="0 0 20 20">
    <path d="M 19.07 5.76 L 14.24 0.93 C 12.92 -0.39 10.68 -0.03 9.84 1.65 L 7.4 6.52 C 7.32 6.69 7.16 6.83 6.98 6.89 L 2.81 8.33 C 1.94 8.63 1.68 9.74 2.33 10.4 L 5.44 13.5 L 1 17.94 L 1 19 L 2.06 19 L 6.5 14.56 L 9.6 17.67 C 10.26 18.32 11.37 18.06 11.67 17.19 L 13.11 13.02 C 13.17 12.84 13.31 12.69 13.48 12.6 L 18.35 10.16 C 20.03 9.32 20.4 7.09 19.07 5.76 Z"/>
  </symbol>
  <symbol id="question" viewBox="0 0 20 20">
    <path d="M 15 7 C 15 8.18 14.7 9.08 14.19 9.79 C 13.7 10.47 13.06 10.92 12.57 11.26 L 12.51 11.29 C 12 11.64 11.66 11.88 11.4 12.2 C 11.18 12.47 11 12.84 11 13.5 L 11 14 C 11 14.55 10.55 15 10 15 C 9.45 15 9 14.55 9 14 L 9 13.5 C 9 12.4 9.32 11.58 9.85 10.93 C 10.3 10.39 10.87 9.99 11.32 9.69 L 11.43 9.61 C 11.94 9.26 12.3 8.99 12.56 8.62 C 12.8 8.29 13 7.81 13 7 C 13 5.34 11.66 4 10 4 C 8.34 4 7 5.34 7 7 C 7 7.55 6.55 8 6 8 C 5.45 8 5 7.55 5 7 C 5 4.23 7.24 2 10 2 C 12.76 2 15 4.23 15 7 Z M 8.75 18 C 8.75 17.31 9.31 16.75 10 16.75 C 10.69 16.75 11.25 17.31 11.25 18 C 11.25 18.69 10.69 19.25 10 19.25 C 9.31 19.25 8.75 18.69 8.75 18 Z"/>
  </symbol>
  <symbol id="refresh" viewBox="0 0 20 20">
    <path d="M 10 2.75 C 6 2.75 2.75 6 2.75 10 C 2.75 14 6 17.25 10 17.25 C 14 17.25 17.25 14 17.25 10 C 17.25 9.71 17.23 9.43 17.2 9.16 C 17.13 8.57 17.56 8 18.15 8 C 18.67 8 19.12 8.36 19.18 8.87 C 19.23 9.24 19.25 9.62 19.25 10 C 19.25 15.11 15.11 19.25 10 19.25 C 4.89 19.25 0.75 15.11 0.75 10 C 0.75 4.89 4.89 0.75 10 0.75 C 12.17 0.75 14.17 1.5 15.75 2.75 L 15.75 2.25 C 15.75 1.7 16.2 1.25 16.75 1.25 C 17.3 1.25 17.75 1.7 17.75 2.25 L 17.75 4.95 C 17.76 4.97 17.77 4.98 17.78 5 L 17.75 5 L 17.75 5.25 C 17.75 5.8 17.3 6.25 16.75 6.25 L 13.75 6.25 C 13.2 6.25 12.75 5.8 12.75 5.25 C 12.75 4.7 13.2 4.25 13.75 4.25 L 14.42 4.25 C 13.19 3.31 11.66 2.75 10 2.75 Z"/>
  </symbol>
  <symbol id="remove" viewBox="0 0 20 20">
    <path d="M 2 9 L 18 9 C 18.51 9 18.94 9.39 18.99 9.88 L 19 10 C 19 10.51 18.61 10.94 18.12 10.99 L 18 11 L 2 11 C 1.49 11 1.06 10.61 1.01 10.12 L 1 10 C 1 9.49 1.39 9.06 1.88 9.01 L 2 9 Z"/>
  </symbol>
  <symbol id="search" viewBox="0 0 20 20">
    <path d="M 8.25 0.75 C 12.39 0.75 15.75 4.11 15.75 8.25 C 15.75 9.96 15.18 11.54 14.21 12.8 L 18.96 17.54 C 19.35 17.93 19.35 18.57 18.96 18.96 C 18.6 19.32 18.03 19.35 17.64 19.04 L 17.54 18.96 L 12.8 14.21 C 11.54 15.18 9.96 15.75 8.25 15.75 C 4.11 15.75 0.75 12.39 0.75 8.25 C 0.75 4.11 4.11 0.75 8.25 0.75 Z M 8.25 2.75 C 5.21 2.75 2.75 5.21 2.75 8.25 C 2.75 11.29 5.21 13.75 8.25 13.75 C 11.29 13.75 13.75 11.29 13.75 8.25 C 13.75 5.21 11.29 2.75 8.25 2.75 Z"/>
  </symbol>
  <symbol id="send" viewBox="0 0 20 20">
    <path d="M 10.82 10.2 L 3.29 11.45 C 3.11 11.48 2.96 11.6 2.9 11.77 L 0.3 18.73 C 0.05 19.37 0.72 19.98 1.34 19.67 L 19.34 10.67 C 19.89 10.39 19.89 9.61 19.34 9.33 L 1.34 0.33 C 0.72 0.02 0.05 0.63 0.3 1.27 L 2.9 8.23 C 2.96 8.4 3.11 8.52 3.29 8.55 L 10.82 9.8 C 10.93 9.82 11 9.92 10.98 10.03 C 10.97 10.12 10.9 10.18 10.82 10.2 Z"/>
  </symbol>
  <symbol id="settings" viewBox="0 0 20 20">
    <path d="M 10.01 0.25 C 10.74 0.26 11.48 0.34 12.19 0.5 C 12.5 0.57 12.74 0.83 12.77 1.15 L 12.94 2.68 C 13.02 3.38 13.61 3.91 14.32 3.91 C 14.51 3.91 14.7 3.87 14.87 3.79 L 16.27 3.18 C 16.56 3.05 16.9 3.12 17.12 3.35 C 18.13 4.43 18.89 5.73 19.33 7.15 C 19.42 7.45 19.31 7.78 19.05 7.97 L 17.81 8.89 C 17.46 9.15 17.25 9.56 17.25 10 C 17.25 10.44 17.46 10.85 17.81 11.11 L 19.06 12.03 C 19.31 12.22 19.42 12.55 19.33 12.85 C 18.89 14.27 18.14 15.56 17.12 16.65 C 16.91 16.88 16.57 16.95 16.28 16.82 L 14.87 16.2 C 14.47 16.03 14.01 16.05 13.63 16.27 C 13.24 16.49 12.99 16.88 12.94 17.32 L 12.77 18.84 C 12.74 19.16 12.51 19.42 12.2 19.49 C 10.75 19.84 9.24 19.84 7.8 19.49 C 7.49 19.42 7.26 19.16 7.22 18.84 L 7.06 17.32 C 7.01 16.88 6.75 16.5 6.37 16.28 C 5.99 16.06 5.53 16.03 5.13 16.21 L 3.72 16.83 C 3.43 16.95 3.09 16.88 2.88 16.65 C 1.86 15.57 1.11 14.27 0.67 12.85 C 0.58 12.55 0.69 12.22 0.94 12.03 L 2.19 11.11 C 2.54 10.85 2.75 10.44 2.75 10 C 2.75 9.56 2.54 9.15 2.19 8.89 L 0.94 7.97 C 0.69 7.78 0.58 7.45 0.67 7.15 C 1.11 5.73 1.86 4.44 2.88 3.35 C 3.09 3.12 3.43 3.05 3.73 3.18 L 5.13 3.8 C 5.53 3.97 5.99 3.95 6.37 3.72 C 6.75 3.5 7.01 3.11 7.06 2.68 L 7.23 1.15 C 7.26 0.83 7.5 0.57 7.81 0.5 C 8.53 0.34 9.26 0.26 10.01 0.25 Z M 10 7 C 8.34 7 7 8.34 7 10 C 7 11.66 8.34 13 10 13 C 11.66 13 13 11.66 13 10 C 13 8.34 11.66 7 10 7 Z"/>
  </symbol>
  <symbol id="sort" viewBox="0 0 20 20">
    <path d="M 2 4 L 18 4 C 18.51 4 18.94 4.39 18.99 4.88 L 19 5 C 19 5.51 18.61 5.94 18.12 5.99 L 18 6 L 2 6 C 1.49 6 1.06 5.61 1.01 5.12 L 1 5 C 1 4.49 1.39 4.06 1.88 4.01 Z M 2 9 L 12 9 C 12.51 9 12.94 9.39 12.99 9.88 L 13 10 C 13 10.51 12.61 10.94 12.12 10.99 L 12 11 L 2 11 C 1.49 11 1.06 10.61 1.01 10.12 L 1 10 C 1 9.49 1.39 9.06 1.88 9.01 Z M 2 14 L 6 14 C 6.51 14 6.94 14.39 6.99 14.88 L 7 15 C 7 15.51 6.61 15.94 6.12 15.99 L 6 16 L 2 16 C 1.49 16 1.06 15.61 1.01 15.12 L 1 15 C 1 14.49 1.39 14.06 1.88 14.01 Z"/>
  </symbol>
  <symbol id="square" viewBox="0 0 20 20">
    <g transform="matrix(1, 0, 0, 1, -2, -2)">
      <path d="M3 6.25C3 4.45508 4.45507 3 6.25 3H17.75C19.5449 3 21 4.45507 21 6.25V17.75C21 19.5449 19.5449 21 17.75 21H6.25C4.45508 21 3 19.5449 3 17.75V6.25Z" style="fill: inherit;"/>
    </g>
  </symbol>
  <symbol id="toggle-off" viewBox="0 0 20 20">
    <path d="M 15 5 C 17.76 5 20 7.24 20 10 C 20 12.76 17.76 15 15 15 L 5 15 C 2.24 15 0 12.76 0 10 C 0 7.24 2.24 5 5 5 L 15 5 Z M 5.25 12.5 C 6.63 12.5 7.75 11.38 7.75 10 C 7.75 8.62 6.63 7.5 5.25 7.5 C 3.87 7.5 2.75 8.62 2.75 10 C 2.75 11.38 3.87 12.5 5.25 12.5 Z"/>
  </symbol>
  <symbol id="toggle-on" viewBox="0 0 20 20">
    <path d="M 5 5 C 2.24 5 0 7.24 0 10 C 0 12.76 2.24 15 5 15 L 15 15 C 17.76 15 20 12.76 20 10 C 20 7.24 17.76 5 15 5 L 5 5 Z M 14.75 12.5 C 13.37 12.5 12.25 11.38 12.25 10 C 12.25 8.62 13.37 7.5 14.75 7.5 C 16.13 7.5 17.25 8.62 17.25 10 C 17.25 11.38 16.13 12.5 14.75 12.5 Z"/>
  </symbol>
  <symbol id="wrench" viewBox="0 0 20 20">
    <path d="M 14.75 0 C 11.85 0 9.5 2.35 9.5 5.25 C 9.5 5.8 9.59 6.34 9.75 6.84 L 0.68 16.22 C -0.28 17.21 -0.18 18.82 0.9 19.68 C 1.84 20.43 3.21 20.35 4.05 19.48 L 13.01 10.2 C 13.56 10.4 14.14 10.5 14.75 10.5 C 17.65 10.5 20 8.15 20 5.25 C 20 4.75 19.93 4.26 19.8 3.8 C 19.72 3.54 19.52 3.35 19.26 3.28 C 19.01 3.21 18.73 3.29 18.55 3.47 L 15.36 6.66 L 13.3 4.6 L 16.46 1.44 C 16.65 1.25 16.73 0.97 16.66 0.71 C 16.59 0.46 16.39 0.25 16.13 0.18 C 15.69 0.06 15.23 0 14.75 0 Z"/>
  </symbol>
  <symbol id="vehicle-airplane" viewBox="0 0 20 20">
    <path d="M 19.99 9.95 C 19.99 11.05 19.1 11.94 18 11.94 C 17.98 11.94 17.96 11.94 17.94 11.94 L 13.2 11.8 L 9.75 18.94 C 9.47 19.51 8.89 19.88 8.25 19.88 C 7.74 19.88 7.32 19.46 7.32 18.95 C 7.32 18.92 7.33 18.88 7.33 18.84 L 8.19 11.65 L 4.43 11.54 L 3.94 12.88 C 3.75 13.39 3.27 13.73 2.73 13.73 C 2.23 13.73 1.82 13.32 1.82 12.83 L 1.83 11.35 L 1.01 11.18 C 0.43 11.06 0.01 10.54 0.01 9.95 C 0.01 9.35 0.43 8.83 1.01 8.71 L 1.83 8.54 L 1.82 7.07 C 1.82 6.61 2.17 6.23 2.61 6.17 L 2.73 6.16 C 3.27 6.16 3.75 6.5 3.94 7.01 L 4.43 8.35 L 8.18 8.24 L 7.33 1.16 C 7.33 1.14 7.33 1.12 7.33 1.1 L 7.32 1.05 C 7.32 0.54 7.74 0.12 8.25 0.12 C 8.83 0.12 9.37 0.43 9.67 0.92 L 9.75 1.06 L 13.15 8.1 L 17.94 7.96 C 19.04 7.92 19.96 8.79 19.99 9.89 L 19.99 9.95 Z"/>
  </symbol>
  <symbol id="vehicle-bicycle" viewBox="0 0 20 20">
    <path d="M 11 1 C 10.45 1 10 1.45 10 2 C 10 2.55 10.45 3 11 3 L 12.19 3 L 12.81 6 L 7 6 L 7 5 C 7 4.45 6.55 4 6 4 L 3 4 C 2.45 4 2 4.45 2 5 C 2 5.55 2.45 6 3 6 L 5 6 L 5 6.86 L 4.1 10.02 C 1.8 10.22 0 12.15 0 14.5 C 0 16.99 2.01 19 4.5 19 C 6.99 19 9 16.99 9 14.5 C 9 14.46 9 14.41 9 14.37 L 13.47 9.16 L 13.72 10.37 C 12.12 11.05 11 12.65 11 14.5 C 11 16.99 13.01 19 15.5 19 C 17.99 19 20 16.99 20 14.5 C 20 12.08 18.09 10.1 15.69 10 L 13.98 1.8 C 13.88 1.33 13.47 1 13 1 L 11 1 Z M 14.14 12.4 L 14.52 14.2 C 14.63 14.74 15.16 15.09 15.7 14.98 C 16.24 14.87 16.59 14.34 16.48 13.8 L 16.12 12.08 C 17.2 12.35 18 13.33 18 14.5 C 18 15.88 16.88 17 15.5 17 C 14.12 17 13 15.88 13 14.5 C 13 13.62 13.46 12.84 14.14 12.4 Z M 8.31 12.1 C 7.79 11.28 7.02 10.64 6.1 10.29 L 6.75 8 L 11.83 8 L 8.31 12.1 Z M 5.55 12.23 C 5.92 12.4 6.25 12.67 6.5 13 L 5.33 13 L 5.55 12.23 Z M 3.47 12.22 L 3.04 13.73 C 2.95 14.03 3.01 14.35 3.2 14.6 C 3.39 14.85 3.69 15 4 15 L 6.95 15 C 6.72 16.14 5.71 17 4.5 17 C 3.12 17 2 15.88 2 14.5 C 2 13.49 2.6 12.62 3.47 12.22 Z"/>
  </symbol>
  <symbol id="vehicle-boat" viewBox="0 0 20 20">
    <path d="M 6.75 0 C 6.34 0 6 0.34 6 0.75 L 6 3 L 3.75 3 C 3.34 3 3 3.34 3 3.75 L 3 8.51 L 1.54 9.05 C 1.34 9.12 1.18 9.27 1.1 9.47 C 1.02 9.66 1.03 9.88 1.12 10.07 L 3.45 15.09 C 3.62 15.03 3.79 15 3.97 15 C 4.75 14.99 5.44 15.49 5.67 16.23 C 5.67 16.24 5.68 16.24 5.68 16.26 C 5.69 16.29 5.72 16.35 5.75 16.42 C 5.82 16.57 5.92 16.77 6.06 16.95 C 6.33 17.32 6.62 17.5 7 17.5 C 7.38 17.5 7.67 17.32 7.94 16.95 C 8.08 16.77 8.18 16.57 8.25 16.42 C 8.28 16.35 8.31 16.29 8.32 16.26 C 8.32 16.25 8.33 16.24 8.33 16.23 C 8.55 15.5 9.23 15 10 15 C 10.76 15 11.44 15.5 11.67 16.23 C 11.67 16.23 11.67 16.24 11.68 16.26 C 11.69 16.29 11.71 16.35 11.75 16.42 C 11.82 16.57 11.92 16.77 12.06 16.95 C 12.33 17.32 12.62 17.5 13 17.5 C 13.38 17.5 13.67 17.32 13.94 16.95 C 14.08 16.77 14.18 16.57 14.25 16.42 C 14.29 16.35 14.31 16.29 14.32 16.26 C 14.33 16.24 14.33 16.23 14.33 16.23 C 14.56 15.49 15.25 14.99 16.03 15 C 16.24 15 16.44 15.04 16.62 15.11 L 19.09 10.08 C 19.19 9.89 19.19 9.67 19.11 9.47 C 19.03 9.27 18.87 9.12 18.67 9.05 L 17 8.45 L 17 3.75 C 17 3.34 16.66 3 16.25 3 L 14 3 L 14 0.75 C 14 0.34 13.66 0 13.25 0 L 6.75 0 Z M 12.5 3 L 7.5 3 L 7.5 1.5 L 12.5 1.5 L 12.5 3 Z M 15.5 4.5 L 15.5 7.92 L 11.1 6.35 C 10.39 6.09 9.61 6.1 8.89 6.36 L 4.5 7.97 L 4.5 4.5 L 15.5 4.5 Z"/>
    <path d="M 16.73 16.56 L 16.72 16.55 C 16.64 16.23 16.35 16.01 16.01 16 C 15.68 15.99 15.38 16.21 15.28 16.53 L 15.28 16.53 L 15.28 16.54 C 15.28 16.55 15.27 16.57 15.26 16.6 C 15.24 16.65 15.21 16.73 15.16 16.83 C 15.07 17.03 14.94 17.29 14.74 17.55 C 14.36 18.07 13.8 18.5 13 18.5 C 12.2 18.5 11.64 18.06 11.26 17.55 C 11.06 17.29 10.93 17.03 10.84 16.83 C 10.79 16.73 10.76 16.65 10.74 16.6 C 10.73 16.57 10.72 16.55 10.72 16.54 L 10.72 16.53 C 10.72 16.53 10.72 16.53 10.72 16.53 C 10.62 16.22 10.33 16 10 16 C 9.67 16 9.38 16.22 9.28 16.53 L 9.28 16.53 L 9.28 16.54 C 9.27 16.55 9.27 16.57 9.26 16.6 C 9.24 16.65 9.21 16.73 9.16 16.83 C 9.07 17.03 8.94 17.29 8.74 17.55 C 8.36 18.06 7.81 18.5 7 18.5 C 6.19 18.5 5.64 18.06 5.26 17.55 C 5.06 17.29 4.93 17.03 4.84 16.83 C 4.79 16.73 4.76 16.65 4.74 16.6 C 4.73 16.57 4.72 16.55 4.72 16.54 L 4.72 16.53 C 4.62 16.21 4.32 16 3.99 16 C 3.65 16.01 3.36 16.23 3.28 16.55 L 3.27 16.56 C 3.27 16.57 3.27 16.59 3.26 16.61 C 3.24 16.67 3.21 16.74 3.17 16.84 C 3.08 17.03 2.95 17.29 2.75 17.54 C 2.37 18.03 1.76 18.5 0.75 18.5 C 0.34 18.5 0 18.84 0 19.25 C 0 19.66 0.34 20 0.75 20 C 2.32 20 3.34 19.22 3.93 18.46 C 3.96 18.43 3.98 18.4 4 18.37 C 4.02 18.4 4.04 18.42 4.06 18.45 C 4.61 19.19 5.56 20 7 20 C 8.44 20 9.39 19.19 9.94 18.45 C 9.96 18.42 9.98 18.4 10 18.37 C 10.02 18.4 10.04 18.42 10.06 18.45 C 10.61 19.19 11.56 20 13 20 C 14.44 20 15.39 19.18 15.94 18.45 C 15.96 18.43 15.98 18.4 16 18.38 C 16.02 18.4 16.04 18.43 16.06 18.46 C 16.66 19.22 17.67 20 19.25 20 C 19.66 20 20 19.66 20 19.25 C 20 18.84 19.66 18.5 19.25 18.5 C 18.24 18.5 17.63 18.03 17.24 17.54 C 17.05 17.29 16.91 17.03 16.83 16.84 C 16.79 16.75 16.76 16.67 16.74 16.62 C 16.74 16.59 16.73 16.57 16.73 16.56 Z"/>
  </symbol>
  <symbol id="vehicle-bus" viewBox="0 0 20 20">
    <path d="M 11.26 3 C 11.68 3 12.01 3.34 12.01 3.75 C 12.01 4.17 11.68 4.5 11.26 4.5 L 8.76 4.5 C 8.35 4.5 8.01 4.17 8.01 3.75 C 8.01 3.34 8.35 3 8.76 3 Z M 2.01 3.75 C 2.01 1.68 3.69 0 5.76 0 L 14.26 0 C 16.33 0 18.01 1.68 18.01 3.75 L 18.01 7.5 L 19.24 7.5 C 19.65 7.5 19.99 7.84 19.99 8.25 C 19.99 8.67 19.65 9 19.24 9 L 18.01 9 L 18.01 17.75 C 18.01 18.72 17.23 19.5 16.26 19.5 L 14.76 19.5 C 13.8 19.5 13.01 18.72 13.01 17.75 L 13.01 16.5 L 7.01 16.5 L 7.01 17.75 C 7.01 18.72 6.23 19.5 5.26 19.5 L 3.76 19.5 C 2.8 19.5 2.01 18.72 2.01 17.75 L 2.01 9 L 0.76 9 C 0.35 9 0.01 8.67 0.01 8.25 C 0.01 7.84 0.35 7.5 0.76 7.5 L 2.01 7.5 Z M 14.51 16.5 L 14.51 17.75 C 14.51 17.89 14.62 18 14.76 18 L 16.26 18 C 16.4 18 16.51 17.89 16.51 17.75 L 16.51 16.5 Z M 3.51 16.5 L 3.51 17.75 C 3.51 17.89 3.62 18 3.76 18 L 5.26 18 C 5.4 18 5.51 17.89 5.51 17.75 L 5.51 16.5 Z M 5.76 1.5 C 4.52 1.5 3.51 2.51 3.51 3.75 L 3.51 10 L 16.51 10 L 16.51 3.75 C 16.51 2.51 15.5 1.5 14.26 1.5 Z M 7.01 13 C 7.01 12.45 6.56 12 6.01 12 C 5.46 12 5.01 12.45 5.01 13 C 5.01 13.56 5.46 14 6.01 14 C 6.56 14 7.01 13.56 7.01 13 Z M 14.01 14 C 14.56 14 15.01 13.56 15.01 13 C 15.01 12.45 14.56 12 14.01 12 C 13.46 12 13.01 12.45 13.01 13 C 13.01 13.56 13.46 14 14.01 14 Z"/>
  </symbol>
  <symbol id="vehicle-car" viewBox="0 0 20 20">
    <path d="M 13.8 1 C 15.29 1 16.59 2.02 16.95 3.46 L 17.33 5 L 18.25 5 C 18.63 5 18.94 5.28 18.99 5.65 L 19 5.75 C 19 6.13 18.72 6.45 18.35 6.49 L 18.25 6.5 L 17.71 6.5 L 17.92 7.33 C 18.57 7.72 19 8.44 19 9.25 L 19 17.75 C 19 18.71 18.22 19.5 17.25 19.5 L 15.75 19.5 C 14.78 19.5 14 18.71 14 17.75 L 14 16.5 L 6 16.5 L 6 17.75 C 6 18.71 5.22 19.5 4.25 19.5 L 2.75 19.5 C 1.78 19.5 1 18.71 1 17.75 L 1 9.25 C 1 8.44 1.43 7.72 2.08 7.33 L 2.29 6.5 L 1.75 6.5 C 1.37 6.5 1.05 6.22 1 5.85 L 1 5.75 C 1 5.37 1.28 5.06 1.65 5.01 L 1.75 5 L 2.66 5 L 3.05 3.46 C 3.41 2.02 4.71 1 6.2 1 L 13.8 1 Z M 4.5 16.5 L 2.5 16.5 L 2.5 17.75 C 2.5 17.89 2.61 18 2.75 18 L 4.25 18 C 4.39 18 4.5 17.89 4.5 17.75 L 4.5 16.5 Z M 17.5 16.5 L 15.5 16.5 L 15.5 17.75 C 15.5 17.89 15.61 18 15.75 18 L 17.25 18 C 17.39 18 17.5 17.89 17.5 17.75 L 17.5 16.5 Z M 11.75 12 L 8.25 12 L 8.15 12.01 C 7.78 12.06 7.5 12.37 7.5 12.75 C 7.5 13.13 7.78 13.45 8.15 13.49 L 8.25 13.5 L 11.75 13.5 L 11.85 13.49 C 12.22 13.45 12.5 13.13 12.5 12.75 C 12.5 12.34 12.16 12 11.75 12 Z M 15 10 C 14.45 10 14 10.45 14 11 C 14 11.55 14.45 12 15 12 C 15.55 12 16 11.55 16 11 C 16 10.45 15.55 10 15 10 Z M 5 10 C 4.45 10 4 10.45 4 11 C 4 11.55 4.45 12 5 12 C 5.55 12 6 11.55 6 11 C 6 10.45 5.55 10 5 10 Z M 13.8 2.5 L 6.2 2.5 C 5.4 2.5 4.7 3.05 4.5 3.83 L 3.71 7 L 16.29 7 L 15.49 3.83 C 15.3 3.05 14.6 2.5 13.8 2.5 Z"/>
  </symbol>
  <symbol id="visibility-visible" viewBox="0 0 20 20">
    <path d="M 9.99 7 C 12.2 7 13.99 8.79 13.99 11 C 13.99 13.21 12.2 15 9.99 15 C 7.79 15 5.99 13.21 5.99 11 C 5.99 8.79 7.79 7 9.99 7 Z M 9.99 3.5 C 14.61 3.5 18.59 6.65 19.7 11.06 C 19.8 11.46 19.55 11.87 19.15 11.97 C 18.75 12.07 18.34 11.83 18.24 11.42 C 17.3 7.67 13.92 5 9.99 5 C 6.07 5 2.69 7.68 1.75 11.43 C 1.65 11.83 1.24 12.07 0.84 11.97 C 0.44 11.87 0.19 11.47 0.29 11.07 C 1.4 6.65 5.38 3.5 9.99 3.5 Z"/>
  </symbol>
  <symbol id="visibility-hidden" viewBox="0 0 20 20">
    <path d="M 0.22 0.22 C -0.05 0.49 -0.07 0.9 0.15 1.2 L 0.22 1.28 L 4.25 5.31 C 2.33 6.66 0.9 8.68 0.3 11.06 C 0.2 11.47 0.44 11.87 0.84 11.97 C 1.25 12.07 1.65 11.83 1.75 11.43 C 2.28 9.31 3.59 7.54 5.33 6.39 L 7.14 8.2 C 6.44 8.93 6 9.91 6 11 C 6 13.21 7.79 15 10 15 C 11.09 15 12.08 14.57 12.8 13.86 L 18.72 19.78 C 19.01 20.07 19.49 20.07 19.78 19.78 C 20.05 19.51 20.07 19.1 19.85 18.8 L 19.78 18.72 L 13.67 12.61 L 13.67 12.6 L 6.72 5.66 L 6.72 5.66 L 5.59 4.53 L 1.28 0.22 C 0.99 -0.07 0.51 -0.07 0.22 0.22 Z M 10 3.5 C 9 3.5 8.03 3.65 7.11 3.93 L 8.35 5.16 C 8.88 5.06 9.44 5 10 5 C 13.92 5 17.31 7.68 18.25 11.43 C 18.35 11.84 18.75 12.08 19.16 11.98 C 19.56 11.88 19.8 11.47 19.7 11.07 C 18.6 6.65 14.62 3.5 10 3.5 Z M 10.19 7.01 L 14 10.81 C 13.89 8.75 12.25 7.11 10.19 7.01 Z"/>
  </symbol>
  <symbol id="text-align-center" viewBox="0 0 20 20">
    <path d="M 2 4 C 2 3.45 2.45 3 3 3 L 17 3 C 17.55 3 18 3.45 18 4 C 18 4.55 17.55 5 17 5 L 3 5 C 2.45 5 2 4.55 2 4 Z M 4 16 C 4 15.45 4.45 15 5 15 L 15 15 C 15.55 15 16 15.45 16 16 C 16 16.55 15.55 17 15 17 L 5 17 C 4.45 17 4 16.55 4 16 Z M 19 9 C 19.55 9 20 9.45 20 10 C 20 10.55 19.55 11 19 11 L 1 11 C 0.45 11 0 10.55 0 10 C 0 9.45 0.45 9 1 9 Z"/>
  </symbol>
  <symbol id="text-align-left" viewBox="0 0 20 20">
    <path d="M 0 4 C 0 3.45 0.45 3 1 3 L 16 3 C 16.55 3 17 3.45 17 4 C 17 4.55 16.55 5 16 5 L 1 5 C 0.45 5 0 4.55 0 4 Z M 0 16 C 0 15.45 0.45 15 1 15 L 12 15 C 12.55 15 13 15.45 13 16 C 13 16.55 12.55 17 12 17 L 1 17 C 0.45 17 0 16.55 0 16 Z M 19 9 C 19.55 9 20 9.45 20 10 C 20 10.55 19.55 11 19 11 L 1 11 C 0.45 11 0 10.55 0 10 C 0 9.45 0.45 9 1 9 Z"/>
  </symbol>
  <symbol id="text-align-right" viewBox="0 0 20 20">
    <path d="M 20 4 C 20 3.45 19.55 3 19 3 L 4 3 C 3.45 3 3 3.45 3 4 C 3 4.55 3.45 5 4 5 L 19 5 C 19.55 5 20 4.55 20 4 Z M 20 16 C 20 15.45 19.55 15 19 15 L 8 15 C 7.45 15 7 15.45 7 16 C 7 16.55 7.45 17 8 17 L 19 17 C 19.55 17 20 16.55 20 16 Z M 1 9 C 0.45 9 0 9.45 0 10 C 0 10.55 0.45 11 1 11 L 19 11 C 19.55 11 20 10.55 20 10 C 20 9.45 19.55 9 19 9 Z"/>
  </symbol>
  <symbol id="text-align-justify" viewBox="0 0 20 20">
    <path d="M 19 3 C 19.55 3 20 3.45 20 4 C 20 4.55 19.55 5 19 5 L 1 5 C 0.45 5 0 4.55 0 4 C 0 3.45 0.45 3 1 3 Z M 19 9 C 19.55 9 20 9.45 20 10 C 20 10.55 19.55 11 19 11 L 1 11 C 0.45 11 0 10.55 0 10 C 0 9.45 0.45 9 1 9 Z M 19 15 C 19.55 15 20 15.45 20 16 C 20 16.55 19.55 17 19 17 L 1 17 C 0.45 17 0 16.55 0 16 C 0 15.45 0.45 15 1 15 Z"/>
  </symbol>
  <symbol id="text-bold" viewBox="0 0 20 20">
    <path d="M 4 3.75 C 4 2.78 4.78 2 5.75 2 L 10.5 2 C 13.32 2 15.25 4.34 15.25 6.75 C 15.25 7.68 14.96 8.6 14.45 9.38 C 15.37 10.24 16 11.47 16 13 C 16 16.13 13.32 18 11 18 L 5.75 18 C 4.78 18 4 17.22 4 16.25 L 4 3.75 Z M 7.5 11.5 L 7.5 14.5 L 11 14.5 C 11.31 14.5 11.71 14.36 12.02 14.08 C 12.31 13.82 12.5 13.46 12.5 13 C 12.5 12.11 11.75 11.5 11 11.5 L 7.5 11.5 Z M 7.5 8 L 10.5 8 C 11.22 8 11.75 7.41 11.75 6.75 C 11.75 6.09 11.21 5.5 10.5 5.5 L 7.5 5.5 L 7.5 8 Z"/>
  </symbol>
  <symbol id="text-italic" viewBox="0 0 20 20">
    <path d="M 8.65 16.5 L 12.5 16.5 C 13.05 16.5 13.5 16.95 13.5 17.5 C 13.5 18.05 13.05 18.5 12.5 18.5 L 3 18.5 C 2.44 18.5 2 18.05 2 17.5 C 2 16.95 2.44 16.5 3 16.5 L 6.51 16.5 L 11.33 4 L 8 4 C 7.44 4 7 3.55 7 3 C 7 2.45 7.44 2 8 2 L 16.5 2 C 17.05 2 17.5 2.45 17.5 3 C 17.5 3.55 17.05 4 16.5 4 L 13.48 4 L 8.65 16.5 Z"/>
  </symbol>
  <symbol id="text-strikethrough" viewBox="0 0 20 20">
    <path d="M 11.85 9.5 L 17.5 9.5 C 18.05 9.5 18.5 9.95 18.5 10.5 C 18.5 11.05 18.05 11.5 17.5 11.5 L 15.11 11.5 C 15.77 12.27 16.11 13.17 16.11 14.18 C 16.11 17.11 12.83 19.1 9.08 18.66 C 6.75 18.39 5.11 17.44 4.25 15.83 C 3.99 15.34 4.04 14.81 4.5 14.5 C 4.96 14.18 5.76 14.4 6.02 14.89 C 6.55 15.88 7.62 16.48 9.31 16.67 C 11.9 16.97 14.11 15.76 14.11 14.18 C 14.11 13.08 13.56 12.24 12 11.5 L 3 11.5 C 2.45 11.5 2 11.05 2 10.5 C 2 9.95 2.45 9.5 3 9.5 L 11.81 9.5 C 11.83 9.5 11.83 9.5 11.85 9.5 Z M 4.99 7.69 C 4.88 7.54 4.78 7.37 4.69 7.18 C 4.39 6.59 4.22 5.97 4.25 5.35 C 4.41 2.39 7.19 0.64 10.86 1.06 C 13.12 1.33 14.85 2.15 16 3.55 C 16.35 3.98 16.28 4.6 15.85 4.95 C 15.42 5.3 14.8 5.28 14.45 4.85 C 13.64 3.86 12.38 3.25 10.63 3.05 C 8.06 2.75 6.25 3.77 6.25 5.37 C 6.25 6.09 6.49 6.59 7.02 7.18 C 7.24 7.44 7.66 7.71 8.28 8 L 5.19 8 C 5.08 7.83 5.01 7.73 4.99 7.69 Z"/>
  </symbol>
  <symbol id="text-underline" viewBox="0 0 20 20">
    <path d="M 4 2.5 C 4 1.95 4.45 1.5 5 1.5 C 5.55 1.5 6 1.95 6 2.5 L 6 8.5 C 6 11.96 7.32 13.5 10.25 13.5 C 13.18 13.5 14.5 11.96 14.5 8.5 L 14.5 2.5 C 14.5 1.95 14.95 1.5 15.5 1.5 C 16.05 1.5 16.5 1.95 16.5 2.5 L 16.5 8.5 C 16.5 13.04 14.32 15.5 10.25 15.5 C 6.17 15.5 4 13.04 4 8.5 L 4 2.5 Z M 5 19 C 4.45 19 4 18.55 4 18 C 4 17.45 4.45 17 5 17 L 15.5 17 C 16.05 17 16.5 17.45 16.5 18 C 16.5 18.55 16.05 19 15.5 19 L 5 19 Z"/>
  </symbol>
  <symbol id="tune" viewBox="0 0 20 20">
    <path d="M 6.75 11.5 C 8.29 11.5 9.57 12.57 9.91 14 L 19.25 14 C 19.66 14 20 14.34 20 14.75 C 20 15.13 19.72 15.44 19.35 15.49 L 19.25 15.5 L 9.91 15.5 C 9.57 16.93 8.29 18 6.75 18 C 5.21 18 3.93 16.93 3.59 15.5 L 0.75 15.5 C 0.34 15.5 0 15.16 0 14.75 C 0 14.37 0.28 14.06 0.65 14.01 L 0.75 14 L 3.59 14 C 3.93 12.57 5.21 11.5 6.75 11.5 Z M 13.25 2 C 14.79 2 16.07 3.07 16.41 4.5 L 19.25 4.5 C 19.66 4.5 20 4.84 20 5.25 C 20 5.63 19.72 5.94 19.35 5.99 L 19.25 6 L 16.41 6 C 16.07 7.43 14.79 8.5 13.25 8.5 C 11.71 8.5 10.43 7.43 10.09 6 L 0.75 6 C 0.34 6 0 5.66 0 5.25 C 0 4.87 0.28 4.56 0.65 4.51 L 0.75 4.5 L 10.09 4.5 C 10.43 3.07 11.71 2 13.25 2 Z"/>
  </symbol>
</svg>