<?xml version="1.0" encoding="utf-8"?>
<svg xmlns="http://www.w3.org/2000/svg" xmlns:bx="https://boxy-svg.com">
  <symbol id="add" viewBox="0 0 20 20">
    <path d="M 18 11 L 11 11 L 11 18 L 9 18 L 9 11 L 2 11 L 2 9 L 9 9 L 9 2 L 11 2 L 11 9 L 18 9 L 18 11 Z"/>
  </symbol>
  <symbol id="alert" viewBox="0 0 20 20">
    <path d="M 10 20 C 11.1 20 12 19.1 12 18 L 8 18 C 8 19.1 8.9 20 10 20 Z M 16 14 L 16 9 C 16 5.93 14.37 3.36 11.5 2.68 L 11.5 2 C 11.5 1.17 10.83 0.5 10 0.5 C 9.17 0.5 8.5 1.17 8.5 2 L 8.5 2.68 C 5.64 3.36 4 5.92 4 9 L 4 14 L 2 16 L 2 17 L 18 17 L 18 16 L 16 14 Z M 14 15 L 6 15 L 6 9 C 6 6.52 7.51 4.5 10 4.5 C 12.49 4.5 14 6.52 14 9 L 14 15 Z"/>
  </symbol>
  <symbol id="bars" viewBox="0 0 20 20">
    <path d="M 18.98 1 L 18.98 19 L 1.02 19 L 1.02 1 Z M 3.02 17 L 7.02 17 L 7.02 13.5 L 3.02 13.5 Z M 3.02 11.75 L 7.02 11.75 L 7.02 8.25 L 3.02 8.25 Z M 3.02 6.5 L 7.02 6.5 L 7.02 3 L 3.02 3 Z M 9.02 17 L 17.02 17 L 17.02 13.5 L 9.02 13.5 Z M 9.02 6.5 L 17.02 6.5 L 17.02 3 L 9.02 3 Z M 9.02 11.75 L 17.02 11.75 L 17.02 8.25 L 9.02 8.25 Z" style="fill: inherit;"/>
  </symbol>
  <symbol id="bookmark" viewBox="0 0 20 20">
    <path d="M 15 1 L 5 1 C 3.9 1 3 1.9 3 3 L 3 19 L 10 16 L 17 19 L 17 3 C 17 1.9 16.1 1 15 1 Z M 15 16 L 10 13.82 L 5 16 L 5 3 L 15 3 L 15 16 Z"/>
  </symbol>
  <symbol id="bug" viewBox="0 0 20 20">
    <path d="M 18 6 L 15.19 6 C 14.74 5.22 14.12 4.55 13.37 4.04 L 15 2.41 L 13.59 1 L 11.42 3.17 C 10.96 3.06 10.49 3 10 3 C 9.51 3 9.04 3.06 8.59 3.17 L 6.41 1 L 5 2.41 L 6.62 4.04 C 5.88 4.55 5.26 5.22 4.81 6 L 2 6 L 2 8 L 4.09 8 C 4.04 8.33 4 8.66 4 9 L 4 10 L 2 10 L 2 12 L 4 12 L 4 13 C 4 13.34 4.04 13.67 4.09 14 L 2 14 L 2 16 L 4.81 16 C 5.85 17.79 7.78 19 10 19 C 12.22 19 14.15 17.79 15.19 16 L 18 16 L 18 14 L 15.91 14 C 15.96 13.67 16 13.34 16 13 L 16 12 L 18 12 L 18 10 L 16 10 L 16 9 C 16 8.66 15.96 8.33 15.91 8 L 18 8 L 18 6 Z M 14 10 L 14 13 C 14 13.22 13.97 13.47 13.93 13.7 L 13.83 14.35 L 13.46 15 C 12.74 16.24 11.42 17 10 17 C 8.58 17 7.26 16.23 6.54 15 L 6.17 14.36 L 6.07 13.71 C 6.03 13.48 6 13.23 6 13 L 6 9 C 6 8.77 6.03 8.52 6.07 8.3 L 6.17 7.65 L 6.54 7 C 6.84 6.48 7.26 6.03 7.75 5.69 L 8.32 5.3 L 9.06 5.12 C 9.37 5.04 9.69 5 10 5 C 10.32 5 10.63 5.04 10.95 5.12 L 11.63 5.28 L 12.24 5.7 C 12.74 6.04 13.15 6.48 13.45 7.01 L 13.83 7.66 L 13.93 8.31 C 13.97 8.53 14 8.78 14 9 L 14 10 Z M 8 12 L 12 12 L 12 14 L 8 14 Z M 8 8 L 12 8 L 12 10 L 8 10 Z"/>
  </symbol>
  <symbol id="calendar" viewBox="0 0 20 20">
    <path d="M 17 1 L 16 1 L 16 -1 L 14 -1 L 14 1 L 6 1 L 6 -1 L 4 -1 L 4 1 L 3 1 C 1.89 1 1.01 1.9 1.01 3 L 1 17 C 1 18.1 1.89 19 3 19 L 17 19 C 18.1 19 19 18.1 19 17 L 19 3 C 19 1.9 18.1 1 17 1 Z M 17 17 L 3 17 L 3 7 L 17 7 L 17 17 Z M 17 5 L 3 5 L 3 3 L 17 3 L 17 5 Z M 10 10 L 15 10 L 15 15 L 10 15 Z"/>
  </symbol>
  <symbol id="chevron-left" viewBox="0 0 20 20">
    <path d="M 14.8 3.59 L 13.22 2 L 5.2 10 L 13.22 18 L 14.8 16.41 L 8.37 10 L 14.8 3.59 Z"/>
  </symbol>
  <symbol id="chevron-right" viewBox="0 0 20 20">
    <path d="M 5.2 3.59 L 6.78 2 L 14.8 10 L 6.78 18 L 5.2 16.41 L 11.63 10 L 5.2 3.59 Z"/>
  </symbol>
  <symbol id="circle" viewBox="0 0 20 20">
    <g transform="matrix(0.9, 0, 0, 0.9, -0.799998, -0.799996)">
      <g/>
      <g>
        <path d="M12,2C6.47,2,2,6.47,2,12c0,5.53,4.47,10,10,10s10-4.47,10-10C22,6.47,17.53,2,12,2z M12,20c-4.42,0-8-3.58-8-8 c0-4.42,3.58-8,8-8s8,3.58,8,8C20,16.42,16.42,20,12,20z" style="fill: inherit;"/>
      </g>
    </g>
  </symbol>
  <symbol id="clock" viewBox="0 0 20 20">
    <path d="M 20 10 C 20 15.52 15.52 20 9.99 20 C 4.47 20 0 15.52 0 10 C 0 4.48 4.47 0 9.99 0 C 15.52 0 20 4.48 20 10 Z M 18 10 C 18 5.58 14.42 2 10 2 C 5.58 2 2 5.58 2 10 C 2 14.42 5.58 18 10 18 C 14.42 18 18 14.42 18 10 Z M 10.5 10.25 L 15 12.92 L 14.25 14.15 L 9 11 L 9 5 L 10.5 5 Z"/>
  </symbol>
  <symbol id="close" viewBox="0 0 100 100" bx:pinned="true">
    <path d="M 90 18.06 L 81.94 10 L 50 41.94 L 18.06 10 L 10 18.06 L 41.94 50 L 10 81.94 L 18.06 90 L 50 58.06 L 81.94 90 L 90 81.94 L 58.06 50 L 90 18.06 Z" style="stroke-width: 9.89; fill: inherit;"/>
  </symbol>
  <symbol id="code" viewBox="0 0 20 20">
    <path d="M 7.4 14.6 L 2.8 10 L 7.4 5.4 L 6 4 L 0 10 L 6 16 L 7.4 14.6 Z M 12.6 14.6 L 17.2 10 L 12.6 5.4 L 14 4 L 20 10 L 14 16 L 12.6 14.6 Z"/>
  </symbol>
  <symbol id="color-palette" viewBox="0 0 20 20">
    <path d="M 10 20 C 4.49 20 0 15.51 0 10 C 0 4.49 4.49 0 10 0 C 15.51 0 20 4.04 20 9 C 20 12.31 17.31 15 14 15 L 12.23 15 C 11.95 15 11.73 15.22 11.73 15.5 C 11.73 15.62 11.78 15.73 11.86 15.83 C 12.27 16.3 12.5 16.89 12.5 17.5 C 12.5 18.88 11.38 20 10 20 Z M 10 2 C 5.59 2 2 5.59 2 10 C 2 14.41 5.59 18 10 18 C 10.28 18 10.5 17.78 10.5 17.5 C 10.5 17.34 10.42 17.22 10.36 17.15 C 9.95 16.69 9.73 16.1 9.73 15.5 C 9.73 14.12 10.85 13 12.23 13 L 14 13 C 16.21 13 18 11.21 18 9 C 18 5.14 14.41 2 10 2 Z M 6 9.5 C 6 10.33 5.33 11 4.5 11 C 3.67 11 3 10.33 3 9.5 C 3 8.67 3.67 8 4.5 8 C 5.33 8 6 8.67 6 9.5 Z M 9 5.5 C 9 6.33 8.33 7 7.5 7 C 6.67 7 6 6.33 6 5.5 C 6 4.67 6.67 4 7.5 4 C 8.33 4 9 4.67 9 5.5 Z M 14 5.5 C 14 6.33 13.33 7 12.5 7 C 11.67 7 11 6.33 11 5.5 C 11 4.67 11.67 4 12.5 4 C 13.33 4 14 4.67 14 5.5 Z M 17 9.5 C 17 10.33 16.33 11 15.5 11 C 14.67 11 14 10.33 14 9.5 C 14 8.67 14.67 8 15.5 8 C 16.33 8 17 8.67 17 9.5 Z"/>
  </symbol>
  <symbol id="comment" viewBox="0 0 20 20">
    <path d="M 13 2 L 13 9 L 3.17 9 L 2.58 9.59 L 2 10.17 L 2 2 L 13 2 M 14 0 L 1 0 C 0.45 0 0 0.45 0 1 L 0 15 L 4 11 L 14 11 C 14.55 11 15 10.55 15 10 L 15 1 C 15 0.45 14.55 0 14 0 Z M 19 4 L 17 4 L 17 13 L 4 13 L 4 15 C 4 15.55 4.45 16 5 16 L 16 16 L 20 20 L 20 5 C 20 4.45 19.55 4 19 4 Z"/>
  </symbol>
  <symbol id="copy" viewBox="0 0 20 20">
    <path d="M 14 -1 L 2 -1 C 0.9 -1 0 -0.1 0 1 L 0 15 L 2 15 L 2 1 L 14 1 L 14 -1 Z M 17 3 L 6 3 C 4.9 3 4 3.9 4 5 L 4 19 C 4 20.1 4.9 21 6 21 L 17 21 C 18.1 21 19 20.1 19 19 L 19 5 C 19 3.9 18.1 3 17 3 Z M 17 19 L 6 19 L 6 5 L 17 5 L 17 19 Z"/>
  </symbol>
  <symbol id="credit-card" viewBox="0 0 20 20">
    <path d="M 18 2 L 2 2 C 0.89 2 0.01 2.89 0.01 4 L 0 16 C 0 17.11 0.89 18 2 18 L 18 18 C 19.11 18 20 17.11 20 16 L 20 4 C 20 2.89 19.11 2 18 2 Z M 18 16 L 2 16 L 2 10 L 18 10 L 18 16 Z M 18 6 L 2 6 L 2 4 L 18 4 L 18 6 Z"/>
  </symbol>
  <symbol id="crop" viewBox="0 0 20 20">
    <path d="M 15 13 L 17 13 L 17 5 C 17 3.9 16.1 3 15 3 L 7 3 L 7 5 L 15 5 L 15 13 Z M 5 15 L 5 -1 L 3 -1 L 3 3 L -1 3 L -1 5 L 3 5 L 3 15 C 3 16.1 3.9 17 5 17 L 15 17 L 15 21 L 17 21 L 17 17 L 21 17 L 21 15 L 5 15 Z"/>
  </symbol>
  <symbol id="cut" viewBox="0 0 20 20">
    <path d="M 7.64 5.64 C 7.87 5.14 8 4.59 8 4 C 8 1.79 6.21 0 4 0 C 1.79 0 0 1.79 0 4 C 0 6.21 1.79 8 4 8 C 4.59 8 5.14 7.87 5.64 7.64 L 8 10 L 5.64 12.36 C 5.14 12.13 4.59 12 4 12 C 1.79 12 0 13.79 0 16 C 0 18.21 1.79 20 4 20 C 6.21 20 8 18.21 8 16 C 8 15.41 7.87 14.86 7.64 14.36 L 10 12 L 17 19 L 20 19 L 20 18 L 7.64 5.64 Z M 4 6 C 2.9 6 2 5.11 2 4 C 2 2.89 2.9 2 4 2 C 5.1 2 6 2.89 6 4 C 6 5.11 5.1 6 4 6 Z M 4 18 C 2.9 18 2 17.11 2 16 C 2 14.89 2.9 14 4 14 C 5.1 14 6 14.89 6 16 C 6 17.11 5.1 18 4 18 Z M 10 10.5 C 9.72 10.5 9.5 10.28 9.5 10 C 9.5 9.72 9.72 9.5 10 9.5 C 10.28 9.5 10.5 9.72 10.5 10 C 10.5 10.28 10.28 10.5 10 10.5 Z M 17 1 L 11 7 L 13 9 L 20 2 L 20 1 L 17 1 Z"/>
  </symbol>
  <symbol id="delete" viewBox="0 0 20 20">
    <path d="M 14 7 L 14 17 L 6 17 L 6 7 L 14 7 M 12.5 1 L 7.5 1 L 6.5 2 L 3 2 L 3 4 L 17 4 L 17 2 L 13.5 2 L 12.5 1 Z M 16 5 L 4 5 L 4 17 C 4 18.1 4.9 19 6 19 L 14 19 C 15.1 19 16 18.1 16 17 L 16 5 Z"/>
  </symbol>
  <symbol id="document" viewBox="0 0 100 100" bx:pinned="true">
    <path d="M 60 0 L 20 0 C 14.5 0 10.05 4.5 10.05 10 L 10 90 C 10 95.5 14.45 100 19.95 100 L 80 100 C 85.5 100 90 95.5 90 90 L 90 30 L 60 0 Z M 20 90 L 20 10 L 55 10 L 55 35 L 80 35 L 80 90 L 20 90 Z" style="fill: inherit;"/>
  </symbol>
  <symbol id="earth" viewBox="0 0 20 20">
    <path d="M 10 0 C 4.48 0 0 4.48 0 10 C 0 15.52 4.48 20 10 20 C 15.52 20 20 15.52 20 10 C 20 4.48 15.52 0 10 0 Z M 2 10 C 2 9.39 2.08 8.79 2.21 8.22 L 6.99 13 L 6.99 14 C 6.99 15.1 7.89 16 8.99 16 L 8.99 17.93 C 5.06 17.43 2 14.07 2 10 Z M 15.89 15.4 C 15.63 14.59 14.89 14 13.99 14 L 12.99 14 L 12.99 11 C 12.99 10.45 12.54 10 11.99 10 L 5.99 10 L 5.99 8 L 7.99 8 C 8.54 8 8.99 7.55 8.99 7 L 8.99 5 L 10.99 5 C 12.09 5 12.99 4.1 12.99 3 L 12.99 2.59 C 15.92 3.77 18 6.65 18 10 C 18 12.08 17.19 13.98 15.89 15.4 Z"/>
  </symbol>
  <symbol id="edit" viewBox="0 0 20 20">
    <path d="M 12.06 7.02 L 12.98 7.94 L 3.92 17 L 3 17 L 3 16.08 L 12.06 7.02 M 15.66 1 C 15.41 1 15.15 1.1 14.96 1.29 L 13.13 3.12 L 16.88 6.87 L 18.71 5.04 C 19.1 4.65 19.1 4.02 18.71 3.63 L 16.37 1.29 C 16.17 1.09 15.92 1 15.66 1 Z M 12.06 4.19 L 1 15.25 L 1 19 L 4.75 19 L 15.81 7.94 L 12.06 4.19 Z"/>
  </symbol>
  <symbol id="eye-dropper" viewBox="0 0 20 20">
    <path d="M 15.65 3.42 L 16.58 4.34 L 13.89 7.03 L 12.96 6.11 L 15.65 3.42 M 15.66 1 C 15.41 1 15.16 1.11 14.97 1.3 L 11.83 4.42 L 9.91 2.5 L 8.49 3.92 L 9.92 5.34 L 1 14.25 L 1 19 L 5.75 19 L 14.66 10.08 L 16.08 11.5 L 17.5 10.09 L 15.57 8.19 L 18.7 5.06 C 19.1 4.65 19.1 4.02 18.7 3.63 L 16.36 1.3 C 16.16 1.11 15.91 1 15.66 1 Z M 4.91 17 L 3 15.09 L 11.06 7.03 L 12.97 8.95 L 4.91 17 Z" style="fill: inherit;"/>
  </symbol>
  <symbol id="flag" viewBox="0 0 20 20">
    <path d="M 10.36 4 L 10.76 6 L 16 6 L 16 12 L 12.64 12 L 12.24 10 L 5 10 L 5 4 L 10.36 4 M 12 2 L 3 2 L 3 19 L 5 19 L 5 12 L 10.6 12 L 11 14 L 18 14 L 18 4 L 12.4 4 L 12 2 Z"/>
  </symbol>
  <symbol id="folder" viewBox="0 0 20 20">
    <path d="M 7.17 4 L 9.17 6 L 18 6 L 18 16 L 2 16 L 2 4 L 7.17 4 M 8 2 L 2 2 C 0.9 2 0.01 2.9 0.01 4 L 0 16 C 0 17.1 0.9 18 2 18 L 18 18 C 19.1 18 20 17.1 20 16 L 20 6 C 20 4.9 19.1 4 18 4 L 10 4 L 8 2 Z"/>
  </symbol>
  <symbol id="help" viewBox="0 0 20 20">
    <path d="M 9 16 L 11 16 L 11 14 L 9 14 L 9 16 Z M 10 0 C 4.48 0 0 4.48 0 10 C 0 15.52 4.48 20 10 20 C 15.52 20 20 15.52 20 10 C 20 4.48 15.52 0 10 0 Z M 10 18 C 5.59 18 2 14.41 2 10 C 2 5.59 5.59 2 10 2 C 14.41 2 18 5.59 18 10 C 18 14.41 14.41 18 10 18 Z M 10 4 C 7.79 4 6 5.79 6 8 L 8 8 C 8 6.9 8.9 6 10 6 C 11.1 6 12 6.9 12 8 C 12 10 9 9.75 9 13 L 11 13 C 11 10.75 14 10.5 14 8 C 14 5.79 12.21 4 10 4 Z"/>
  </symbol>
  <symbol id="history-redo" viewBox="0 0 20 20">
    <path d="M 9.5 6 C 12.15 6 14.55 6.99 16.4 8.6 L 20 5 L 20 14 L 11 14 L 14.62 10.38 C 13.23 9.22 11.46 8.5 9.5 8.5 C 5.96 8.5 2.95 10.81 1.9 14 L -0.47 13.22 C 0.92 9.03 4.85 6 9.5 6 Z"/>
  </symbol>
  <symbol id="history-undo" viewBox="0 0 20 20">
    <path d="M 10.5 6 C 7.85 6 5.45 6.99 3.6 8.6 L 0 5 L 0 14 L 9 14 L 5.38 10.38 C 6.77 9.22 8.54 8.5 10.5 8.5 C 14.04 8.5 17.05 10.81 18.1 14 L 20.47 13.22 C 19.08 9.03 15.15 6 10.5 6 Z"/>
  </symbol>
  <symbol id="home" viewBox="0 0 20 20">
    <path d="M 10 3.69 L 15 8.19 L 15 16 L 13 16 L 13 10 L 7 10 L 7 16 L 5 16 L 5 8.19 L 10 3.69 M 10 1 L 0 10 L 3 10 L 3 18 L 9 18 L 9 12 L 11 12 L 11 18 L 17 18 L 17 10 L 20 10 L 10 1 Z"/>
  </symbol>
  <symbol id="image" viewBox="0 0 20 20">
    <path d="M 17 3 L 17 17 L 3 17 L 3 3 L 17 3 M 17 1 L 3 1 C 1.9 1 1 1.9 1 3 L 1 17 C 1 18.1 1.9 19 3 19 L 17 19 C 18.1 19 19 18.1 19 17 L 19 3 C 19 1.9 18.1 1 17 1 Z M 12.14 9.86 L 9.14 13.73 L 7 11.14 L 4 15 L 16 15 L 12.14 9.86 Z"/>
  </symbol>
  <symbol id="info" viewBox="0 0 20 20">
    <path d="M 9 5 L 11 5 L 11 7 L 9 7 Z M 9 9 L 11 9 L 11 15 L 9 15 Z M 10 0 C 4.48 0 0 4.48 0 10 C 0 15.52 4.48 20 10 20 C 15.52 20 20 15.52 20 10 C 20 4.48 15.52 0 10 0 Z M 10 18 C 5.59 18 2 14.41 2 10 C 2 5.59 5.59 2 10 2 C 14.41 2 18 5.59 18 10 C 18 14.41 14.41 18 10 18 Z"/>
  </symbol>
  <symbol id="link" viewBox="0 0 20 20">
    <path d="M 1.9 10 C 1.9 8.3 3.3 7 5 7 L 9 7 L 9 5 L 5 5 C 1.2 5 -1.3 9.2 0.7 12.5 C 1.6 14 3.2 15 5 15 L 9 15 L 9 13 L 5 13 C 3.3 13 1.9 11.7 1.9 10 Z M 6 11 L 14 11 L 14 9 L 6 9 L 6 11 Z M 15 5 L 11 5 L 11 7 L 15 7 C 17.4 7 18.9 9.5 17.7 11.5 C 17.1 12.5 16.1 13 15 13 L 11 13 L 11 15 L 15 15 C 18.8 15 21.3 10.8 19.3 7.5 C 18.4 6 16.8 5 15 5 Z"/>
  </symbol>
  <symbol id="lock" viewBox="0 0 20 20">
    <path d="M 16 6 L 15 6 L 15 4 C 15 1.24 12.76 -1 10 -1 C 7.24 -1 5 1.24 5 4 L 5 6 L 4 6 C 2.9 6 2 6.9 2 8 L 2 18 C 2 19.1 2.9 20 4 20 L 16 20 C 17.1 20 18 19.1 18 18 L 18 8 C 18 6.9 17.1 6 16 6 Z M 7 4 C 7 2.34 8.34 1 10 1 C 11.66 1 13 2.34 13 4 L 13 6 L 7 6 L 7 4 Z M 16 18 L 4 18 L 4 8 L 16 8 L 16 18 Z M 10 15 C 11.1 15 12 14.1 12 13 C 12 11.9 11.1 11 10 11 C 8.9 11 8 11.9 8 13 C 8 14.1 8.9 15 10 15 Z"/>
  </symbol>
  <symbol id="logout" viewBox="0 0 20 20">
    <path d="M 15 5 L 13.6 6.4 L 16.2 9 L 6 9 L 6 11 L 16.2 11 L 13.6 13.6 L 15 15 L 20 10 Z M 2 3 L 10 3 L 10 1 L 2 1 C 0.9 1 0 1.9 0 3 L 0 17 C 0 18.1 0.9 19 2 19 L 10 19 L 10 17 L 2 17 L 2 3 Z"/>
  </symbol>
  <symbol id="mail" viewBox="0 0 20 20">
    <path d="M 20 4 C 20 2.9 19.1 2 18 2 L 2 2 C 0.9 2 0 2.9 0 4 L 0 16 C 0 17.1 0.9 18 2 18 L 18 18 C 19.1 18 20 17.1 20 16 L 20 4 Z M 18 4 L 10 9 L 2 4 L 18 4 Z M 18 16 L 2 16 L 2 6 L 10 11 L 18 6 L 18 16 Z"/>
  </symbol>
  <symbol id="menu" viewBox="0 0 20 20">
    <path d="M 1 16 L 19 16 L 19 14 L 1 14 L 1 16 Z M 1 11 L 19 11 L 19 9 L 1 9 L 1 11 Z M 1 4 L 1 6 L 19 6 L 19 4 L 1 4 Z"/>
  </symbol>
  <symbol id="note" viewBox="0 0 20 20">
    <path d="M 14 2 L 2 2 C 0.9 2 0 2.9 0 4 L 0 16.01 C 0 17.11 0.9 18 2 18 L 18 18 C 19.1 18 20 17.1 20 16 L 20 8 L 14 2 Z M 2 16.01 L 2 4 L 13 4 L 13 9 L 18 9 L 18 16.01 L 2 16.01 Z"/>
  </symbol>
  <symbol id="open" viewBox="0 0 20 20">
    <path d="M 17 17 L 3 17 L 3 3 L 10 3 L 10 1 L 3 1 C 1.89 1 1 1.9 1 3 L 1 17 C 1 18.1 1.89 19 3 19 L 17 19 C 18.1 19 19 18.1 19 17 L 19 10 L 17 10 L 17 17 Z M 12 1 L 12 3 L 15.59 3 L 5.76 12.83 L 7.17 14.24 L 17 4.41 L 17 8 L 19 8 L 19 1 L 12 1 Z"/>
  </symbol>
  <symbol id="paste" viewBox="0 0 20 20">
    <path d="M 17 0 L 12.82 0 C 12.4 -1.16 11.3 -2 10 -2 C 8.7 -2 7.6 -1.16 7.18 0 L 3 0 C 1.9 0 1 0.9 1 2 L 1 18 C 1 19.1 1.9 20 3 20 L 17 20 C 18.1 20 19 19.1 19 18 L 19 2 C 19 0.9 18.1 0 17 0 Z M 10 0 C 10.55 0 11 0.45 11 1 C 11 1.55 10.55 2 10 2 C 9.45 2 9 1.55 9 1 C 9 0.45 9.45 0 10 0 Z M 17 18 L 3 18 L 3 2 L 5 2 L 5 5 L 15 5 L 15 2 L 17 2 L 17 18 Z"/>
  </symbol>
  <symbol id="person" viewBox="0 0 20 20">
    <path d="M 10 4 C 11.1 4 12 4.9 12 6 C 12 7.1 11.1 8 10 8 C 8.9 8 8 7.1 8 6 C 8 4.9 8.9 4 10 4 M 10 14 C 12.7 14 15.8 15.29 16 16 L 4 16 C 4.23 15.28 7.31 14 10 14 M 10 2 C 7.79 2 6 3.79 6 6 C 6 8.21 7.79 10 10 10 C 12.21 10 14 8.21 14 6 C 14 3.79 12.21 2 10 2 Z M 10 12 C 7.33 12 2 13.34 2 16 L 2 18 L 18 18 L 18 16 C 18 13.34 12.67 12 10 12 Z"/>
  </symbol>
  <symbol id="pin" viewBox="0 0 20 20">
    <path d="M 12 2 L 12 7 C 12 8.12 12.37 9.16 13 10 L 7 10 C 7.65 9.14 8 8.1 8 7 L 8 2 L 12 2 M 15 0 L 5 0 C 4.45 0 4 0.45 4 1 C 4 1.55 4.45 2 5 2 C 5 2 5 2 5 2 L 6 2 L 6 7 C 6 8.66 4.66 10 3 10 L 3 12 L 8.97 12 L 8.97 19 L 9.97 20 L 10.97 19 L 10.97 12 L 17 12 L 17 10 C 17 10 17 10 17 10 C 15.34 10 14 8.66 14 7 L 14 2 L 15 2 C 15 2 15 2 15 2 C 15.55 2 16 1.55 16 1 C 16 0.45 15.55 0 15 0 L 15 0 Z"/>
  </symbol>
  <symbol id="question" viewBox="0 0 20 20">
    <path d="M 8.2 20.8 L 11.8 20.8 L 11.8 17.2 L 8.2 17.2 L 8.2 20.8 Z M 10 -0.7 C 6 -0.7 2.8 2.5 2.8 6.4 L 6.4 6.4 C 6.4 4.4 8 2.8 10 2.8 C 12 2.8 13.6 4.4 13.6 6.4 C 13.6 10 8.2 9.6 8.2 15.4 L 11.8 15.4 C 11.8 11.3 17.2 10.9 17.2 6.4 C 17.2 2.5 14 -0.7 10 -0.7 Z"/>
  </symbol>
  <symbol id="refresh" viewBox="0 0 20 20">
    <path d="M 15.65 4.35 C 14.2 2.9 12.21 2 10 2 C 5.58 2 2.01 5.58 2.01 10 C 2.01 14.42 5.58 18 10 18 C 13.73 18 16.84 15.45 17.73 12 L 15.65 12 C 14.83 14.33 12.61 16 10 16 C 6.69 16 4 13.31 4 10 C 4 6.69 6.69 4 10 4 C 11.66 4 13.14 4.69 14.22 5.78 L 11 9 L 18 9 L 18 2 L 15.65 4.35 Z"/>
  </symbol>
  <symbol id="remove" viewBox="0 0 20 20">
    <path d="M 18 11 L 2 11 L 2 9 L 18 9 L 18 11 Z"/>
  </symbol>
  <symbol id="search" viewBox="0 0 20 20">
    <path d="M 13.5 12 L 12.71 12 L 12.43 11.73 C 13.41 10.59 14 9.11 14 7.5 C 14 3.91 11.09 1 7.5 1 C 3.91 1 1 3.91 1 7.5 C 1 11.09 3.91 14 7.5 14 C 9.11 14 10.59 13.41 11.73 12.43 L 12 12.71 L 12 13.5 L 17 18.49 L 18.49 17 L 13.5 12 Z M 7.5 12 C 5.01 12 3 9.99 3 7.5 C 3 5.01 5.01 3 7.5 3 C 9.99 3 12 5.01 12 7.5 C 12 9.99 9.99 12 7.5 12 Z"/>
  </symbol>
  <symbol id="send" viewBox="0 0 20 20">
    <path d="M 2.01 4.03 L 9.52 7.25 L 2 6.25 L 2.01 4.03 M 9.51 12.75 L 2 15.97 L 2 13.75 L 9.51 12.75 M 0.01 1 L 0 8 L 15 10 L 0 12 L 0.01 19 L 21 10 L 0.01 1 Z"/>
  </symbol>
  <symbol id="settings" viewBox="0 0 20 20">
    <path d="M 17.43 10.98 C 17.47 10.66 17.5 10.34 17.5 10 C 17.5 9.66 17.47 9.34 17.43 9.02 L 19.54 7.37 C 19.73 7.22 19.78 6.95 19.66 6.73 L 17.66 3.27 C 17.57 3.11 17.4 3.02 17.22 3.02 C 17.16 3.02 17.1 3.03 17.05 3.05 L 14.56 4.05 C 14.04 3.65 13.48 3.32 12.87 3.07 L 12.49 0.42 C 12.46 0.18 12.25 0 12 0 L 8 0 C 7.75 0 7.54 0.18 7.51 0.42 L 7.13 3.07 C 6.52 3.32 5.96 3.66 5.44 4.05 L 2.95 3.05 C 2.89 3.03 2.83 3.02 2.77 3.02 C 2.6 3.02 2.43 3.11 2.34 3.27 L 0.34 6.73 C 0.21 6.95 0.27 7.22 0.46 7.37 L 2.57 9.02 C 2.53 9.34 2.5 9.67 2.5 10 C 2.5 10.33 2.53 10.66 2.57 10.98 L 0.46 12.63 C 0.27 12.78 0.22 13.05 0.34 13.27 L 2.34 16.73 C 2.43 16.89 2.6 16.98 2.78 16.98 C 2.84 16.98 2.9 16.97 2.95 16.95 L 5.44 15.95 C 5.96 16.35 6.52 16.68 7.13 16.93 L 7.51 19.58 C 7.54 19.82 7.75 20 8 20 L 12 20 C 12.25 20 12.46 19.82 12.49 19.58 L 12.87 16.93 C 13.48 16.68 14.04 16.34 14.56 15.95 L 17.05 16.95 C 17.11 16.97 17.17 16.98 17.23 16.98 C 17.4 16.98 17.57 16.89 17.66 16.73 L 19.66 13.27 C 19.78 13.05 19.73 12.78 19.54 12.63 L 17.43 10.98 Z M 15.45 9.27 C 15.49 9.58 15.5 9.79 15.5 10 C 15.5 10.21 15.48 10.43 15.45 10.73 L 15.31 11.86 L 16.2 12.56 L 17.28 13.4 L 16.58 14.61 L 15.31 14.1 L 14.27 13.68 L 13.37 14.36 C 12.94 14.68 12.53 14.92 12.12 15.09 L 11.06 15.52 L 10.9 16.65 L 10.7 18 L 9.3 18 L 9.11 16.65 L 8.95 15.52 L 7.89 15.09 C 7.46 14.91 7.06 14.68 6.66 14.38 L 5.75 13.68 L 4.69 14.11 L 3.42 14.62 L 2.72 13.41 L 3.8 12.57 L 4.69 11.87 L 4.55 10.74 C 4.52 10.43 4.5 10.2 4.5 10 C 4.5 9.8 4.52 9.57 4.55 9.27 L 4.69 8.14 L 3.8 7.44 L 2.72 6.6 L 3.42 5.39 L 4.69 5.9 L 5.73 6.32 L 6.63 5.64 C 7.06 5.32 7.47 5.08 7.88 4.91 L 8.94 4.48 L 9.1 3.35 L 9.3 2 L 10.69 2 L 10.88 3.35 L 11.04 4.48 L 12.1 4.91 C 12.53 5.09 12.93 5.32 13.33 5.62 L 14.24 6.32 L 15.3 5.89 L 16.57 5.38 L 17.27 6.59 L 16.2 7.44 L 15.31 8.14 L 15.45 9.27 Z M 10 6 C 7.79 6 6 7.79 6 10 C 6 12.21 7.79 14 10 14 C 12.21 14 14 12.21 14 10 C 14 7.79 12.21 6 10 6 Z M 10 12 C 8.9 12 8 11.1 8 10 C 8 8.9 8.9 8 10 8 C 11.1 8 12 8.9 12 10 C 12 11.1 11.1 12 10 12 Z"/>
  </symbol>
  <symbol id="sort" viewBox="0 0 20 20">
    <path d="M 1 16 L 7 16 L 7 14 L 1 14 L 1 16 Z M 1 4 L 1 6 L 19 6 L 19 4 L 1 4 Z M 1 11 L 13 11 L 13 9 L 1 9 L 1 11 Z"/>
  </symbol>
  <symbol id="square" viewBox="0 0 20 20">
    <g transform="matrix(1, 0, 0, 1, -2.000001, -1.999998)">
      <g/>
      <g>
        <g>
          <path d="M3,3v18h18V3H3z M19,19H5V5h14V19z" style="fill: inherit;"/>
        </g>
      </g>
    </g>
  </symbol>
  <symbol id="toggle-off" viewBox="0 0 20 20">
    <path d="M 15 4 L 5 4 C 1.69 4 -1 6.69 -1 10 C -1 13.31 1.69 16 5 16 L 15 16 C 18.31 16 21 13.31 21 10 C 21 6.69 18.31 4 15 4 Z M 15 14 L 5 14 C 2.79 14 1 12.21 1 10 C 1 7.79 2.79 6 5 6 L 15 6 C 17.21 6 19 7.79 19 10 C 19 12.21 17.21 14 15 14 Z M 5 7 C 3.34 7 2 8.34 2 10 C 2 11.66 3.34 13 5 13 C 6.66 13 8 11.66 8 10 C 8 8.34 6.66 7 5 7 Z"/>
  </symbol>
  <symbol id="toggle-on" viewBox="0 0 20 20">
    <path d="M 15 4 L 5 4 C 1.69 4 -1 6.69 -1 10 C -1 13.31 1.69 16 5 16 L 15 16 C 18.31 16 21 13.31 21 10 C 21 6.69 18.31 4 15 4 Z M 15 14 L 5 14 C 2.79 14 1 12.21 1 10 C 1 7.79 2.79 6 5 6 L 15 6 C 17.21 6 19 7.79 19 10 C 19 12.21 17.21 14 15 14 Z M 15 7 C 13.34 7 12 8.34 12 10 C 12 11.66 13.34 13 15 13 C 16.66 13 18 11.66 18 10 C 18 8.34 16.66 7 15 7 Z"/>
  </symbol>
  <symbol id="wrench" viewBox="0 0 20 20">
    <path d="M 20.66 16.99 L 11.58 7.91 C 12.51 5.57 12.03 2.81 10.14 0.91 C 7.84 -1.39 4.26 -1.6 1.71 0.26 L 5.55 4.11 L 4.13 5.52 L 0.3 1.69 C -1.56 4.23 -1.35 7.82 0.95 10.11 C 2.81 11.97 5.52 12.46 7.84 11.59 L 16.95 20.7 C 17.34 21.09 17.97 21.09 18.36 20.7 L 20.66 18.4 C 21.06 18.02 21.06 17.39 20.66 16.99 Z M 17.66 18.59 L 8.2 9.13 C 7.59 9.58 6.91 9.85 6.2 9.95 C 4.84 10.15 3.41 9.74 2.37 8.7 C 1.42 7.76 0.98 6.5 1.05 5.26 L 4.14 8.35 L 8.38 4.11 L 5.29 1.02 C 6.53 0.95 7.78 1.39 8.73 2.33 C 9.81 3.41 10.22 4.9 9.97 6.29 C 9.85 7 9.55 7.66 9.09 8.25 L 18.54 17.7 L 17.66 18.59 Z"/>
  </symbol>
  <symbol id="vehicle-airplane" viewBox="0 0 20 20">
    <path d="M 19.5 14 L 19.5 12 L 11.5 7 L 11.5 1.5 C 11.5 0.67 10.83 0 10 0 C 9.17 0 8.5 0.67 8.5 1.5 L 8.5 7 L 0.5 12 L 0.5 14 L 8.5 11.5 L 8.5 17 L 6.5 18.5 L 6.5 20 L 10 19 L 13.5 20 L 13.5 18.5 L 11.5 17 L 11.5 11.5 L 19.5 14 Z"/>
  </symbol>
  <symbol id="vehicle-bicycle" viewBox="0 0 20 20">
    <path d="M 13.5 3.5 C 14.6 3.5 15.5 2.6 15.5 1.5 C 15.5 0.4 14.6 -0.5 13.5 -0.5 C 12.4 -0.5 11.5 0.4 11.5 1.5 C 11.5 2.6 12.4 3.5 13.5 3.5 Z M 3 10 C 0.2 10 -2 12.2 -2 15 C -2 17.8 0.2 20 3 20 C 5.8 20 8 17.8 8 15 C 8 12.2 5.8 10 3 10 Z M 3 18.5 C 1.1 18.5 -0.5 16.9 -0.5 15 C -0.5 13.1 1.1 11.5 3 11.5 C 4.9 11.5 6.5 13.1 6.5 15 C 6.5 16.9 4.9 18.5 3 18.5 Z M 8.8 8.5 L 11.2 6.1 L 12 6.9 C 13.3 8.2 15 9 17.1 9 L 17.1 7 C 15.6 7 14.4 6.4 13.5 5.5 L 11.6 3.6 C 11.1 3.2 10.6 3 10 3 C 9.4 3 8.9 3.2 8.6 3.6 L 5.8 6.4 C 5.4 6.8 5.2 7.3 5.2 7.8 C 5.2 8.4 5.4 8.9 5.8 9.2 L 9 12 L 9 17 L 11 17 L 11 10.8 L 8.8 8.5 Z M 17 10 C 14.2 10 12 12.2 12 15 C 12 17.8 14.2 20 17 20 C 19.8 20 22 17.8 22 15 C 22 12.2 19.8 10 17 10 Z M 17 18.5 C 15.1 18.5 13.5 16.9 13.5 15 C 13.5 13.1 15.1 11.5 17 11.5 C 18.9 11.5 20.5 13.1 20.5 15 C 20.5 16.9 18.9 18.5 17 18.5 Z"/>
  </symbol>
  <symbol id="vehicle-boat" viewBox="0 0 20 20">
    <path d="M 11 1 L 11 2 L 9 2 L 9 1 L 11 1 M 10 8.11 L 15.38 9.88 L 17.77 10.66 L 16.65 14.63 C 16.11 14.33 15.71 13.92 15.51 13.69 L 14 11.96 L 12.49 13.68 C 12.15 14.08 11.21 15 10 15 C 8.79 15 7.85 14.08 7.51 13.68 L 6 11.96 L 4.49 13.68 C 4.29 13.91 3.89 14.31 3.35 14.61 L 2.22 10.65 L 4.62 9.86 L 10 8.11 M 13 -1 L 7 -1 L 7 2 L 4 2 C 2.9 2 2 2.9 2 4 L 2 8.62 L 0.71 9.04 C 0.45 9.12 0.23 9.3 0.11 9.54 C -0.01 9.78 -0.04 10.06 0.05 10.32 L 1.95 17 L 2 17 C 3.6 17 5.02 16.12 6 15 C 6.98 16.12 8.4 17 10 17 C 11.6 17 13.02 16.12 14 15 C 14.98 16.12 16.4 17 18 17 L 18.05 17 L 19.94 10.32 C 20.02 10.06 20 9.78 19.88 9.54 C 19.76 9.3 19.54 9.12 19.28 9.04 L 18 8.62 L 18 4 C 18 2.9 17.1 2 16 2 L 13 2 L 13 -1 Z M 4 7.97 L 4 4 L 16 4 L 16 7.97 L 10 6 L 4 7.97 Z M 14 17.68 C 12.78 18.53 11.39 18.96 10 18.96 C 8.61 18.96 7.22 18.53 6 17.68 C 4.78 18.53 3.39 19 2 19 L 0 19 L 0 21 L 2 21 C 3.38 21 4.74 20.65 6 20.01 C 7.26 20.65 8.63 20.98 10 20.98 C 11.37 20.98 12.74 20.66 14 20.01 C 15.26 20.66 16.62 21 18 21 L 20 21 L 20 19 L 18 19 C 16.61 19 15.22 18.53 14 17.68 Z"/>
  </symbol>
  <symbol id="vehicle-bus" viewBox="0 0 20 20">
    <path d="M 18 4 L 18 14 C 18 14.88 17.61 15.67 17 16.22 L 17 18 C 17 18.55 16.55 19 16 19 L 15 19 C 14.45 19 14 18.55 14 18 L 14 17 L 6 17 L 6 18 C 6 18.55 5.55 19 5 19 L 4 19 C 3.45 19 3 18.55 3 18 L 3 16.22 C 2.39 15.67 2 14.88 2 14 L 2 4 C 2 0.5 5.58 0 10 0 C 14.42 0 18 0.5 18 4 Z M 10 2 C 6.31 2 4.89 2.46 4.34 2.99 L 15.66 2.99 C 15.11 2.46 13.69 2 10 2 Z M 4 4.99 L 4 8 L 16 8 L 16 4.99 Z M 16 14 L 16 10 L 4 10 L 4 14 C 4 14.37 4.21 14.62 4.34 14.73 L 4.63 15 L 15.37 15 L 15.66 14.73 C 15.79 14.62 16 14.37 16 14 Z M 8 12.5 C 8 13.33 7.33 14 6.5 14 C 5.67 14 5 13.33 5 12.5 C 5 11.67 5.67 11 6.5 11 C 7.33 11 8 11.67 8 12.5 Z M 15 12.5 C 15 13.33 14.33 14 13.5 14 C 12.67 14 12 13.33 12 12.5 C 12 11.67 12.67 11 13.5 11 C 14.33 11 15 11.67 15 12.5 Z"/>
  </symbol>
  <symbol id="vehicle-car" viewBox="0 0 20 20">
    <path d="M 19 10 L 19 18 C 19 18.55 18.55 19 18 19 L 17 19 C 16.45 19 16 18.55 16 18 L 16 17 L 4 17 L 4 18 C 4 18.55 3.55 19 3 19 L 2 19 C 1.45 19 1 18.55 1 18 L 1 10 L 3.08 4.01 C 3.29 3.42 3.84 3 4.5 3 L 15.5 3 C 16.16 3 16.72 3.42 16.92 4.01 Z M 3.77 8.11 L 16.22 8.11 L 15.14 5 L 4.85 5 Z M 17 10 L 3 10 L 3 15 L 17 15 Z M 7 12.5 C 7 13.33 6.33 14 5.5 14 C 4.67 14 4 13.33 4 12.5 C 4 11.67 4.67 11 5.5 11 C 6.33 11 7 11.67 7 12.5 Z M 16 12.5 C 16 13.33 15.33 14 14.5 14 C 13.67 14 13 13.33 13 12.5 C 13 11.67 13.67 11 14.5 11 C 15.33 11 16 11.67 16 12.5 Z"/>
  </symbol>
  <symbol id="visibility-visible" viewBox="0 0 20 20">
    <path d="M 10 4.5 C 13.79 4.5 17.17 6.63 18.82 10 C 17.17 13.37 13.79 15.5 10 15.5 C 6.21 15.5 2.83 13.37 1.18 10 C 2.83 6.63 6.21 4.5 10 4.5 M 10 2.5 C 5 2.5 0.73 5.61 -1 10 C 0.73 14.39 5 17.5 10 17.5 C 15 17.5 19.27 14.39 21 10 C 19.27 5.61 15 2.5 10 2.5 Z M 10 7.5 C 11.38 7.5 12.5 8.62 12.5 10 C 12.5 11.38 11.38 12.5 10 12.5 C 8.62 12.5 7.5 11.38 7.5 10 C 7.5 8.62 8.62 7.5 10 7.5 M 10 5.5 C 7.52 5.5 5.5 7.52 5.5 10 C 5.5 12.48 7.52 14.5 10 14.5 C 12.48 14.5 14.5 12.48 14.5 10 C 14.5 7.52 12.48 5.5 10 5.5 Z"/>
  </symbol>
  <symbol id="visibility-hidden" viewBox="0 0 20 20">
    <path d="M 10 4.49 C 13.79 4.49 17.17 6.62 18.82 9.99 C 18.23 11.21 17.4 12.26 16.41 13.11 L 17.82 14.52 C 19.21 13.29 20.31 11.75 21 9.99 C 19.27 5.6 15 2.49 10 2.49 C 8.73 2.49 7.51 2.69 6.36 3.06 L 8.01 4.71 C 8.66 4.58 9.32 4.49 10 4.49 Z M 8.93 5.63 L 11 7.7 C 11.57 7.95 12.03 8.41 12.28 8.98 L 14.35 11.05 C 14.43 10.71 14.49 10.35 14.49 9.98 C 14.5 7.5 12.48 5.49 10 5.49 C 9.63 5.49 9.28 5.54 8.93 5.63 Z M 0.01 2.36 L 2.69 5.04 C 1.06 6.32 -0.23 8.02 -1 9.99 C 0.73 14.38 5 17.49 10 17.49 C 11.52 17.49 12.98 17.2 14.32 16.67 L 17.74 20.09 L 19.15 18.68 L 1.42 0.94 L 0.01 2.36 Z M 7.51 9.86 L 10.12 12.47 C 10.08 12.48 10.04 12.49 10 12.49 C 8.62 12.49 7.5 11.37 7.5 9.99 C 7.5 9.94 7.51 9.91 7.51 9.86 Z M 4.11 6.46 L 5.86 8.21 C 5.63 8.76 5.5 9.36 5.5 9.99 C 5.5 12.47 7.52 14.49 10 14.49 C 10.63 14.49 11.23 14.36 11.77 14.13 L 12.75 15.11 C 11.87 15.35 10.95 15.49 10 15.49 C 6.21 15.49 2.83 13.36 1.18 9.99 C 1.88 8.56 2.9 7.38 4.11 6.46 Z"/>
  </symbol>
  <symbol id="text-align-center" viewBox="0 0 20 20">
    <path d="M 5 13 L 5 15 L 15 15 L 15 13 L 5 13 Z M 1 19 L 19 19 L 19 17 L 1 17 L 1 19 Z M 1 11 L 19 11 L 19 9 L 1 9 L 1 11 Z M 5 5 L 5 7 L 15 7 L 15 5 L 5 5 Z M 1 1 L 1 3 L 19 3 L 19 1 L 1 1 Z"/>
  </symbol>
  <symbol id="text-align-left" viewBox="0 0 20 20">
    <path d="M 13 13 L 1 13 L 1 15 L 13 15 L 13 13 Z M 13 5 L 1 5 L 1 7 L 13 7 L 13 5 Z M 1 11 L 19 11 L 19 9 L 1 9 L 1 11 Z M 1 19 L 19 19 L 19 17 L 1 17 L 1 19 Z M 1 1 L 1 3 L 19 3 L 19 1 L 1 1 Z"/>
  </symbol>
  <symbol id="text-align-right" viewBox="0 0 20 20">
    <path d="M 1 19 L 19 19 L 19 17 L 1 17 L 1 19 Z M 7 15 L 19 15 L 19 13 L 7 13 L 7 15 Z M 1 11 L 19 11 L 19 9 L 1 9 L 1 11 Z M 7 7 L 19 7 L 19 5 L 7 5 L 7 7 Z M 1 1 L 1 3 L 19 3 L 19 1 L 1 1 Z"/>
  </symbol>
  <symbol id="text-align-justify" viewBox="0 0 20 20">
    <path d="M 1 19 L 19 19 L 19 17 L 1 17 L 1 19 Z M 1 15 L 19 15 L 19 13 L 1 13 L 1 15 Z M 1 11 L 19 11 L 19 9 L 1 9 L 1 11 Z M 1 7 L 19 7 L 19 5 L 1 5 L 1 7 Z M 1 1 L 1 3 L 19 3 L 19 1 L 1 1 Z"/>
  </symbol>
  <symbol id="text-bold" viewBox="0 0 20 20">
    <path d="M 13.2 9.8 C 14.2 9.1 14.9 8 14.9 7 C 14.9 4.7 13.1 3 10.9 3 L 4.6 3 L 4.6 17 L 11.7 17 C 13.8 17 15.4 15.3 15.4 13.2 C 15.4 11.7 14.5 10.4 13.2 9.8 Z M 7.6 5.5 L 10.6 5.5 C 11.8 5.5 12.5 6.8 11.9 7.8 C 11.7 8.2 11.2 8.5 10.6 8.5 L 7.6 8.5 L 7.6 5.5 Z M 11.1 14.5 L 7.6 14.5 L 7.6 11.5 L 11.1 11.5 C 12.3 11.5 13 12.8 12.4 13.8 C 12.2 14.2 11.7 14.5 11.1 14.5 Z"/>
  </symbol>
  <symbol id="text-italic" viewBox="0 0 20 20">
    <path d="M 8 3 L 8 6 L 10.2 6 L 6.8 14 L 4 14 L 4 17 L 12 17 L 12 14 L 9.8 14 L 13.2 6 L 16 6 L 16 3 Z"/>
  </symbol>
  <symbol id="text-strikethrough" viewBox="0 0 20 20">
    <path d="M 8 17.5 L 12 17.5 L 12 14.5 L 8 14.5 L 8 17.5 Z M 3 2.5 L 3 5.5 L 8 5.5 L 8 8.5 L 12 8.5 L 12 5.5 L 17 5.5 L 17 2.5 L 3 2.5 Z M 1 12.5 L 19 12.5 L 19 10.5 L 1 10.5 L 1 12.5 Z"/>
  </symbol>
  <symbol id="text-underline" viewBox="0 0 20 20">
    <path d="M 10 15 C 13.3 15 16 12.3 16 9 L 16 1 L 13.5 1 L 13.5 9 C 13.5 11.7 10.6 13.4 8.3 12 C 7.2 11.4 6.5 10.3 6.5 9 L 6.5 1 L 4 1 L 4 9 C 4 12.3 6.7 15 10 15 Z M 3 17 L 3 19 L 17 19 L 17 17 L 3 17 Z"/>
  </symbol>
  <symbol id="tune" viewBox="0 0 20 20">
    <path d="M 1 15 L 1 17 L 7 17 L 7 15 L 1 15 Z M 1 3 L 1 5 L 11 5 L 11 3 L 1 3 Z M 11 19 L 11 17 L 19 17 L 19 15 L 11 15 L 11 13 L 9 13 L 9 19 L 11 19 Z M 5 7 L 5 9 L 1 9 L 1 11 L 5 11 L 5 13 L 7 13 L 7 7 L 5 7 Z M 19 11 L 19 9 L 9 9 L 9 11 L 19 11 Z M 13 7 L 15 7 L 15 5 L 19 5 L 19 3 L 15 3 L 15 1 L 13 1 L 13 7 Z"/>
  </symbol>
</svg>