<?xml version="1.0" encoding="utf-8"?>
<svg xmlns="http://www.w3.org/2000/svg" xmlns:bx="https://boxy-svg.com">
  <symbol id="add" viewBox="0 0 20 20">
    <path d="M 18 11 L 11 11 L 11 18 L 9 18 L 9 11 L 2 11 L 2 9 L 9 9 L 9 2 L 11 2 L 11 9 L 18 9 L 18 11 Z"/>
  </symbol>
  <symbol id="alert" viewBox="0 0 20 20">
    <path d="M 10 20 C 11.1 20 12 19.1 12 18 L 8 18 C 8 19.1 8.89 20 10 20 Z M 16 14 L 16 9 C 16 5.93 14.36 3.36 11.5 2.68 L 11.5 2 C 11.5 1.17 10.83 0.5 10 0.5 C 9.17 0.5 8.5 1.17 8.5 2 L 8.5 2.68 C 5.63 3.36 4 5.92 4 9 L 4 14 L 2 16 L 2 17 L 18 17 L 18 16 L 16 14 Z"/>
  </symbol>
  <symbol id="bookmark" viewBox="0 0 20 20">
    <path d="M 15 1 L 5 1 C 3.9 1 3.01 1.9 3.01 3 L 3 19 L 10 16 L 17 19 L 17 3 C 17 1.9 16.1 1 15 1 Z"/>
  </symbol>
  <symbol id="bug" viewBox="0 0 20 20">
    <path d="M 18 6 L 15.19 6 C 14.74 5.22 14.12 4.55 13.37 4.04 L 15 2.41 L 13.59 1 L 11.42 3.17 C 10.96 3.06 10.49 3 10 3 C 9.51 3 9.04 3.06 8.59 3.17 L 6.41 1 L 5 2.41 L 6.62 4.04 C 5.88 4.55 5.26 5.22 4.81 6 L 2 6 L 2 8 L 4.09 8 C 4.04 8.33 4 8.66 4 9 L 4 10 L 2 10 L 2 12 L 4 12 L 4 13 C 4 13.34 4.04 13.67 4.09 14 L 2 14 L 2 16 L 4.81 16 C 5.85 17.79 7.78 19 10 19 C 12.22 19 14.15 17.79 15.19 16 L 18 16 L 18 14 L 15.91 14 C 15.96 13.67 16 13.34 16 13 L 16 12 L 18 12 L 18 10 L 16 10 L 16 9 C 16 8.66 15.96 8.33 15.91 8 L 18 8 L 18 6 Z M 12 14 L 8 14 L 8 12 L 12 12 L 12 14 Z M 12 10 L 8 10 L 8 8 L 12 8 L 12 10 Z"/>
  </symbol>
  <symbol id="bars" viewBox="0 0 20 20">
    <path d="M 0 12 L 4.44 12 L 4.44 8 L 0 8 L 0 12 Z"/>
    <path d="M 5.55 12 L 20 12 L 20 8 L 5.55 8 L 5.55 12 Z"/>
    <path d="M 0 18 L 4.44 18 L 4.44 14 L 0 14 L 0 18 Z"/>
    <path d="M 5.55 18 L 20 18 L 20 14 L 5.55 14 L 5.55 18 Z"/>
    <path d="M 0 6 L 4.44 6 L 4.44 2 L 0 2 L 0 6 Z"/>
    <path d="M 5.55 6 L 20 6 L 20 2 L 5.55 2 L 5.55 6 Z"/>
  </symbol>
  <symbol id="calendar" viewBox="0 0 20 20">
    <path d="M 15 10 L 10 10 L 10 15 L 15 15 L 15 10 Z M 14 -1 L 14 1 L 6 1 L 6 -1 L 4 -1 L 4 1 L 3 1 C 1.89 1 1.01 1.9 1.01 3 L 1 17 C 1 18.1 1.89 19 3 19 L 17 19 C 18.1 19 19 18.1 19 17 L 19 3 C 19 1.9 18.1 1 17 1 L 16 1 L 16 -1 L 14 -1 Z M 17 17 L 3 17 L 3 6 L 17 6 L 17 17 Z"/>
  </symbol>
  <symbol id="chevron-left" viewBox="0 0 20 20">
    <path d="M 14.8 3.59 L 13.22 2 L 5.2 10 L 13.22 18 L 14.8 16.41 L 8.37 10 L 14.8 3.59 Z"/>
  </symbol>
  <symbol id="chevron-right" viewBox="0 0 20 20">
    <path d="M 5.2 3.59 L 6.78 2 L 14.8 10 L 6.78 18 L 5.2 16.41 L 11.63 10 L 5.2 3.59 Z"/>
  </symbol>
  <symbol id="circle" viewBox="0 0 20 20">
    <path d="M 10 1 C 5.02 1 1 5.02 1 10 C 1 14.98 5.02 19 10 19 C 14.98 19 19 14.98 19 10 C 19 5.02 14.98 1 10 1 Z" style="fill: inherit;"/>
  </symbol>
  <symbol id="clock" viewBox="0 0 20 20">
    <path d="M 10 0 C 4.5 0 0 4.5 0 10 C 0 15.5 4.5 20 10 20 C 15.5 20 20 15.5 20 10 C 20 4.5 15.5 0 10 0 Z M 14.2 14.2 L 9 11 L 9 5 L 10.5 5 L 10.5 10.2 L 15 12.9 L 14.2 14.2 Z"/>
  </symbol>
  <symbol id="close" viewBox="0 0 100 100" bx:pinned="true">
    <path d="M 90 18.06 L 81.94 10 L 50 41.94 L 18.06 10 L 10 18.06 L 41.94 50 L 10 81.94 L 18.06 90 L 50 58.06 L 81.94 90 L 90 81.94 L 58.06 50 L 90 18.06 Z" style="stroke-width: 9.89; fill: inherit;"/>
  </symbol>
  <symbol id="code" viewBox="0 0 20 20">
    <path d="M 7.4 14.6 L 2.8 10 L 7.4 5.4 L 6 4 L 0 10 L 6 16 L 7.4 14.6 Z M 12.6 14.6 L 17.2 10 L 12.6 5.4 L 14 4 L 20 10 L 14 16 L 12.6 14.6 Z"/>
  </symbol>
  <symbol id="color-palette" viewBox="0 0 20 20">
    <path d="M 10 0 C 4.49 0 0 4.49 0 10 C 0 15.51 4.49 20 10 20 C 11.38 20 12.5 18.88 12.5 17.5 C 12.5 16.89 12.27 16.3 11.86 15.83 C 11.78 15.73 11.73 15.62 11.73 15.5 C 11.73 15.22 11.95 15 12.23 15 L 14 15 C 17.31 15 20 12.31 20 9 C 20 4.04 15.51 0 10 0 Z M 15.5 11 C 14.67 11 14 10.33 14 9.5 C 14 8.67 14.67 8 15.5 8 C 16.33 8 17 8.67 17 9.5 C 17 10.33 16.33 11 15.5 11 Z M 12.5 7 C 11.67 7 11 6.33 11 5.5 C 11 4.67 11.67 4 12.5 4 C 13.33 4 14 4.67 14 5.5 C 14 6.33 13.33 7 12.5 7 Z M 3 9.5 C 3 8.67 3.67 8 4.5 8 C 5.33 8 6 8.67 6 9.5 C 6 10.33 5.33 11 4.5 11 C 3.67 11 3 10.33 3 9.5 Z M 9 5.5 C 9 6.33 8.33 7 7.5 7 C 6.67 7 6 6.33 6 5.5 C 6 4.67 6.67 4 7.5 4 C 8.33 4 9 4.67 9 5.5 Z"/>
  </symbol>
  <symbol id="comment" viewBox="0 0 20 20">
    <path d="M 19 4 L 17 4 L 17 13 L 4 13 L 4 15 C 4 15.55 4.45 16 5 16 L 16 16 L 20 20 L 20 5 C 20 4.45 19.55 4 19 4 Z M 15 10 L 15 1 C 15 0.45 14.55 0 14 0 L 1 0 C 0.45 0 0 0.45 0 1 L 0 15 L 4 11 L 14 11 C 14.55 11 15 10.55 15 10 Z"/>
  </symbol>
  <symbol id="copy" viewBox="0 0 20 20">
    <path d="M 14 -1 L 2 -1 C 0.9 -1 0 -0.1 0 1 L 0 15 L 2 15 L 2 1 L 14 1 L 14 -1 Z M 17 3 L 6 3 C 4.9 3 4 3.9 4 5 L 4 19 C 4 20.1 4.9 21 6 21 L 17 21 C 18.1 21 19 20.1 19 19 L 19 5 C 19 3.9 18.1 3 17 3 Z"/>
  </symbol>
  <symbol id="credit-card" viewBox="0 0 20 20">
    <path d="M 18 2 L 2 2 C 0.89 2 0.01 2.89 0.01 4 L 0 16 C 0 17.11 0.89 18 2 18 L 18 18 C 19.11 18 20 17.11 20 16 L 20 4 C 20 2.89 19.11 2 18 2 Z M 18 16 L 2 16 L 2 10 L 18 10 L 18 16 Z M 18 6 L 2 6 L 2 4 L 18 4 L 18 6 Z"/>
  </symbol>
  <symbol id="crop" viewBox="0 0 20 20">
    <path d="M 15 13 L 17 13 L 17 5 C 17 3.9 16.1 3 15 3 L 7 3 L 7 5 L 15 5 L 15 13 Z M 5 15 L 5 -1 L 3 -1 L 3 3 L -1 3 L -1 5 L 3 5 L 3 15 C 3 16.1 3.9 17 5 17 L 15 17 L 15 21 L 17 21 L 17 17 L 21 17 L 21 15 L 5 15 Z"/>
  </symbol>
  <symbol id="cut" viewBox="0 0 20 20">
    <path d="M 7.64 5.64 C 7.87 5.14 8 4.59 8 4 C 8 1.79 6.21 0 4 0 C 1.79 0 0 1.79 0 4 C 0 6.21 1.79 8 4 8 C 4.59 8 5.14 7.87 5.64 7.64 L 8 10 L 5.64 12.36 C 5.14 12.13 4.59 12 4 12 C 1.79 12 0 13.79 0 16 C 0 18.21 1.79 20 4 20 C 6.21 20 8 18.21 8 16 C 8 15.41 7.87 14.86 7.64 14.36 L 10 12 L 17 19 L 20 19 L 20 18 L 7.64 5.64 Z M 4 6 C 2.9 6 2 5.11 2 4 C 2 2.89 2.9 2 4 2 C 5.1 2 6 2.89 6 4 C 6 5.11 5.1 6 4 6 Z M 4 18 C 2.9 18 2 17.11 2 16 C 2 14.89 2.9 14 4 14 C 5.1 14 6 14.89 6 16 C 6 17.11 5.1 18 4 18 Z M 10 10.5 C 9.72 10.5 9.5 10.28 9.5 10 C 9.5 9.72 9.72 9.5 10 9.5 C 10.28 9.5 10.5 9.72 10.5 10 C 10.5 10.28 10.28 10.5 10 10.5 Z M 17 1 L 11 7 L 13 9 L 20 2 L 20 1 L 17 1 Z"/>
  </symbol>
  <symbol id="delete" viewBox="0 0 20 20">
    <path d="M 4 17 C 4 18.1 4.9 19 6 19 L 14 19 C 15.1 19 16 18.1 16 17 L 16 5 L 4 5 L 4 17 Z M 17 2 L 13.5 2 L 12.5 1 L 7.5 1 L 6.5 2 L 3 2 L 3 4 L 17 4 L 17 2 Z"/>
  </symbol>
  <symbol id="document" viewBox="0 0 100 100" bx:pinned="true">
    <path d="M 20 0 C 14.5 0 10.05 4.5 10.05 10 L 10 90 C 10 95.5 14.45 100 19.95 100 L 80 100 C 85.5 100 90 95.5 90 90 L 90 30 L 60 0 L 20 0 Z M 55 35 L 55 7.5 L 82.5 35 L 55 35 Z" style="fill: inherit;"/>
  </symbol>
  <symbol id="earth" viewBox="0 0 20 20">
    <path d="M 10 0 C 4.48 0 0 4.48 0 10 C 0 15.52 4.48 20 10 20 C 15.52 20 20 15.52 20 10 C 20 4.48 15.52 0 10 0 Z M 2 10 C 2 9.39 2.08 8.79 2.21 8.22 L 6.99 13 L 6.99 14 C 6.99 15.1 7.89 16 8.99 16 L 8.99 17.93 C 5.06 17.43 2 14.07 2 10 Z M 15.89 15.4 C 15.63 14.59 14.89 14 13.99 14 L 12.99 14 L 12.99 11 C 12.99 10.45 12.54 10 11.99 10 L 5.99 10 L 5.99 8 L 7.99 8 C 8.54 8 8.99 7.55 8.99 7 L 8.99 5 L 10.99 5 C 12.09 5 12.99 4.1 12.99 3 L 12.99 2.59 C 15.92 3.77 18 6.65 18 10 C 18 12.08 17.19 13.98 15.89 15.4 Z"/>
  </symbol>
  <symbol id="edit" viewBox="0 0 20 20">
    <path d="M 1 15.25 L 1 19 L 4.75 19 L 15.81 7.94 L 12.06 4.19 L 1 15.25 Z M 18.71 5.04 C 19.1 4.65 19.1 4.02 18.71 3.63 L 16.37 1.29 C 15.98 0.9 15.35 0.9 14.96 1.29 L 13.13 3.12 L 16.88 6.87 L 18.71 5.04 Z"/>
  </symbol>
  <symbol id="eye-dropper" viewBox="0 0 20 20">
    <path d="M 18.7 3.64 L 16.36 1.3 C 15.98 0.9 15.35 0.9 14.96 1.3 L 11.83 4.41 L 9.92 2.51 L 8.51 3.92 L 9.92 5.33 L 1 14.25 L 1 19 L 5.75 19 L 14.68 10.08 L 16.09 11.5 L 17.49 10.09 L 15.58 8.17 L 18.7 5.06 C 19.1 4.65 19.1 4.03 18.7 3.64 Z M 4.93 17 L 3 15.08 L 11.06 7.02 L 12.98 8.94 L 4.93 17 Z" style="fill: inherit;"/>
  </symbol>
  <symbol id="flag" viewBox="0 0 20 20">
    <path d="M 12.4 4 L 12 2 L 3 2 L 3 19 L 5 19 L 5 12 L 10.6 12 L 11 14 L 18 14 L 18 4 Z"/>
  </symbol>
  <symbol id="folder" viewBox="0 0 20 20">
    <path d="M 8 2 L 2 2 C 0.9 2 0.01 2.9 0.01 4 L 0 16 C 0 17.1 0.9 18 2 18 L 18 18 C 19.1 18 20 17.1 20 16 L 20 6 C 20 4.9 19.1 4 18 4 L 10 4 L 8 2 Z"/>
  </symbol>
  <symbol id="help" viewBox="0 0 20 20">
    <path d="M 10 0 C 4.48 0 0 4.48 0 10 C 0 15.52 4.48 20 10 20 C 15.52 20 20 15.52 20 10 C 20 4.48 15.52 0 10 0 Z M 11 17 L 9 17 L 9 15 L 11 15 L 11 17 Z M 13.07 9.25 L 12.17 10.17 C 11.45 10.9 11 11.5 11 13 L 9 13 L 9 12.5 C 9 11.4 9.45 10.4 10.17 9.67 L 11.41 8.41 C 11.78 8.05 12 7.55 12 7 C 12 5.9 11.1 5 10 5 C 8.9 5 8 5.9 8 7 L 6 7 C 6 4.79 7.79 3 10 3 C 12.21 3 14 4.79 14 7 C 14 7.88 13.64 8.68 13.07 9.25 Z"/>
  </symbol>
  <symbol id="history-redo" viewBox="0 0 20 20">
    <path d="M 9.5 6 C 12.15 6 14.55 6.99 16.4 8.6 L 20 5 L 20 14 L 11 14 L 14.62 10.38 C 13.23 9.22 11.46 8.5 9.5 8.5 C 5.96 8.5 2.95 10.81 1.9 14 L -0.47 13.22 C 0.92 9.03 4.85 6 9.5 6 Z"/>
  </symbol>
  <symbol id="history-undo" viewBox="0 0 20 20">
    <path d="M 10.5 6 C 7.85 6 5.45 6.99 3.6 8.6 L 0 5 L 0 14 L 9 14 L 5.38 10.38 C 6.77 9.22 8.54 8.5 10.5 8.5 C 14.04 8.5 17.05 10.81 18.1 14 L 20.47 13.22 C 19.08 9.03 15.15 6 10.5 6 Z"/>
  </symbol>
  <symbol id="home" viewBox="0 0 20 20">
    <path d="M 8 18 L 8 12 L 12 12 L 12 18 L 17 18 L 17 10 L 20 10 L 10 1 L 0 10 L 3 10 L 3 18 Z"/>
  </symbol>
  <symbol id="image" viewBox="0 0 20 20">
    <path d="M 19 17 L 19 3 C 19 1.9 18.1 1 17 1 L 3 1 C 1.9 1 1 1.9 1 3 L 1 17 C 1 18.1 1.9 19 3 19 L 17 19 C 18.1 19 19 18.1 19 17 Z M 6.5 11.5 L 9 14.51 L 12.5 10 L 17 16 L 3 16 L 6.5 11.5 Z"/>
  </symbol>
  <symbol id="info" viewBox="0 0 20 20">
    <path d="M 10 0 C 4.48 0 0 4.48 0 10 C 0 15.52 4.48 20 10 20 C 15.52 20 20 15.52 20 10 C 20 4.48 15.52 0 10 0 Z M 11 15 L 9 15 L 9 9 L 11 9 L 11 15 Z M 11 7 L 9 7 L 9 5 L 11 5 L 11 7 Z"/>
  </symbol>
  <symbol id="link" viewBox="0 0 20 20">
    <path d="M 1.9 10 C 1.9 8.3 3.3 7 5 7 L 9 7 L 9 5 L 5 5 C 1.2 5 -1.3 9.2 0.7 12.5 C 1.6 14 3.2 15 5 15 L 9 15 L 9 13 L 5 13 C 3.3 13 1.9 11.7 1.9 10 Z M 6 11 L 14 11 L 14 9 L 6 9 L 6 11 Z M 15 5 L 11 5 L 11 7 L 15 7 C 17.4 7 18.9 9.5 17.7 11.5 C 17.1 12.5 16.1 13 15 13 L 11 13 L 11 15 L 15 15 C 18.8 15 21.3 10.8 19.3 7.5 C 18.4 6 16.8 5 15 5 Z"/>
  </symbol>
  <symbol id="lock" viewBox="0 0 20 20">
    <path d="M 16 6 L 15 6 L 15 4 C 15 1.24 12.76 -1 10 -1 C 7.24 -1 5 1.24 5 4 L 5 6 L 4 6 C 2.9 6 2 6.9 2 8 L 2 18 C 2 19.1 2.9 20 4 20 L 16 20 C 17.1 20 18 19.1 18 18 L 18 8 C 18 6.9 17.1 6 16 6 Z M 10 15 C 8.9 15 8 14.1 8 13 C 8 11.9 8.9 11 10 11 C 11.1 11 12 11.9 12 13 C 12 14.1 11.1 15 10 15 Z M 13.1 6 L 6.9 6 L 6.9 4 C 6.9 2.29 8.29 0.9 10 0.9 C 11.71 0.9 13.1 2.29 13.1 4 L 13.1 6 Z"/>
  </symbol>
  <symbol id="logout" viewBox="0 0 20 20">
    <path d="M 15 5 L 13.6 6.4 L 16.2 9 L 6 9 L 6 11 L 16.2 11 L 13.6 13.6 L 15 15 L 20 10 Z M 2 3 L 10 3 L 10 1 L 2 1 C 0.9 1 0 1.9 0 3 L 0 17 C 0 18.1 0.9 19 2 19 L 10 19 L 10 17 L 2 17 L 2 3 Z"/>
  </symbol>
  <symbol id="mail" viewBox="0 0 20 20">
    <path d="M 18 2 L 2 2 C 0.9 2 0.01 2.9 0.01 4 L 0 16 C 0 17.1 0.9 18 2 18 L 18 18 C 19.1 18 20 17.1 20 16 L 20 4 C 20 2.9 19.1 2 18 2 Z M 18 6 L 10 11 L 2 6 L 2 4 L 10 9 L 18 4 L 18 6 Z"/>
  </symbol>
  <symbol id="menu" viewBox="0 0 20 20">
    <path d="M 1 16 L 19 16 L 19 14 L 1 14 L 1 16 Z M 1 11 L 19 11 L 19 9 L 1 9 L 1 11 Z M 1 4 L 1 6 L 19 6 L 19 4 L 1 4 Z"/>
  </symbol>
  <symbol id="note" viewBox="0 0 20 20">
    <path d="M 20 8 L 14 2 L 2 2 C 0.9 2 0 2.9 0 4 L 0 16.01 C 0 17.11 0.9 18 2 18 L 18 17.99 C 19.1 17.99 20 17.1 20 16 L 20 8 Z M 13 3.5 L 18.5 9 L 13 9 L 13 3.5 Z"/>
  </symbol>
  <symbol id="open" viewBox="0 0 20 20">
    <path d="M 17 17 L 3 17 L 3 3 L 10 3 L 10 1 L 3 1 C 1.89 1 1 1.9 1 3 L 1 17 C 1 18.1 1.89 19 3 19 L 17 19 C 18.1 19 19 18.1 19 17 L 19 10 L 17 10 L 17 17 Z M 12 1 L 12 3 L 15.59 3 L 5.76 12.83 L 7.17 14.24 L 17 4.41 L 17 8 L 19 8 L 19 1 L 12 1 Z"/>
  </symbol>
  <symbol id="paste" viewBox="0 0 20 20">
    <path d="M 17 0 L 12.82 0 C 12.4 -1.16 11.3 -2 10 -2 C 8.7 -2 7.6 -1.16 7.18 0 L 3 0 C 1.9 0 1 0.9 1 2 L 1 18 C 1 19.1 1.9 20 3 20 L 17 20 C 18.1 20 19 19.1 19 18 L 19 2 C 19 0.9 18.1 0 17 0 Z M 10 0 C 10.55 0 11 0.45 11 1 C 11 1.55 10.55 2 10 2 C 9.45 2 9 1.55 9 1 C 9 0.45 9.45 0 10 0 Z M 17 18 L 3 18 L 3 2 L 5 2 L 5 5 L 15 5 L 15 2 L 17 2 L 17 18 Z"/>
  </symbol>
  <symbol id="person" viewBox="0 0 20 20">
    <path d="M 10 10 C 12.21 10 14 8.21 14 6 C 14 3.79 12.21 2 10 2 C 7.79 2 6 3.79 6 6 C 6 8.21 7.79 10 10 10 Z M 10 12 C 7.33 12 2 13.34 2 16 L 2 18 L 18 18 L 18 16 C 18 13.34 12.67 12 10 12 Z"/>
  </symbol>
  <symbol id="pin" viewBox="0 0 20 20">
    <path d="M 14 7 L 14 2 L 15 2 C 15.55 2 16 1.55 16 1 L 16 1 C 16 0.45 15.55 0 15 0 L 5 0 C 4.45 0 4 0.45 4 1 L 4 1 C 4 1.55 4.45 2 5 2 L 6 2 L 6 7 C 6 8.66 4.66 10 3 10 L 3 10 L 3 12 L 8.97 12 L 8.97 19 L 9.97 20 L 10.97 19 L 10.97 12 L 17 12 L 17 10 L 17 10 C 15.34 10 14 8.66 14 7 Z" fill-rule="evenodd"/>
  </symbol>
  <symbol id="question" viewBox="0 0 20 20">
    <path d="M 8.2 20.8 L 11.8 20.8 L 11.8 17.2 L 8.2 17.2 L 8.2 20.8 Z M 10 -0.7 C 6 -0.7 2.8 2.5 2.8 6.4 L 6.4 6.4 C 6.4 4.4 8 2.8 10 2.8 C 12 2.8 13.6 4.4 13.6 6.4 C 13.6 10 8.2 9.6 8.2 15.4 L 11.8 15.4 C 11.8 11.3 17.2 10.9 17.2 6.4 C 17.2 2.5 14 -0.7 10 -0.7 Z"/>
  </symbol>
  <symbol id="refresh" viewBox="0 0 20 20">
    <path d="M 15.64 4.35 C 14.19 2.9 12.2 2 9.99 2 C 5.57 2 2 5.58 2 10 C 2 14.42 5.57 18 9.99 18 C 13.72 18 16.83 15.45 17.72 12 L 15.64 12 C 14.82 14.33 12.6 16 9.99 16 C 6.68 16 3.99 13.31 3.99 10 C 3.99 6.69 6.68 4 9.99 4 C 11.65 4 13.13 4.69 14.21 5.78 L 10.99 9 L 17.99 9 L 17.99 2 L 15.64 4.35 Z"/>
  </symbol>
  <symbol id="remove" viewBox="0 0 20 20">
    <path d="M 18 11 L 2 11 L 2 9 L 18 9 L 18 11 Z"/>
  </symbol>
  <symbol id="search" viewBox="0 0 20 20">
    <path d="M 13.5 12 L 12.71 12 L 12.43 11.73 C 13.41 10.59 14 9.11 14 7.5 C 14 3.91 11.09 1 7.5 1 C 3.91 1 1 3.91 1 7.5 C 1 11.09 3.91 14 7.5 14 C 9.11 14 10.59 13.41 11.73 12.43 L 12 12.71 L 12 13.5 L 17 18.49 L 18.49 17 L 13.5 12 Z M 7.5 12 C 5.01 12 3 9.99 3 7.5 C 3 5.01 5.01 3 7.5 3 C 9.99 3 12 5.01 12 7.5 C 12 9.99 9.99 12 7.5 12 Z"/>
  </symbol>
  <symbol id="send" viewBox="0 0 20 20">
    <path d="M 0.01 19 L 21 10 L 0.01 1 L 0 8 L 15 10 L 0 12 Z"/>
  </symbol>
  <symbol id="settings" viewBox="0 0 20 20">
    <path d="M 17.44 10.98 C 17.48 10.67 17.5 10.34 17.5 10 C 17.5 9.67 17.48 9.33 17.43 9.02 L 19.54 7.37 C 19.73 7.23 19.78 6.95 19.67 6.74 L 17.67 3.28 C 17.54 3.05 17.28 2.98 17.05 3.05 L 14.56 4.05 C 14.04 3.66 13.49 3.32 12.87 3.07 L 12.5 0.43 C 12.46 0.18 12.25 0 12 0 L 8 0 C 7.75 0 7.55 0.18 7.51 0.43 L 7.14 3.07 C 6.52 3.32 5.96 3.67 5.45 4.05 L 2.96 3.05 C 2.73 2.97 2.47 3.05 2.34 3.28 L 0.35 6.74 C 0.23 6.96 0.27 7.23 0.48 7.37 L 2.59 9.02 C 2.54 9.33 2.5 9.68 2.5 10 C 2.5 10.32 2.52 10.67 2.57 10.98 L 0.46 12.62 C 0.27 12.77 0.22 13.05 0.33 13.26 L 2.33 16.72 C 2.46 16.95 2.72 17.02 2.95 16.95 L 5.44 15.95 C 5.96 16.34 6.51 16.68 7.12 16.93 L 7.5 19.57 C 7.55 19.82 7.75 20 8 20 L 12 20 C 12.25 20 12.46 19.82 12.49 19.57 L 12.86 16.93 C 13.48 16.68 14.04 16.34 14.55 15.95 L 17.04 16.95 C 17.27 17.03 17.53 16.95 17.66 16.72 L 19.66 13.26 C 19.78 13.03 19.73 12.77 19.53 12.62 L 17.44 10.98 Z M 10 13.75 C 7.94 13.75 6.25 12.06 6.25 10 C 6.25 7.94 7.94 6.25 10 6.25 C 12.06 6.25 13.75 7.94 13.75 10 C 13.75 12.06 12.06 13.75 10 13.75 Z"/>
  </symbol>
  <symbol id="sort" viewBox="0 0 20 20">
    <path d="M 1 16 L 7 16 L 7 14 L 1 14 L 1 16 Z M 1 4 L 1 6 L 19 6 L 19 4 L 1 4 Z M 1 11 L 13 11 L 13 9 L 1 9 L 1 11 Z"/>
  </symbol>
  <symbol id="square" viewBox="0 0 20 20">
    <rect style="fill: inherit;" x="1" y="1" width="18" height="18" rx="2" ry="2"/>
  </symbol>
  <symbol id="toggle-off" viewBox="0 0 20 20">
    <path d="M 15 5 L 5 5 C 2.24 5 0 7.24 0 10 C 0 12.76 2.24 15 5 15 L 15 15 C 17.76 15 20 12.76 20 10 C 20 7.24 17.76 5 15 5 Z M 5 13 C 3.34 13 2 11.66 2 10 C 2 8.34 3.34 7 5 7 C 6.66 7 8 8.34 8 10 C 8 11.66 6.66 13 5 13 Z"/>
  </symbol>
  <symbol id="toggle-on" viewBox="0 0 20 20">
    <path d="M 15 5 L 5 5 C 2.24 5 0 7.24 0 10 C 0 12.76 2.24 15 5 15 L 15 15 C 17.76 15 20 12.76 20 10 C 20 7.24 17.76 5 15 5 Z M 15 13 C 13.34 13 12 11.66 12 10 C 12 8.34 13.34 7 15 7 C 16.66 7 18 8.34 18 10 C 18 11.66 16.66 13 15 13 Z"/>
  </symbol>
  <symbol id="wrench" viewBox="0 0 20 20">
    <path d="M 20.73 16.95 L 11.63 7.85 C 12.53 5.55 12.03 2.85 10.13 0.95 C 8.13 -1.05 5.13 -1.45 2.73 -0.35 L 7.03 3.95 L 4.03 6.95 L -0.37 2.65 C -1.57 5.05 -1.07 8.05 0.93 10.05 C 2.83 11.95 5.53 12.45 7.83 11.55 L 16.93 20.65 C 17.33 21.05 17.93 21.05 18.33 20.65 L 20.63 18.35 C 21.13 17.95 21.13 17.25 20.73 16.95 Z"/>
  </symbol>
  <symbol id="vehicle-airplane" viewBox="0 0 20 20">
    <path d="M 19.5 14 L 19.5 12 L 11.5 7 L 11.5 1.5 C 11.5 0.67 10.83 0 10 0 C 9.17 0 8.5 0.67 8.5 1.5 L 8.5 7 L 0.5 12 L 0.5 14 L 8.5 11.5 L 8.5 17 L 6.5 18.5 L 6.5 20 L 10 19 L 13.5 20 L 13.5 18.5 L 11.5 17 L 11.5 11.5 L 19.5 14 Z"/>
  </symbol>
  <symbol id="vehicle-bicycle" viewBox="0 0 20 20">
    <path d="M 13.5 3.5 C 14.6 3.5 15.5 2.6 15.5 1.5 C 15.5 0.4 14.6 -0.5 13.5 -0.5 C 12.4 -0.5 11.5 0.4 11.5 1.5 C 11.5 2.6 12.4 3.5 13.5 3.5 Z M 3 10 C 0.2 10 -2 12.2 -2 15 C -2 17.8 0.2 20 3 20 C 5.8 20 8 17.8 8 15 C 8 12.2 5.8 10 3 10 Z M 3 18.5 C 1.1 18.5 -0.5 16.9 -0.5 15 C -0.5 13.1 1.1 11.5 3 11.5 C 4.9 11.5 6.5 13.1 6.5 15 C 6.5 16.9 4.9 18.5 3 18.5 Z M 8.8 8.5 L 11.2 6.1 L 12 6.9 C 13.3 8.2 15 9 17.1 9 L 17.1 7 C 15.6 7 14.4 6.4 13.5 5.5 L 11.6 3.6 C 11.1 3.2 10.6 3 10 3 C 9.4 3 8.9 3.2 8.6 3.6 L 5.8 6.4 C 5.4 6.8 5.2 7.3 5.2 7.8 C 5.2 8.4 5.4 8.9 5.8 9.2 L 9 12 L 9 17 L 11 17 L 11 10.8 L 8.8 8.5 Z M 17 10 C 14.2 10 12 12.2 12 15 C 12 17.8 14.2 20 17 20 C 19.8 20 22 17.8 22 15 C 22 12.2 19.8 10 17 10 Z M 17 18.5 C 15.1 18.5 13.5 16.9 13.5 15 C 13.5 13.1 15.1 11.5 17 11.5 C 18.9 11.5 20.5 13.1 20.5 15 C 20.5 16.9 18.9 18.5 17 18.5 Z"/>
  </symbol>
  <symbol id="vehicle-boat" viewBox="0 0 20 20">
    <path d="M 18 19 C 16.61 19 15.22 18.53 14 17.68 C 11.56 19.39 8.44 19.39 6 17.68 C 4.78 18.53 3.39 19 2 19 L 0 19 L 0 21 L 2 21 C 3.38 21 4.74 20.65 6 20.01 C 8.52 21.3 11.48 21.3 14 20.01 C 15.26 20.66 16.62 21 18 21 L 20 21 L 20 19 L 18 19 Z M 1.95 17 L 2 17 C 3.6 17 5.02 16.12 6 15 C 6.98 16.12 8.4 17 10 17 C 11.6 17 13.02 16.12 14 15 C 14.98 16.12 16.4 17 18 17 L 18.05 17 L 19.94 10.32 C 20.02 10.06 20 9.78 19.88 9.54 C 19.76 9.3 19.54 9.12 19.28 9.04 L 18 8.62 L 18 4 C 18 2.9 17.1 2 16 2 L 13 2 L 13 -1 L 7 -1 L 7 2 L 4 2 C 2.9 2 2 2.9 2 4 L 2 8.62 L 0.71 9.04 C 0.45 9.12 0.23 9.3 0.11 9.54 C -0.01 9.78 -0.04 10.06 0.05 10.32 L 1.95 17 Z M 4 4 L 16 4 L 16 7.97 L 10 6 L 4 7.97 L 4 4 Z"/>
  </symbol>
  <symbol id="vehicle-bus" viewBox="0 0 20 20">
    <path d="M 2 14 C 2 14.88 2.39 15.67 3 16.22 L 3 18 C 3 18.55 3.45 19 4 19 L 5 19 C 5.55 19 6 18.55 6 18 L 6 17 L 14 17 L 14 18 C 14 18.55 14.45 19 15 19 L 16 19 C 16.55 19 17 18.55 17 18 L 17 16.22 C 17.61 15.67 18 14.88 18 14 L 18 4 C 18 0.5 14.42 0 10 0 C 5.58 0 2 0.5 2 4 L 2 14 Z M 5.5 15 C 4.67 15 4 14.33 4 13.5 C 4 12.67 4.67 12 5.5 12 C 6.33 12 7 12.67 7 13.5 C 7 14.33 6.33 15 5.5 15 Z M 14.5 15 C 13.67 15 13 14.33 13 13.5 C 13 12.67 13.67 12 14.5 12 C 15.33 12 16 12.67 16 13.5 C 16 14.33 15.33 15 14.5 15 Z M 16 9 L 4 9 L 4 4 L 16 4 L 16 9 Z"/>
  </symbol>
  <symbol id="vehicle-car" viewBox="0 0 20 20">
    <path d="M 16.92 4.01 C 16.72 3.42 16.16 3 15.5 3 L 4.5 3 C 3.84 3 3.29 3.42 3.08 4.01 L 1 10 L 1 18 C 1 18.55 1.45 19 2 19 L 3 19 C 3.55 19 4 18.55 4 18 L 4 17 L 16 17 L 16 18 C 16 18.55 16.45 19 17 19 L 18 19 C 18.55 19 19 18.55 19 18 L 19 10 L 16.92 4.01 Z M 4.5 14 C 3.67 14 3 13.33 3 12.5 C 3 11.67 3.67 11 4.5 11 C 5.33 11 6 11.67 6 12.5 C 6 13.33 5.33 14 4.5 14 Z M 15.5 14 C 14.67 14 14 13.33 14 12.5 C 14 11.67 14.67 11 15.5 11 C 16.33 11 17 11.67 17 12.5 C 17 13.33 16.33 14 15.5 14 Z M 3 9 L 4.5 4.5 L 15.5 4.5 L 17 9 L 3 9 Z"/>
  </symbol>
  <symbol id="visibility-visible" viewBox="0 0 20 20">
    <path d="M 10 2.5 C 5 2.5 0.73 5.61 -1 10 C 0.73 14.39 5 17.5 10 17.5 C 15 17.5 19.27 14.39 21 10 C 19.27 5.61 15 2.5 10 2.5 Z M 10 15 C 7.24 15 5 12.76 5 10 C 5 7.24 7.24 5 10 5 C 12.76 5 15 7.24 15 10 C 15 12.76 12.76 15 10 15 Z M 10 7 C 8.34 7 7 8.34 7 10 C 7 11.66 8.34 13 10 13 C 11.66 13 13 11.66 13 10 C 13 8.34 11.66 7 10 7 Z"/>
  </symbol>
  <symbol id="visibility-hidden" viewBox="0 0 20 20">
    <path d="M 10.01 5 C 12.77 5 15.01 7.24 15.01 10 C 15.01 10.65 14.88 11.26 14.65 11.83 L 17.57 14.75 C 19.08 13.49 20.27 11.86 21 10 C 19.27 5.61 15 2.5 10 2.5 C 8.6 2.5 7.26 2.75 6.02 3.2 L 8.18 5.36 C 8.75 5.13 9.36 5 10.01 5 Z M 0.01 2.27 L 2.29 4.55 L 2.75 5.01 C 1.09 6.3 -0.21 8.02 -0.99 10 C 0.74 14.39 5.01 17.5 10.01 17.5 C 11.56 17.5 13.04 17.2 14.39 16.66 L 14.81 17.08 L 17.74 20 L 19.01 18.73 L 1.28 1 L 0.01 2.27 Z M 5.54 7.8 L 7.09 9.35 C 7.04 9.56 7.01 9.78 7.01 10 C 7.01 11.66 8.35 13 10.01 13 C 10.23 13 10.45 12.97 10.66 12.92 L 12.21 14.47 C 11.54 14.8 10.8 15 10.01 15 C 7.25 15 5.01 12.76 5.01 10 C 5.01 9.21 5.21 8.47 5.54 7.8 Z M 9.85 7.02 L 13 10.17 L 13.02 10.01 C 13.02 8.35 11.68 7.01 10.02 7.01 L 9.85 7.02 Z"/>
  </symbol>
  <symbol id="text-align-center" viewBox="0 0 20 20">
    <path d="M 5 13 L 5 15 L 15 15 L 15 13 L 5 13 Z M 1 19 L 19 19 L 19 17 L 1 17 L 1 19 Z M 1 11 L 19 11 L 19 9 L 1 9 L 1 11 Z M 5 5 L 5 7 L 15 7 L 15 5 L 5 5 Z M 1 1 L 1 3 L 19 3 L 19 1 L 1 1 Z"/>
  </symbol>
  <symbol id="text-align-left" viewBox="0 0 20 20">
    <path d="M 13 13 L 1 13 L 1 15 L 13 15 L 13 13 Z M 13 5 L 1 5 L 1 7 L 13 7 L 13 5 Z M 1 11 L 19 11 L 19 9 L 1 9 L 1 11 Z M 1 19 L 19 19 L 19 17 L 1 17 L 1 19 Z M 1 1 L 1 3 L 19 3 L 19 1 L 1 1 Z"/>
  </symbol>
  <symbol id="text-align-right" viewBox="0 0 20 20">
    <path d="M 1 19 L 19 19 L 19 17 L 1 17 L 1 19 Z M 7 15 L 19 15 L 19 13 L 7 13 L 7 15 Z M 1 11 L 19 11 L 19 9 L 1 9 L 1 11 Z M 7 7 L 19 7 L 19 5 L 7 5 L 7 7 Z M 1 1 L 1 3 L 19 3 L 19 1 L 1 1 Z"/>
  </symbol>
  <symbol id="text-align-justify" viewBox="0 0 20 20">
    <path d="M 1 19 L 19 19 L 19 17 L 1 17 L 1 19 Z M 1 15 L 19 15 L 19 13 L 1 13 L 1 15 Z M 1 11 L 19 11 L 19 9 L 1 9 L 1 11 Z M 1 7 L 19 7 L 19 5 L 1 5 L 1 7 Z M 1 1 L 1 3 L 19 3 L 19 1 L 1 1 Z"/>
  </symbol>
  <symbol id="text-bold" viewBox="0 0 20 20">
    <path d="M 13.2 9.8 C 14.2 9.1 14.9 8 14.9 7 C 14.9 4.7 13.1 3 10.9 3 L 4.6 3 L 4.6 17 L 11.7 17 C 13.8 17 15.4 15.3 15.4 13.2 C 15.4 11.7 14.5 10.4 13.2 9.8 Z M 7.6 5.5 L 10.6 5.5 C 11.8 5.5 12.5 6.8 11.9 7.8 C 11.7 8.2 11.2 8.5 10.6 8.5 L 7.6 8.5 L 7.6 5.5 Z M 11.1 14.5 L 7.6 14.5 L 7.6 11.5 L 11.1 11.5 C 12.3 11.5 13 12.8 12.4 13.8 C 12.2 14.2 11.7 14.5 11.1 14.5 Z"/>
  </symbol>
  <symbol id="text-italic" viewBox="0 0 20 20">
    <path d="M 8 3 L 8 6 L 10.2 6 L 6.8 14 L 4 14 L 4 17 L 12 17 L 12 14 L 9.8 14 L 13.2 6 L 16 6 L 16 3 Z"/>
  </symbol>
  <symbol id="text-strikethrough" viewBox="0 0 20 20">
    <path d="M 8 17.5 L 12 17.5 L 12 14.5 L 8 14.5 L 8 17.5 Z M 3 2.5 L 3 5.5 L 8 5.5 L 8 8.5 L 12 8.5 L 12 5.5 L 17 5.5 L 17 2.5 L 3 2.5 Z M 1 12.5 L 19 12.5 L 19 10.5 L 1 10.5 L 1 12.5 Z"/>
  </symbol>
  <symbol id="text-underline" viewBox="0 0 20 20">
    <path d="M 10 15 C 13.3 15 16 12.3 16 9 L 16 1 L 13.5 1 L 13.5 9 C 13.5 11.7 10.6 13.4 8.3 12 C 7.2 11.4 6.5 10.3 6.5 9 L 6.5 1 L 4 1 L 4 9 C 4 12.3 6.7 15 10 15 Z M 3 17 L 3 19 L 17 19 L 17 17 L 3 17 Z"/>
  </symbol>
  <symbol id="tune" viewBox="0 0 20 20">
    <path d="M 1 15 L 1 17 L 7 17 L 7 15 L 1 15 Z M 1 3 L 1 5 L 11 5 L 11 3 L 1 3 Z M 11 19 L 11 17 L 19 17 L 19 15 L 11 15 L 11 13 L 9 13 L 9 19 L 11 19 Z M 5 7 L 5 9 L 1 9 L 1 11 L 5 11 L 5 13 L 7 13 L 7 7 L 5 7 Z M 19 11 L 19 9 L 9 9 L 9 11 L 19 11 Z M 13 7 L 15 7 L 15 5 L 19 5 L 19 3 L 15 3 L 15 1 L 13 1 L 13 7 Z"/>
  </symbol>
</svg>