<?xml version="1.0" encoding="utf-8"?>
<svg xmlns="http://www.w3.org/2000/svg">
  <symbol id="xel" viewBox="0 0 1024 1024">
    <rect width="768" height="768" style="fill: currentcolor; opacity: 0.82;" x="128" y="128"/>
    <path d="M 198.386 515.972 L 728.517 455.923 L 825.267 553.44 L 290.776 609.9 L 198.386 515.972 Z" style="fill: rgb(255, 255, 255); opacity: 0.7;" transform="matrix(-0.707107, 0.707107, -0.707107, -0.707107, 1250.567873, 547.820855)"/>
    <path d="M 321.578 606.894 L 708.988 648.192 L 805.738 550.674 L 286.01 496.987 L 321.578 606.894 Z" style="fill: rgb(255, 255, 255);" transform="matrix(0.707107, 0.707107, -0.707107, 0.707107, 564.764715, -218.283618)"/>
    <path d="M 385.869 453.938 L 450.681 390.757 C 466.476 349.988 456.513 303.731 425.336 273.081 C 391.951 240.088 341.622 231.22 298.972 250.813 L 385.85 339.308 L 334.615 390.541 L 245.927 302.048 C 225.434 344.579 234.399 395.447 268.195 428.412 C 298.805 459.653 345.066 469.689 385.869 453.938 Z" style="fill: rgb(255, 255, 255);"/>
  </symbol>
  <symbol id="color-wheel" viewBox="24 24 100 100">
    <path style="fill: rgb(255, 207, 0);" d="M 59.381 26.185 C 68.625 23.359 78.49 23.273 87.782 25.937 L 74 74 Z"/>
    <path style="fill: rgb(255, 166, 0);" d="M 86.941 25.704 C 96.278 28.206 104.689 33.36 111.157 40.543 L 74 74 Z"/>
    <path style="fill: rgb(255, 126, 1);" d="M 111.157 40.543 C 117.625 47.727 121.872 56.631 123.384 66.178 L 74 74 Z"/>
    <path style="fill: rgb(254, 33, 0);" d="M 123.24 65.318 C 124.97 75.13 123.73 85.235 119.677 94.337 L 74 74 Z"/>
    <path style="fill: rgb(245, 36, 148);" d="M 119.677 94.337 C 115.746 103.167 109.339 110.669 101.232 115.934 L 74 74 Z"/>
    <path style="fill: rgb(139, 33, 187);" d="M 101.232 115.934 C 93.125 121.198 83.666 124 74 124 L 74 74 Z"/>
    <path style="fill: rgb(0, 35, 186);" d="M 74.873 123.992 C 64.613 124.171 54.547 121.19 46.04 115.452 L 74 74 Z"/>
    <path style="fill: rgb(0, 121, 199);" d="M 46.04 115.452 C 38.273 110.213 32.134 102.896 28.323 94.337 L 74 74 Z"/>
    <path style="fill: rgb(0, 178, 212);" d="M 28.323 94.337 C 24.512 85.777 23.183 76.32 24.487 67.041 L 74 74 Z"/>
    <path style="fill: rgb(2, 183, 0);" d="M 24.487 67.041 C 25.832 57.469 29.923 48.492 36.265 41.197 L 74 74 Z"/>
    <path style="fill: rgb(131, 206, 0);" d="M 35.698 41.861 C 41.911 34.456 50.138 29.011 59.381 26.185 L 74 74 Z"/>
  </symbol>
    <symbol id="fluent" viewBox="0 0 100 100">
      <rect width="42" height="41.95" style="fill: inherit;" x="6" y="6"/>
      <rect width="42" height="41.95" style="fill: inherit;" x="52" y="6"/>
      <rect width="42" height="41.95" style="fill: inherit;" x="6" y="52.05"/>
      <rect width="42" height="41.95" style="fill: inherit;" x="52" y="52.05"/>
    </symbol>
    <symbol id="cupertino" viewBox="0 0 100 100">
      <path d="M 77.84 53.15 C 77.72 40.53 88.4 34.38 88.88 34.09 C 82.84 25.46 73.46 24.28 70.18 24.19 C 62.3 23.39 54.67 28.81 50.66 28.81 C 46.57 28.81 40.39 24.27 33.75 24.41 C 25.19 24.54 17.17 29.39 12.78 36.92 C 3.72 52.3 10.48 74.88 19.17 87.3 C 23.51 93.4 28.58 100.17 35.23 99.94 C 41.74 99.68 44.16 95.9 52.01 95.9 C 59.79 95.9 62.05 99.94 68.84 99.78 C 75.81 99.68 80.21 93.67 84.4 87.53 C 89.43 80.57 91.44 73.7 91.53 73.35 C 91.36 73.29 77.98 68.29 77.84 53.15 Z" style="fill: inherit;"/>
      <path d="M 65.04 16.02 C 68.53 11.73 70.92 5.92 70.26 0 C 65.2 0.22 58.87 3.43 55.22 7.61 C 51.99 11.3 49.12 17.35 49.86 23.05 C 55.54 23.46 61.38 20.24 65.04 16.02 Z" style="fill: inherit;"/>
    </symbol>
    <symbol id="adwaita" viewBox="0 0 100 100">
      <path d="M 69.08 29.65 C 57.4 29.65 61.29 0.05 82.06 0.05 C 102.85 0.05 80.77 29.65 69.08 29.65 Z M 48.92 3.74 C 60.62 2.24 53.79 26.35 47.55 25.97 C 41.34 25.59 37.23 5.26 48.92 3.74 Z M 12.08 25.17 C 19.62 19.97 23.47 39.02 19.04 40.98 C 14.63 42.92 4.57 30.37 12.08 25.17 Z M 27.66 12.19 C 37.06 8.31 36.78 29.92 31.51 31 C 26.25 32.06 18.27 16.07 27.66 12.19 Z M 78.26 78.81 C 76.03 90.61 64.14 99.94 53.81 99.94 C 32.83 99.94 12.73 75.54 16.67 57.95 C 22.46 31.94 73.44 26.82 76.23 43.45 C 79.6 63.48 28.51 70.77 47.75 85.43 C 53.79 90.03 59.97 86.52 59.02 79.37 C 58.25 73.42 79.96 69.81 78.26 78.81 Z" style="fill: inherit; fill-opacity: 1; fill-rule: nonzero; stroke: none; stroke-miterlimit: 4;" id="path3775"/>
    </symbol>
    <symbol id="material" viewBox="0 0 100 100">
      <path style="fill: inherit;" d="M 75.45 39.959 L 83.82 25.509 C 84.55 24.099 84 22.369 82.64 21.639 C 81.32 20.959 79.68 21.369 78.86 22.639 L 70.32 37.369 C 57.32 31.869 42.68 31.869 29.68 37.369 L 21.14 22.639 C 20.27 21.319 18.5 20.919 17.18 21.729 C 15.91 22.549 15.5 24.189 16.18 25.509 L 24.55 39.959 C 10.45 48.009 1.27 62.509 0 78.689 L 100 78.689 C 98.73 62.509 89.55 48.009 75.45 39.959 Z M 27.27 66.189 C 24.14 66.189 21.59 63.639 21.59 60.509 C 21.59 57.369 24.14 54.819 27.27 54.819 C 30.41 54.819 32.95 57.369 32.95 60.509 C 32.95 63.639 30.41 66.189 27.27 66.189 Z M 72.73 66.189 C 69.59 66.189 67.05 63.639 67.05 60.509 C 67.05 57.369 69.59 54.819 72.73 54.819 C 75.86 54.819 78.41 57.369 78.41 60.509 C 78.41 63.639 75.86 66.189 72.73 66.189 Z"/>
    </symbol>
</svg>