<?xml version="1.0" encoding="UTF-8"?>
<svg xmlns="http://www.w3.org/2000/svg" viewBox="0 0 100 100">
  <style>
    rect {
      x: 46.5px;
      y: 40px;
      width: 7px;
      height: 22px;
      rx: 5px;
      ry: 5px;
      fill: currentColor;
    }
  </style>

  <rect transform="rotate(0 50 50) translate(0 -38)">
    <animate attributeName="opacity" from="1" to="0" dur="1s" begin="0s" repeatCount="indefinite" />
  </rect>
  <rect transform="rotate(30 50 50) translate(0 -38)">
    <animate attributeName="opacity" from="1" to="0" dur="1s" begin="0.08s" repeatCount="indefinite" />
  </rect>
  <rect transform="rotate(60 50 50) translate(0 -38)">
    <animate attributeName="opacity" from="1" to="0" dur="1s" begin="0.17s" repeatCount="indefinite" />
  </rect>
  <rect transform="rotate(90 50 50) translate(0 -38)">
    <animate attributeName="opacity" from="1" to="0" dur="1s" begin="0.25s" repeatCount="indefinite" />
  </rect>
  <rect transform="rotate(120 50 50) translate(0 -38)">
    <animate attributeName="opacity" from="1" to="0" dur="1s" begin="0.33s" repeatCount="indefinite" />
  </rect>
  <rect transform="rotate(150 50 50) translate(0 -38)">
    <animate attributeName="opacity" from="1" to="0" dur="1s" begin="0.42s" repeatCount="indefinite" />
  </rect>
  <rect transform="rotate(180 50 50) translate(0 -38)">
    <animate attributeName="opacity" from="1" to="0" dur="1s" begin="0.5s" repeatCount="indefinite" />
  </rect>
  <rect transform="rotate(210 50 50) translate(0 -38)">
    <animate attributeName="opacity" from="1" to="0" dur="1s" begin="0.58s" repeatCount="indefinite" />
  </rect>
  <rect transform="rotate(240 50 50) translate(0 -38)">
    <animate attributeName="opacity" from="1" to="0" dur="1s" begin="0.66s" repeatCount="indefinite" />
  </rect>
  <rect transform="rotate(270 50 50) translate(0 -38)">
    <animate attributeName="opacity" from="1" to="0" dur="1s" begin="0.75s" repeatCount="indefinite" />
  </rect>
  <rect transform="rotate(300 50 50) translate(0 -38)">
    <animate attributeName="opacity" from="1" to="0" dur="1s" begin="0.83s" repeatCount="indefinite" />
  </rect>
  <rect transform="rotate(330 50 50) translate(0 -38)">
    <animate attributeName="opacity" from="1" to="0" dur="1s" begin="0.92s" repeatCount="indefinite" />
  </rect>
</svg>